<?xml version="1.0" encoding="UTF-8" standalone="no"?><svg xmlns="http://www.w3.org/2000/svg" xmlns:xlink="http://www.w3.org/1999/xlink" contentStyleType="text/css" height="952px" preserveAspectRatio="none" style="width:1617px;height:952px;background:#FFFFFF;" version="1.1" viewBox="0 0 1617 952" width="1617px" zoomAndPan="magnify"><defs/><g><!--MD5=[0f39e4cb6f03951afbf6d14bd2505654]
class Address--><g id="elem_Address"><rect codeLine="4" fill="#F1F1F1" height="105.1875" id="Address" rx="2.5" ry="2.5" style="stroke:#181818;stroke-width:0.5;" width="166" x="384" y="10"/><ellipse cx="399" cy="26" fill="#ADD1B2" rx="11" ry="11" style="stroke:#181818;stroke-width:1.0;"/><path d="M401.3438,21.6719 C400.4063,21.2344 399.8125,21.0938 398.9375,21.0938 C396.3125,21.0938 394.3125,23.1719 394.3125,25.8906 L394.3125,27.0156 C394.3125,29.5938 396.4219,31.4844 399.3125,31.4844 C400.5313,31.4844 401.6875,31.1875 402.4375,30.6406 C403.0156,30.2344 403.3438,29.7813 403.3438,29.3906 C403.3438,28.9375 402.9531,28.5469 402.4844,28.5469 C402.2656,28.5469 402.0625,28.625 401.875,28.8125 C401.4219,29.2969 401.4219,29.2969 401.2344,29.3906 C400.8125,29.6563 400.125,29.7813 399.3594,29.7813 C397.3125,29.7813 396.0156,28.6875 396.0156,26.9844 L396.0156,25.8906 C396.0156,24.1094 397.2656,22.7969 399,22.7969 C399.5781,22.7969 400.1875,22.9531 400.6563,23.2031 C401.1406,23.4844 401.3125,23.7031 401.4063,24.1094 C401.4688,24.5156 401.5,24.6406 401.6406,24.7656 C401.7813,24.9063 402.0156,25.0156 402.2344,25.0156 C402.5,25.0156 402.7656,24.875 402.9375,24.6563 C403.0469,24.5 403.0781,24.3125 403.0781,23.8906 L403.0781,22.4688 C403.0781,22.0313 403.0625,21.9063 402.9688,21.75 C402.8125,21.4844 402.5313,21.3438 402.2344,21.3438 C401.9375,21.3438 401.7344,21.4375 401.5156,21.75 L401.3438,21.6719 Z " fill="#000000"/><text fill="#000000" font-family="sans-serif" font-size="14" lengthAdjust="spacing" textLength="57" x="413" y="30.8467">Address</text><rect fill="#FFFFFF" height="15.9688" style="stroke:#181818;stroke-width:1.0;stroke-dasharray:2.0,2.0;" width="75" x="478" y="7"/><text fill="#000000" font-family="sans-serif" font-size="12" font-style="italic" lengthAdjust="spacing" textLength="73" x="479" y="19.1387">value object</text><line style="stroke:#181818;stroke-width:0.5;" x1="385" x2="549" y1="42" y2="42"/><ellipse cx="395" cy="55.6484" fill="#000000" rx="3" ry="3" style="stroke:#000000;stroke-width:1.0;"/><text fill="#000000" font-family="sans-serif" font-size="14" lengthAdjust="spacing" textLength="102" x="404" y="58.9951">street : String</text><ellipse cx="395" cy="71.9453" fill="#000000" rx="3" ry="3" style="stroke:#000000;stroke-width:1.0;"/><text fill="#000000" font-family="sans-serif" font-size="14" lengthAdjust="spacing" textLength="118" x="404" y="75.292">streetNr : String</text><ellipse cx="395" cy="88.2422" fill="#000000" rx="3" ry="3" style="stroke:#000000;stroke-width:1.0;"/><text fill="#000000" font-family="sans-serif" font-size="14" lengthAdjust="spacing" textLength="86" x="404" y="91.5889">City : String</text><ellipse cx="395" cy="104.5391" fill="#000000" rx="3" ry="3" style="stroke:#000000;stroke-width:1.0;"/><text fill="#000000" font-family="sans-serif" font-size="14" lengthAdjust="spacing" textLength="90" x="404" y="107.8857">Zip : Integer</text></g><!--MD5=[41e1c6cf192918703501b24b2053926c]
class Class--><g id="elem_Class"><rect codeLine="11" fill="#FFFFFF" height="173.9844" id="Class" rx="2.5" ry="2.5" style="stroke:#181818;stroke-width:0.5;" width="230" x="716" y="503.5"/><rect fill="none" height="35.6094" rx="2.5" ry="2.5" style="stroke:none;stroke-width:0.5;" width="230" x="716" y="503.5"/><rect fill="none" height="2.5" style="stroke:none;stroke-width:0.5;" width="230" x="716" y="536.6094"/><rect codeLine="11" fill="none" height="173.9844" id="Class" rx="2.5" ry="2.5" style="stroke:#181818;stroke-width:0.5;" width="230" x="716" y="503.5"/><ellipse cx="790.25" cy="521.3047" fill="#FF7700" rx="11" ry="11" style="stroke:#181818;stroke-width:1.0;"/><path d="M789.0469,522.1797 L790.5,522.1797 L790.5,522.2891 C790.5,522.6953 790.5313,522.8516 790.6094,523.0078 C790.7656,523.2578 791.0469,523.4141 791.3438,523.4141 C791.5938,523.4141 791.8594,523.2734 792.0156,523.0547 C792.1406,522.8984 792.1719,522.7422 792.1719,522.2891 L792.1719,520.3672 C792.1719,520.2109 792.1719,520.1641 792.1563,520.0078 C792.0938,519.5391 791.7813,519.2266 791.3281,519.2266 C791.0781,519.2266 790.8125,519.3672 790.6406,519.5859 C790.5313,519.7578 790.5,519.9141 790.5,520.3672 L790.5,520.4922 L789.0469,520.4922 L789.0469,518.0859 L793.0313,518.0859 L793.0313,518.9453 C793.0313,519.3516 793.0625,519.5234 793.1406,519.6797 C793.3125,519.9297 793.5938,520.0859 793.875,520.0859 C794.1406,520.0859 794.4063,519.9453 794.5781,519.7266 C794.6875,519.5547 794.7188,519.4141 794.7188,518.9453 L794.7188,516.3984 L787.0938,516.3984 C786.6563,516.3984 786.5313,516.4141 786.375,516.5078 C786.125,516.6641 785.9688,516.9609 785.9688,517.2422 C785.9688,517.5234 786.1094,517.7734 786.3281,517.9453 C786.4844,518.0547 786.6719,518.0859 787.0938,518.0859 L787.3438,518.0859 L787.3438,524.6016 L787.0938,524.6016 C786.6875,524.6016 786.5313,524.6172 786.375,524.7266 C786.125,524.8984 785.9688,525.1641 785.9688,525.4609 C785.9688,525.7266 786.1094,525.9766 786.3281,526.1328 C786.4688,526.2578 786.7031,526.3047 787.0938,526.3047 L795.0938,526.3047 L795.0938,523.7266 C795.0938,523.2891 795.0625,523.1484 794.9844,522.9922 C794.8125,522.7422 794.5313,522.5859 794.25,522.5859 C793.9844,522.5859 793.7188,522.6953 793.5469,522.9453 C793.4375,523.1016 793.4063,523.2422 793.4063,523.7266 L793.4063,524.6016 L789.0469,524.6016 L789.0469,522.1797 Z " fill="#000000"/><text fill="#000000" font-family="sans-serif" font-size="12" font-style="italic" lengthAdjust="spacing" textLength="77" x="808.75" y="519.6387">«Document»</text><text fill="#888888" font-family="sans-serif" font-size="10" lengthAdjust="spacing" textLength="28" x="833.25" y="531.751">Class</text><line style="stroke:#181818;stroke-width:0.5;" x1="717" x2="945" y1="539.1094" y2="539.1094"/><ellipse cx="727" cy="552.7578" fill="#000000" rx="3" ry="3" style="stroke:#000000;stroke-width:1.0;"/><text fill="#000000" font-family="sans-serif" font-size="14" lengthAdjust="spacing" textLength="103" x="736" y="556.1045">id : String «id»</text><ellipse cx="727" cy="569.0547" fill="#000000" rx="3" ry="3" style="stroke:#000000;stroke-width:1.0;"/><text fill="#000000" font-family="sans-serif" font-size="14" lengthAdjust="spacing" textLength="135" x="736" y="572.4014">shortname : String</text><ellipse cx="727" cy="585.3516" fill="#000000" rx="3" ry="3" style="stroke:#000000;stroke-width:1.0;"/><text fill="#000000" font-family="sans-serif" font-size="14" lengthAdjust="spacing" textLength="87" x="736" y="588.6982">term : Term</text><ellipse cx="727" cy="601.6484" fill="#000000" rx="3" ry="3" style="stroke:#000000;stroke-width:1.0;"/><text fill="#000000" font-family="sans-serif" font-size="14" lengthAdjust="spacing" textLength="145" x="736" y="604.9951">department : String</text><ellipse cx="727" cy="617.9453" fill="#000000" rx="3" ry="3" style="stroke:#000000;stroke-width:1.0;"/><text fill="#000000" font-family="sans-serif" font-size="14" lengthAdjust="spacing" textLength="175" x="736" y="621.292">educationLevel : Integer</text><ellipse cx="727" cy="634.2422" fill="#000000" rx="3" ry="3" style="stroke:#000000;stroke-width:1.0;"/><text fill="#000000" font-family="sans-serif" font-size="14" lengthAdjust="spacing" textLength="99" x="736" y="637.5889">letter : String</text><ellipse cx="727" cy="650.5391" fill="#000000" rx="3" ry="3" style="stroke:#000000;stroke-width:1.0;"/><text fill="#000000" font-family="sans-serif" font-size="14" lengthAdjust="spacing" textLength="204" x="736" y="653.8857">classTeacher : TeacherName</text><text fill="#000000" font-family="sans-serif" font-size="14" lengthAdjust="spacing" textLength="175" x="736" y="670.1826">roomShortname : String</text></g><!--MD5=[4ec975f1641a34b3290014bf4027a644]
class Exam--><g id="elem_Exam"><rect codeLine="22" fill="#FFFFFF" height="206.5781" id="Exam" rx="2.5" ry="2.5" style="stroke:#181818;stroke-width:0.5;" width="230" x="7" y="531"/><rect fill="none" height="35.6094" rx="2.5" ry="2.5" style="stroke:none;stroke-width:0.5;" width="230" x="7" y="531"/><rect fill="none" height="2.5" style="stroke:none;stroke-width:0.5;" width="230" x="7" y="564.1094"/><rect codeLine="22" fill="none" height="206.5781" id="Exam" rx="2.5" ry="2.5" style="stroke:#181818;stroke-width:0.5;" width="230" x="7" y="531"/><ellipse cx="81.25" cy="548.8047" fill="#FF7700" rx="11" ry="11" style="stroke:#181818;stroke-width:1.0;"/><path d="M80.0469,549.6797 L81.5,549.6797 L81.5,549.7891 C81.5,550.1953 81.5313,550.3516 81.6094,550.5078 C81.7656,550.7578 82.0469,550.9141 82.3438,550.9141 C82.5938,550.9141 82.8594,550.7734 83.0156,550.5547 C83.1406,550.3984 83.1719,550.2422 83.1719,549.7891 L83.1719,547.8672 C83.1719,547.7109 83.1719,547.6641 83.1563,547.5078 C83.0938,547.0391 82.7813,546.7266 82.3281,546.7266 C82.0781,546.7266 81.8125,546.8672 81.6406,547.0859 C81.5313,547.2578 81.5,547.4141 81.5,547.8672 L81.5,547.9922 L80.0469,547.9922 L80.0469,545.5859 L84.0313,545.5859 L84.0313,546.4453 C84.0313,546.8516 84.0625,547.0234 84.1406,547.1797 C84.3125,547.4297 84.5938,547.5859 84.875,547.5859 C85.1406,547.5859 85.4063,547.4453 85.5781,547.2266 C85.6875,547.0547 85.7188,546.9141 85.7188,546.4453 L85.7188,543.8984 L78.0938,543.8984 C77.6563,543.8984 77.5313,543.9141 77.375,544.0078 C77.125,544.1641 76.9688,544.4609 76.9688,544.7422 C76.9688,545.0234 77.1094,545.2734 77.3281,545.4453 C77.4844,545.5547 77.6719,545.5859 78.0938,545.5859 L78.3438,545.5859 L78.3438,552.1016 L78.0938,552.1016 C77.6875,552.1016 77.5313,552.1172 77.375,552.2266 C77.125,552.3984 76.9688,552.6641 76.9688,552.9609 C76.9688,553.2266 77.1094,553.4766 77.3281,553.6328 C77.4688,553.7578 77.7031,553.8047 78.0938,553.8047 L86.0938,553.8047 L86.0938,551.2266 C86.0938,550.7891 86.0625,550.6484 85.9844,550.4922 C85.8125,550.2422 85.5313,550.0859 85.25,550.0859 C84.9844,550.0859 84.7188,550.1953 84.5469,550.4453 C84.4375,550.6016 84.4063,550.7422 84.4063,551.2266 L84.4063,552.1016 L80.0469,552.1016 L80.0469,549.6797 Z " fill="#000000"/><text fill="#000000" font-family="sans-serif" font-size="12" font-style="italic" lengthAdjust="spacing" textLength="77" x="99.75" y="547.1387">«Document»</text><text fill="#888888" font-family="sans-serif" font-size="10" lengthAdjust="spacing" textLength="30" x="123.25" y="559.251">Exam</text><line style="stroke:#181818;stroke-width:0.5;" x1="8" x2="236" y1="566.6094" y2="566.6094"/><ellipse cx="18" cy="580.2578" fill="#000000" rx="3" ry="3" style="stroke:#000000;stroke-width:1.0;"/><text fill="#000000" font-family="sans-serif" font-size="14" lengthAdjust="spacing" textLength="204" x="27" y="583.6045">id : ObjectId «id, generated»</text><ellipse cx="18" cy="596.5547" fill="#000000" rx="3" ry="3" style="stroke:#000000;stroke-width:1.0;"/><text fill="#000000" font-family="sans-serif" font-size="14" lengthAdjust="spacing" textLength="168" x="27" y="599.9014">student : StudentName</text><ellipse cx="18" cy="612.8516" fill="#000000" rx="3" ry="3" style="stroke:#000000;stroke-width:1.0;"/><text fill="#000000" font-family="sans-serif" font-size="14" lengthAdjust="spacing" textLength="168" x="27" y="616.1982">teacher : TeacherName</text><ellipse cx="18" cy="629.1484" fill="#000000" rx="3" ry="3" style="stroke:#000000;stroke-width:1.0;"/><text fill="#000000" font-family="sans-serif" font-size="14" lengthAdjust="spacing" textLength="138" x="27" y="632.4951">currentClass : Class</text><ellipse cx="18" cy="645.4453" fill="#000000" rx="3" ry="3" style="stroke:#000000;stroke-width:1.0;"/><text fill="#000000" font-family="sans-serif" font-size="14" lengthAdjust="spacing" textLength="124" x="27" y="648.792">examClass : Class</text><ellipse cx="18" cy="661.7422" fill="#000000" rx="3" ry="3" style="stroke:#000000;stroke-width:1.0;"/><text fill="#000000" font-family="sans-serif" font-size="14" lengthAdjust="spacing" textLength="121" x="27" y="665.0889">subject : Subject</text><ellipse cx="18" cy="678.0391" fill="#000000" rx="3" ry="3" style="stroke:#000000;stroke-width:1.0;"/><text fill="#000000" font-family="sans-serif" font-size="14" lengthAdjust="spacing" textLength="153" x="27" y="681.3857">dateTime : DateTime</text><ellipse cx="18" cy="694.3359" fill="#000000" rx="3" ry="3" style="stroke:#000000;stroke-width:1.0;"/><text fill="#000000" font-family="sans-serif" font-size="14" lengthAdjust="spacing" textLength="140" x="27" y="697.6826">pointsMax : Integer</text><ellipse cx="18" cy="710.6328" fill="#000000" rx="3" ry="3" style="stroke:#000000;stroke-width:1.0;"/><text fill="#000000" font-family="sans-serif" font-size="14" lengthAdjust="spacing" textLength="112" x="27" y="713.9795">points : Integer</text><ellipse cx="18" cy="726.9297" fill="#000000" rx="3" ry="3" style="stroke:#000000;stroke-width:1.0;"/><text fill="#000000" font-family="sans-serif" font-size="14" lengthAdjust="spacing" textLength="107" x="27" y="730.2764">grade : Integer</text></g><!--MD5=[a4ea2dcb44ebd57046df9af95d8b8c12]
class Gender--><g id="elem_Gender"><rect codeLine="35" fill="#F1F1F1" height="88.8906" id="Gender" rx="2.5" ry="2.5" style="stroke:#181818;stroke-width:0.5;" width="85" x="424.5" y="325"/><ellipse cx="439.5" cy="341" fill="#EB937F" rx="11" ry="11" style="stroke:#181818;stroke-width:1.0;"/><path d="M438.2969,341.875 L439.75,341.875 L439.75,341.9844 C439.75,342.3906 439.7813,342.5469 439.8594,342.7031 C440.0156,342.9531 440.2969,343.1094 440.5938,343.1094 C440.8438,343.1094 441.1094,342.9688 441.2656,342.75 C441.3906,342.5938 441.4219,342.4375 441.4219,341.9844 L441.4219,340.0625 C441.4219,339.9063 441.4219,339.8594 441.4063,339.7031 C441.3438,339.2344 441.0313,338.9219 440.5781,338.9219 C440.3281,338.9219 440.0625,339.0625 439.8906,339.2813 C439.7813,339.4531 439.75,339.6094 439.75,340.0625 L439.75,340.1875 L438.2969,340.1875 L438.2969,337.7813 L442.2813,337.7813 L442.2813,338.6406 C442.2813,339.0469 442.3125,339.2188 442.3906,339.375 C442.5625,339.625 442.8438,339.7813 443.125,339.7813 C443.3906,339.7813 443.6563,339.6406 443.8281,339.4219 C443.9375,339.25 443.9688,339.1094 443.9688,338.6406 L443.9688,336.0938 L436.3438,336.0938 C435.9063,336.0938 435.7813,336.1094 435.625,336.2031 C435.375,336.3594 435.2188,336.6563 435.2188,336.9375 C435.2188,337.2188 435.3594,337.4688 435.5781,337.6406 C435.7344,337.75 435.9219,337.7813 436.3438,337.7813 L436.5938,337.7813 L436.5938,344.2969 L436.3438,344.2969 C435.9375,344.2969 435.7813,344.3125 435.625,344.4219 C435.375,344.5938 435.2188,344.8594 435.2188,345.1563 C435.2188,345.4219 435.3594,345.6719 435.5781,345.8281 C435.7188,345.9531 435.9531,346 436.3438,346 L444.3438,346 L444.3438,343.4219 C444.3438,342.9844 444.3125,342.8438 444.2344,342.6875 C444.0625,342.4375 443.7813,342.2813 443.5,342.2813 C443.2344,342.2813 442.9688,342.3906 442.7969,342.6406 C442.6875,342.7969 442.6563,342.9375 442.6563,343.4219 L442.6563,344.2969 L438.2969,344.2969 L438.2969,341.875 Z " fill="#000000"/><text fill="#000000" font-family="sans-serif" font-size="14" lengthAdjust="spacing" textLength="53" x="453.5" y="345.8467">Gender</text><line style="stroke:#181818;stroke-width:0.5;" x1="425.5" x2="508.5" y1="357" y2="357"/><text fill="#000000" font-family="sans-serif" font-size="14" lengthAdjust="spacing" textLength="52" x="430.5" y="373.9951">Female</text><text fill="#000000" font-family="sans-serif" font-size="14" lengthAdjust="spacing" textLength="33" x="430.5" y="390.292">Male</text><text fill="#000000" font-family="sans-serif" font-size="14" lengthAdjust="spacing" textLength="42" x="430.5" y="406.5889">Other</text></g><!--MD5=[d218c48b946d362ff1ecd879cabebcad]
class Room--><g id="elem_Room"><rect codeLine="41" fill="#FFFFFF" height="76.2031" id="Room" rx="2.5" ry="2.5" style="stroke:#181818;stroke-width:0.5;" width="194" x="25" y="64.5"/><rect fill="none" height="35.6094" rx="2.5" ry="2.5" style="stroke:none;stroke-width:0.5;" width="194" x="25" y="64.5"/><rect fill="none" height="2.5" style="stroke:none;stroke-width:0.5;" width="194" x="25" y="97.6094"/><rect codeLine="41" fill="none" height="76.2031" id="Room" rx="2.5" ry="2.5" style="stroke:#181818;stroke-width:0.5;" width="194" x="25" y="64.5"/><ellipse cx="81.25" cy="82.3047" fill="#FF7700" rx="11" ry="11" style="stroke:#181818;stroke-width:1.0;"/><path d="M80.0469,83.1797 L81.5,83.1797 L81.5,83.2891 C81.5,83.6953 81.5313,83.8516 81.6094,84.0078 C81.7656,84.2578 82.0469,84.4141 82.3438,84.4141 C82.5938,84.4141 82.8594,84.2734 83.0156,84.0547 C83.1406,83.8984 83.1719,83.7422 83.1719,83.2891 L83.1719,81.3672 C83.1719,81.2109 83.1719,81.1641 83.1563,81.0078 C83.0938,80.5391 82.7813,80.2266 82.3281,80.2266 C82.0781,80.2266 81.8125,80.3672 81.6406,80.5859 C81.5313,80.7578 81.5,80.9141 81.5,81.3672 L81.5,81.4922 L80.0469,81.4922 L80.0469,79.0859 L84.0313,79.0859 L84.0313,79.9453 C84.0313,80.3516 84.0625,80.5234 84.1406,80.6797 C84.3125,80.9297 84.5938,81.0859 84.875,81.0859 C85.1406,81.0859 85.4063,80.9453 85.5781,80.7266 C85.6875,80.5547 85.7188,80.4141 85.7188,79.9453 L85.7188,77.3984 L78.0938,77.3984 C77.6563,77.3984 77.5313,77.4141 77.375,77.5078 C77.125,77.6641 76.9688,77.9609 76.9688,78.2422 C76.9688,78.5234 77.1094,78.7734 77.3281,78.9453 C77.4844,79.0547 77.6719,79.0859 78.0938,79.0859 L78.3438,79.0859 L78.3438,85.6016 L78.0938,85.6016 C77.6875,85.6016 77.5313,85.6172 77.375,85.7266 C77.125,85.8984 76.9688,86.1641 76.9688,86.4609 C76.9688,86.7266 77.1094,86.9766 77.3281,87.1328 C77.4688,87.2578 77.7031,87.3047 78.0938,87.3047 L86.0938,87.3047 L86.0938,84.7266 C86.0938,84.2891 86.0625,84.1484 85.9844,83.9922 C85.8125,83.7422 85.5313,83.5859 85.25,83.5859 C84.9844,83.5859 84.7188,83.6953 84.5469,83.9453 C84.4375,84.1016 84.4063,84.2422 84.4063,84.7266 L84.4063,85.6016 L80.0469,85.6016 L80.0469,83.1797 Z " fill="#000000"/><text fill="#000000" font-family="sans-serif" font-size="12" font-style="italic" lengthAdjust="spacing" textLength="77" x="99.75" y="80.6387">«Document»</text><text fill="#888888" font-family="sans-serif" font-size="10" lengthAdjust="spacing" textLength="32" x="122.25" y="92.751">Room</text><line style="stroke:#181818;stroke-width:0.5;" x1="26" x2="218" y1="100.1094" y2="100.1094"/><ellipse cx="36" cy="113.7578" fill="#000000" rx="3" ry="3" style="stroke:#000000;stroke-width:1.0;"/><text fill="#000000" font-family="sans-serif" font-size="14" lengthAdjust="spacing" textLength="168" x="45" y="117.1045">shortname : String «id»</text><text fill="#000000" font-family="sans-serif" font-size="14" lengthAdjust="spacing" textLength="127" x="45" y="133.4014">capacity : Integer</text></g><!--MD5=[d6181cb537bdc20c0a3007a98a56832d]
class Student--><g id="elem_Student"><rect codeLine="46" fill="#FFFFFF" height="157.6875" id="Student" rx="2.5" ry="2.5" style="stroke:#181818;stroke-width:0.5;" width="208" x="18" y="175.5"/><rect fill="none" height="35.6094" rx="2.5" ry="2.5" style="stroke:none;stroke-width:0.5;" width="208" x="18" y="175.5"/><rect fill="none" height="2.5" style="stroke:none;stroke-width:0.5;" width="208" x="18" y="208.6094"/><rect codeLine="46" fill="none" height="157.6875" id="Student" rx="2.5" ry="2.5" style="stroke:#181818;stroke-width:0.5;" width="208" x="18" y="175.5"/><ellipse cx="81.25" cy="193.3047" fill="#FF7700" rx="11" ry="11" style="stroke:#181818;stroke-width:1.0;"/><path d="M80.0469,194.1797 L81.5,194.1797 L81.5,194.2891 C81.5,194.6953 81.5313,194.8516 81.6094,195.0078 C81.7656,195.2578 82.0469,195.4141 82.3438,195.4141 C82.5938,195.4141 82.8594,195.2734 83.0156,195.0547 C83.1406,194.8984 83.1719,194.7422 83.1719,194.2891 L83.1719,192.3672 C83.1719,192.2109 83.1719,192.1641 83.1563,192.0078 C83.0938,191.5391 82.7813,191.2266 82.3281,191.2266 C82.0781,191.2266 81.8125,191.3672 81.6406,191.5859 C81.5313,191.7578 81.5,191.9141 81.5,192.3672 L81.5,192.4922 L80.0469,192.4922 L80.0469,190.0859 L84.0313,190.0859 L84.0313,190.9453 C84.0313,191.3516 84.0625,191.5234 84.1406,191.6797 C84.3125,191.9297 84.5938,192.0859 84.875,192.0859 C85.1406,192.0859 85.4063,191.9453 85.5781,191.7266 C85.6875,191.5547 85.7188,191.4141 85.7188,190.9453 L85.7188,188.3984 L78.0938,188.3984 C77.6563,188.3984 77.5313,188.4141 77.375,188.5078 C77.125,188.6641 76.9688,188.9609 76.9688,189.2422 C76.9688,189.5234 77.1094,189.7734 77.3281,189.9453 C77.4844,190.0547 77.6719,190.0859 78.0938,190.0859 L78.3438,190.0859 L78.3438,196.6016 L78.0938,196.6016 C77.6875,196.6016 77.5313,196.6172 77.375,196.7266 C77.125,196.8984 76.9688,197.1641 76.9688,197.4609 C76.9688,197.7266 77.1094,197.9766 77.3281,198.1328 C77.4688,198.2578 77.7031,198.3047 78.0938,198.3047 L86.0938,198.3047 L86.0938,195.7266 C86.0938,195.2891 86.0625,195.1484 85.9844,194.9922 C85.8125,194.7422 85.5313,194.5859 85.25,194.5859 C84.9844,194.5859 84.7188,194.6953 84.5469,194.9453 C84.4375,195.1016 84.4063,195.2422 84.4063,195.7266 L84.4063,196.6016 L80.0469,196.6016 L80.0469,194.1797 Z " fill="#000000"/><text fill="#000000" font-family="sans-serif" font-size="12" font-style="italic" lengthAdjust="spacing" textLength="77" x="99.75" y="191.6387">«Document»</text><text fill="#888888" font-family="sans-serif" font-size="10" lengthAdjust="spacing" textLength="43" x="116.75" y="203.751">Student</text><line style="stroke:#181818;stroke-width:0.5;" x1="19" x2="225" y1="211.1094" y2="211.1094"/><ellipse cx="29" cy="224.7578" fill="#000000" rx="3" ry="3" style="stroke:#000000;stroke-width:1.0;"/><text fill="#000000" font-family="sans-serif" font-size="14" lengthAdjust="spacing" textLength="112" x="38" y="228.1045">id : Integer «id»</text><ellipse cx="29" cy="241.0547" fill="#000000" rx="3" ry="3" style="stroke:#000000;stroke-width:1.0;"/><text fill="#000000" font-family="sans-serif" font-size="14" lengthAdjust="spacing" textLength="152" x="38" y="244.4014">name : StudentName</text><text fill="#000000" font-family="sans-serif" font-size="14" lengthAdjust="spacing" textLength="138" x="38" y="260.6982">currentClass : Class</text><ellipse cx="29" cy="273.6484" fill="#000000" rx="3" ry="3" style="stroke:#000000;stroke-width:1.0;"/><text fill="#000000" font-family="sans-serif" font-size="14" lengthAdjust="spacing" textLength="117" x="38" y="276.9951">gender : Gender</text><ellipse cx="29" cy="289.9453" fill="#000000" rx="3" ry="3" style="stroke:#000000;stroke-width:1.0;"/><text fill="#000000" font-family="sans-serif" font-size="14" lengthAdjust="spacing" textLength="125" x="38" y="293.292">address : Address</text><ellipse cx="29" cy="306.2422" fill="#000000" rx="3" ry="3" style="stroke:#000000;stroke-width:1.0;"/><text fill="#000000" font-family="sans-serif" font-size="14" lengthAdjust="spacing" textLength="166" x="38" y="309.5889">dateOfBirth : DateOnly</text><ellipse cx="29" cy="322.5391" fill="#000000" rx="3" ry="3" style="stroke:#000000;stroke-width:1.0;"/><text fill="#000000" font-family="sans-serif" font-size="14" lengthAdjust="spacing" textLength="182" x="38" y="325.8857">classHistory : List&lt;Class&gt;</text></g><!--MD5=[22044a04dd7408159797097a0b6602f9]
class StudentName--><g id="elem_StudentName"><rect codeLine="56" fill="#F1F1F1" height="88.8906" id="StudentName" rx="2.5" ry="2.5" style="stroke:#181818;stroke-width:0.5;" width="208" x="363" y="449"/><ellipse cx="378" cy="465" fill="#ADD1B2" rx="11" ry="11" style="stroke:#181818;stroke-width:1.0;"/><path d="M380.3438,460.6719 C379.4063,460.2344 378.8125,460.0938 377.9375,460.0938 C375.3125,460.0938 373.3125,462.1719 373.3125,464.8906 L373.3125,466.0156 C373.3125,468.5938 375.4219,470.4844 378.3125,470.4844 C379.5313,470.4844 380.6875,470.1875 381.4375,469.6406 C382.0156,469.2344 382.3438,468.7813 382.3438,468.3906 C382.3438,467.9375 381.9531,467.5469 381.4844,467.5469 C381.2656,467.5469 381.0625,467.625 380.875,467.8125 C380.4219,468.2969 380.4219,468.2969 380.2344,468.3906 C379.8125,468.6563 379.125,468.7813 378.3594,468.7813 C376.3125,468.7813 375.0156,467.6875 375.0156,465.9844 L375.0156,464.8906 C375.0156,463.1094 376.2656,461.7969 378,461.7969 C378.5781,461.7969 379.1875,461.9531 379.6563,462.2031 C380.1406,462.4844 380.3125,462.7031 380.4063,463.1094 C380.4688,463.5156 380.5,463.6406 380.6406,463.7656 C380.7813,463.9063 381.0156,464.0156 381.2344,464.0156 C381.5,464.0156 381.7656,463.875 381.9375,463.6563 C382.0469,463.5 382.0781,463.3125 382.0781,462.8906 L382.0781,461.4688 C382.0781,461.0313 382.0625,460.9063 381.9688,460.75 C381.8125,460.4844 381.5313,460.3438 381.2344,460.3438 C380.9375,460.3438 380.7344,460.4375 380.5156,460.75 L380.3438,460.6719 Z " fill="#000000"/><text fill="#000000" font-family="sans-serif" font-size="14" lengthAdjust="spacing" textLength="99" x="392" y="469.8467">StudentName</text><rect fill="#FFFFFF" height="15.9688" style="stroke:#181818;stroke-width:1.0;stroke-dasharray:2.0,2.0;" width="75" x="499" y="446"/><text fill="#000000" font-family="sans-serif" font-size="12" font-style="italic" lengthAdjust="spacing" textLength="73" x="500" y="458.1387">value object</text><line style="stroke:#181818;stroke-width:0.5;" x1="364" x2="570" y1="481" y2="481"/><ellipse cx="374" cy="494.6484" fill="#000000" rx="3" ry="3" style="stroke:#000000;stroke-width:1.0;"/><text fill="#000000" font-family="sans-serif" font-size="14" lengthAdjust="spacing" textLength="81" x="383" y="497.9951">nr : Integer</text><ellipse cx="374" cy="510.9453" fill="#000000" rx="3" ry="3" style="stroke:#000000;stroke-width:1.0;"/><text fill="#000000" font-family="sans-serif" font-size="14" lengthAdjust="spacing" textLength="127" x="383" y="514.292">firstname : String</text><ellipse cx="374" cy="527.2422" fill="#000000" rx="3" ry="3" style="stroke:#000000;stroke-width:1.0;"/><text fill="#000000" font-family="sans-serif" font-size="14" lengthAdjust="spacing" textLength="123" x="383" y="530.5889">lastname : String</text></g><!--MD5=[d0da0a299942266ebd64acf2b2e95fa4]
class Subject--><g id="elem_Subject"><rect codeLine="62" fill="#FFFFFF" height="76.2031" id="Subject" rx="2.5" ry="2.5" style="stroke:#181818;stroke-width:0.5;" width="194" x="1165" y="844.5"/><rect fill="none" height="35.6094" rx="2.5" ry="2.5" style="stroke:none;stroke-width:0.5;" width="194" x="1165" y="844.5"/><rect fill="none" height="2.5" style="stroke:none;stroke-width:0.5;" width="194" x="1165" y="877.6094"/><rect codeLine="62" fill="none" height="76.2031" id="Subject" rx="2.5" ry="2.5" style="stroke:#181818;stroke-width:0.5;" width="194" x="1165" y="844.5"/><ellipse cx="1221.25" cy="862.3047" fill="#FF7700" rx="11" ry="11" style="stroke:#181818;stroke-width:1.0;"/><path d="M1220.0469,863.1797 L1221.5,863.1797 L1221.5,863.2891 C1221.5,863.6953 1221.5313,863.8516 1221.6094,864.0078 C1221.7656,864.2578 1222.0469,864.4141 1222.3438,864.4141 C1222.5938,864.4141 1222.8594,864.2734 1223.0156,864.0547 C1223.1406,863.8984 1223.1719,863.7422 1223.1719,863.2891 L1223.1719,861.3672 C1223.1719,861.2109 1223.1719,861.1641 1223.1563,861.0078 C1223.0938,860.5391 1222.7813,860.2266 1222.3281,860.2266 C1222.0781,860.2266 1221.8125,860.3672 1221.6406,860.5859 C1221.5313,860.7578 1221.5,860.9141 1221.5,861.3672 L1221.5,861.4922 L1220.0469,861.4922 L1220.0469,859.0859 L1224.0313,859.0859 L1224.0313,859.9453 C1224.0313,860.3516 1224.0625,860.5234 1224.1406,860.6797 C1224.3125,860.9297 1224.5938,861.0859 1224.875,861.0859 C1225.1406,861.0859 1225.4063,860.9453 1225.5781,860.7266 C1225.6875,860.5547 1225.7188,860.4141 1225.7188,859.9453 L1225.7188,857.3984 L1218.0938,857.3984 C1217.6563,857.3984 1217.5313,857.4141 1217.375,857.5078 C1217.125,857.6641 1216.9688,857.9609 1216.9688,858.2422 C1216.9688,858.5234 1217.1094,858.7734 1217.3281,858.9453 C1217.4844,859.0547 1217.6719,859.0859 1218.0938,859.0859 L1218.3438,859.0859 L1218.3438,865.6016 L1218.0938,865.6016 C1217.6875,865.6016 1217.5313,865.6172 1217.375,865.7266 C1217.125,865.8984 1216.9688,866.1641 1216.9688,866.4609 C1216.9688,866.7266 1217.1094,866.9766 1217.3281,867.1328 C1217.4688,867.2578 1217.7031,867.3047 1218.0938,867.3047 L1226.0938,867.3047 L1226.0938,864.7266 C1226.0938,864.2891 1226.0625,864.1484 1225.9844,863.9922 C1225.8125,863.7422 1225.5313,863.5859 1225.25,863.5859 C1224.9844,863.5859 1224.7188,863.6953 1224.5469,863.9453 C1224.4375,864.1016 1224.4063,864.2422 1224.4063,864.7266 L1224.4063,865.6016 L1220.0469,865.6016 L1220.0469,863.1797 Z " fill="#000000"/><text fill="#000000" font-family="sans-serif" font-size="12" font-style="italic" lengthAdjust="spacing" textLength="77" x="1239.75" y="860.6387">«Document»</text><text fill="#888888" font-family="sans-serif" font-size="10" lengthAdjust="spacing" textLength="41" x="1257.75" y="872.751">Subject</text><line style="stroke:#181818;stroke-width:0.5;" x1="1166" x2="1358" y1="880.1094" y2="880.1094"/><ellipse cx="1176" cy="893.7578" fill="#000000" rx="3" ry="3" style="stroke:#000000;stroke-width:1.0;"/><text fill="#000000" font-family="sans-serif" font-size="14" lengthAdjust="spacing" textLength="168" x="1185" y="897.1045">shortname : String «id»</text><ellipse cx="1176" cy="910.0547" fill="#000000" rx="3" ry="3" style="stroke:#000000;stroke-width:1.0;"/><text fill="#000000" font-family="sans-serif" font-size="14" lengthAdjust="spacing" textLength="128" x="1185" y="913.4014">longname : String</text></g><!--MD5=[61a83f88cb8b7d3a80bc8c481f3736bf]
class Teacher--><g id="elem_Teacher"><rect codeLine="67" fill="#FFFFFF" height="125.0938" id="Teacher" rx="2.5" ry="2.5" style="stroke:#181818;stroke-width:0.5;" width="272" x="695" y="820"/><rect fill="none" height="35.6094" rx="2.5" ry="2.5" style="stroke:none;stroke-width:0.5;" width="272" x="695" y="820"/><rect fill="none" height="2.5" style="stroke:none;stroke-width:0.5;" width="272" x="695" y="853.1094"/><rect codeLine="67" fill="none" height="125.0938" id="Teacher" rx="2.5" ry="2.5" style="stroke:#181818;stroke-width:0.5;" width="272" x="695" y="820"/><ellipse cx="790.25" cy="837.8047" fill="#FF7700" rx="11" ry="11" style="stroke:#181818;stroke-width:1.0;"/><path d="M789.0469,838.6797 L790.5,838.6797 L790.5,838.7891 C790.5,839.1953 790.5313,839.3516 790.6094,839.5078 C790.7656,839.7578 791.0469,839.9141 791.3438,839.9141 C791.5938,839.9141 791.8594,839.7734 792.0156,839.5547 C792.1406,839.3984 792.1719,839.2422 792.1719,838.7891 L792.1719,836.8672 C792.1719,836.7109 792.1719,836.6641 792.1563,836.5078 C792.0938,836.0391 791.7813,835.7266 791.3281,835.7266 C791.0781,835.7266 790.8125,835.8672 790.6406,836.0859 C790.5313,836.2578 790.5,836.4141 790.5,836.8672 L790.5,836.9922 L789.0469,836.9922 L789.0469,834.5859 L793.0313,834.5859 L793.0313,835.4453 C793.0313,835.8516 793.0625,836.0234 793.1406,836.1797 C793.3125,836.4297 793.5938,836.5859 793.875,836.5859 C794.1406,836.5859 794.4063,836.4453 794.5781,836.2266 C794.6875,836.0547 794.7188,835.9141 794.7188,835.4453 L794.7188,832.8984 L787.0938,832.8984 C786.6563,832.8984 786.5313,832.9141 786.375,833.0078 C786.125,833.1641 785.9688,833.4609 785.9688,833.7422 C785.9688,834.0234 786.1094,834.2734 786.3281,834.4453 C786.4844,834.5547 786.6719,834.5859 787.0938,834.5859 L787.3438,834.5859 L787.3438,841.1016 L787.0938,841.1016 C786.6875,841.1016 786.5313,841.1172 786.375,841.2266 C786.125,841.3984 785.9688,841.6641 785.9688,841.9609 C785.9688,842.2266 786.1094,842.4766 786.3281,842.6328 C786.4688,842.7578 786.7031,842.8047 787.0938,842.8047 L795.0938,842.8047 L795.0938,840.2266 C795.0938,839.7891 795.0625,839.6484 794.9844,839.4922 C794.8125,839.2422 794.5313,839.0859 794.25,839.0859 C793.9844,839.0859 793.7188,839.1953 793.5469,839.4453 C793.4375,839.6016 793.4063,839.7422 793.4063,840.2266 L793.4063,841.1016 L789.0469,841.1016 L789.0469,838.6797 Z " fill="#000000"/><text fill="#000000" font-family="sans-serif" font-size="12" font-style="italic" lengthAdjust="spacing" textLength="77" x="808.75" y="836.1387">«Document»</text><text fill="#888888" font-family="sans-serif" font-size="10" lengthAdjust="spacing" textLength="45" x="824.75" y="848.251">Teacher</text><line style="stroke:#181818;stroke-width:0.5;" x1="696" x2="966" y1="855.6094" y2="855.6094"/><ellipse cx="706" cy="869.2578" fill="#000000" rx="3" ry="3" style="stroke:#000000;stroke-width:1.0;"/><text fill="#000000" font-family="sans-serif" font-size="14" lengthAdjust="spacing" textLength="103" x="715" y="872.6045">id : String «id»</text><ellipse cx="706" cy="885.5547" fill="#000000" rx="3" ry="3" style="stroke:#000000;stroke-width:1.0;"/><text fill="#000000" font-family="sans-serif" font-size="14" lengthAdjust="spacing" textLength="152" x="715" y="888.9014">name : TeacherName</text><text fill="#000000" font-family="sans-serif" font-size="14" lengthAdjust="spacing" textLength="112" x="715" y="905.1982">salary : Decimal</text><ellipse cx="706" cy="918.1484" fill="#000000" rx="3" ry="3" style="stroke:#000000;stroke-width:1.0;"/><text fill="#000000" font-family="sans-serif" font-size="14" lengthAdjust="spacing" textLength="224" x="715" y="921.4951">homeOfficeDays : List&lt;String&gt;</text><ellipse cx="706" cy="934.4453" fill="#000000" rx="3" ry="3" style="stroke:#000000;stroke-width:1.0;"/><text fill="#000000" font-family="sans-serif" font-size="14" lengthAdjust="spacing" textLength="246" x="715" y="937.792">canTeachSubjects : List&lt;Subject&gt;</text></g><!--MD5=[8eff04f78ce0710c24f77e98bfb4599e]
class TeacherName--><g id="elem_TeacherName"><rect codeLine="75" fill="#F1F1F1" height="88.8906" id="TeacherName" rx="2.5" ry="2.5" style="stroke:#181818;stroke-width:0.5;" width="208" x="1158" y="720"/><ellipse cx="1173" cy="736" fill="#ADD1B2" rx="11" ry="11" style="stroke:#181818;stroke-width:1.0;"/><path d="M1175.3438,731.6719 C1174.4063,731.2344 1173.8125,731.0938 1172.9375,731.0938 C1170.3125,731.0938 1168.3125,733.1719 1168.3125,735.8906 L1168.3125,737.0156 C1168.3125,739.5938 1170.4219,741.4844 1173.3125,741.4844 C1174.5313,741.4844 1175.6875,741.1875 1176.4375,740.6406 C1177.0156,740.2344 1177.3438,739.7813 1177.3438,739.3906 C1177.3438,738.9375 1176.9531,738.5469 1176.4844,738.5469 C1176.2656,738.5469 1176.0625,738.625 1175.875,738.8125 C1175.4219,739.2969 1175.4219,739.2969 1175.2344,739.3906 C1174.8125,739.6563 1174.125,739.7813 1173.3594,739.7813 C1171.3125,739.7813 1170.0156,738.6875 1170.0156,736.9844 L1170.0156,735.8906 C1170.0156,734.1094 1171.2656,732.7969 1173,732.7969 C1173.5781,732.7969 1174.1875,732.9531 1174.6563,733.2031 C1175.1406,733.4844 1175.3125,733.7031 1175.4063,734.1094 C1175.4688,734.5156 1175.5,734.6406 1175.6406,734.7656 C1175.7813,734.9063 1176.0156,735.0156 1176.2344,735.0156 C1176.5,735.0156 1176.7656,734.875 1176.9375,734.6563 C1177.0469,734.5 1177.0781,734.3125 1177.0781,733.8906 L1177.0781,732.4688 C1177.0781,732.0313 1177.0625,731.9063 1176.9688,731.75 C1176.8125,731.4844 1176.5313,731.3438 1176.2344,731.3438 C1175.9375,731.3438 1175.7344,731.4375 1175.5156,731.75 L1175.3438,731.6719 Z " fill="#000000"/><text fill="#000000" font-family="sans-serif" font-size="14" lengthAdjust="spacing" textLength="99" x="1187" y="740.8467">TeacherName</text><rect fill="#FFFFFF" height="15.9688" style="stroke:#181818;stroke-width:1.0;stroke-dasharray:2.0,2.0;" width="75" x="1294" y="717"/><text fill="#000000" font-family="sans-serif" font-size="12" font-style="italic" lengthAdjust="spacing" textLength="73" x="1295" y="729.1387">value object</text><line style="stroke:#181818;stroke-width:0.5;" x1="1159" x2="1365" y1="752" y2="752"/><ellipse cx="1169" cy="765.6484" fill="#000000" rx="3" ry="3" style="stroke:#000000;stroke-width:1.0;"/><text fill="#000000" font-family="sans-serif" font-size="14" lengthAdjust="spacing" textLength="135" x="1178" y="768.9951">shortname : String</text><ellipse cx="1169" cy="781.9453" fill="#000000" rx="3" ry="3" style="stroke:#000000;stroke-width:1.0;"/><text fill="#000000" font-family="sans-serif" font-size="14" lengthAdjust="spacing" textLength="127" x="1178" y="785.292">firstname : String</text><ellipse cx="1169" cy="798.2422" fill="#000000" rx="3" ry="3" style="stroke:#000000;stroke-width:1.0;"/><text fill="#000000" font-family="sans-serif" font-size="14" lengthAdjust="spacing" textLength="123" x="1178" y="801.5889">lastname : String</text></g><!--MD5=[9d35236b92952560f647498cf8a29acb]
class Term--><g id="elem_Term"><rect codeLine="81" fill="#FFFFFF" height="125.0938" id="Term" rx="2.5" ry="2.5" style="stroke:#181818;stroke-width:0.5;" width="185" x="1169.5" y="528"/><rect fill="none" height="35.6094" rx="2.5" ry="2.5" style="stroke:none;stroke-width:0.5;" width="185" x="1169.5" y="528"/><rect fill="none" height="2.5" style="stroke:none;stroke-width:0.5;" width="185" x="1169.5" y="561.1094"/><rect codeLine="81" fill="none" height="125.0938" id="Term" rx="2.5" ry="2.5" style="stroke:#181818;stroke-width:0.5;" width="185" x="1169.5" y="528"/><ellipse cx="1221.25" cy="545.8047" fill="#FF7700" rx="11" ry="11" style="stroke:#181818;stroke-width:1.0;"/><path d="M1220.0469,546.6797 L1221.5,546.6797 L1221.5,546.7891 C1221.5,547.1953 1221.5313,547.3516 1221.6094,547.5078 C1221.7656,547.7578 1222.0469,547.9141 1222.3438,547.9141 C1222.5938,547.9141 1222.8594,547.7734 1223.0156,547.5547 C1223.1406,547.3984 1223.1719,547.2422 1223.1719,546.7891 L1223.1719,544.8672 C1223.1719,544.7109 1223.1719,544.6641 1223.1563,544.5078 C1223.0938,544.0391 1222.7813,543.7266 1222.3281,543.7266 C1222.0781,543.7266 1221.8125,543.8672 1221.6406,544.0859 C1221.5313,544.2578 1221.5,544.4141 1221.5,544.8672 L1221.5,544.9922 L1220.0469,544.9922 L1220.0469,542.5859 L1224.0313,542.5859 L1224.0313,543.4453 C1224.0313,543.8516 1224.0625,544.0234 1224.1406,544.1797 C1224.3125,544.4297 1224.5938,544.5859 1224.875,544.5859 C1225.1406,544.5859 1225.4063,544.4453 1225.5781,544.2266 C1225.6875,544.0547 1225.7188,543.9141 1225.7188,543.4453 L1225.7188,540.8984 L1218.0938,540.8984 C1217.6563,540.8984 1217.5313,540.9141 1217.375,541.0078 C1217.125,541.1641 1216.9688,541.4609 1216.9688,541.7422 C1216.9688,542.0234 1217.1094,542.2734 1217.3281,542.4453 C1217.4844,542.5547 1217.6719,542.5859 1218.0938,542.5859 L1218.3438,542.5859 L1218.3438,549.1016 L1218.0938,549.1016 C1217.6875,549.1016 1217.5313,549.1172 1217.375,549.2266 C1217.125,549.3984 1216.9688,549.6641 1216.9688,549.9609 C1216.9688,550.2266 1217.1094,550.4766 1217.3281,550.6328 C1217.4688,550.7578 1217.7031,550.8047 1218.0938,550.8047 L1226.0938,550.8047 L1226.0938,548.2266 C1226.0938,547.7891 1226.0625,547.6484 1225.9844,547.4922 C1225.8125,547.2422 1225.5313,547.0859 1225.25,547.0859 C1224.9844,547.0859 1224.7188,547.1953 1224.5469,547.4453 C1224.4375,547.6016 1224.4063,547.7422 1224.4063,548.2266 L1224.4063,549.1016 L1220.0469,549.1016 L1220.0469,546.6797 Z " fill="#000000"/><text fill="#000000" font-family="sans-serif" font-size="12" font-style="italic" lengthAdjust="spacing" textLength="77" x="1239.75" y="544.1387">«Document»</text><text fill="#888888" font-family="sans-serif" font-size="10" lengthAdjust="spacing" textLength="29" x="1263.75" y="556.251">Term</text><line style="stroke:#181818;stroke-width:0.5;" x1="1170.5" x2="1353.5" y1="563.6094" y2="563.6094"/><ellipse cx="1180.5" cy="577.2578" fill="#000000" rx="3" ry="3" style="stroke:#000000;stroke-width:1.0;"/><text fill="#000000" font-family="sans-serif" font-size="14" lengthAdjust="spacing" textLength="103" x="1189.5" y="580.6045">id : String «id»</text><ellipse cx="1180.5" cy="593.5547" fill="#000000" rx="3" ry="3" style="stroke:#000000;stroke-width:1.0;"/><text fill="#000000" font-family="sans-serif" font-size="14" lengthAdjust="spacing" textLength="97" x="1189.5" y="596.9014">year : Integer</text><ellipse cx="1180.5" cy="609.8516" fill="#000000" rx="3" ry="3" style="stroke:#000000;stroke-width:1.0;"/><text fill="#000000" font-family="sans-serif" font-size="14" lengthAdjust="spacing" textLength="159" x="1189.5" y="613.1982">termType : TermType</text><ellipse cx="1180.5" cy="626.1484" fill="#000000" rx="3" ry="3" style="stroke:#000000;stroke-width:1.0;"/><text fill="#000000" font-family="sans-serif" font-size="14" lengthAdjust="spacing" textLength="115" x="1189.5" y="629.4951">start : DateOnly</text><ellipse cx="1180.5" cy="642.4453" fill="#000000" rx="3" ry="3" style="stroke:#000000;stroke-width:1.0;"/><text fill="#000000" font-family="sans-serif" font-size="14" lengthAdjust="spacing" textLength="107" x="1189.5" y="645.792">end : DateOnly</text></g><!--MD5=[900cfb6e59038aab71619b78b86ded6d]
class TermType--><g id="elem_TermType"><rect codeLine="90" fill="#F1F1F1" height="72.5938" id="TermType" rx="2.5" ry="2.5" style="stroke:#181818;stroke-width:0.5;" width="106" x="1504" y="554"/><ellipse cx="1519" cy="570" fill="#EB937F" rx="11" ry="11" style="stroke:#181818;stroke-width:1.0;"/><path d="M1517.7969,570.875 L1519.25,570.875 L1519.25,570.9844 C1519.25,571.3906 1519.2813,571.5469 1519.3594,571.7031 C1519.5156,571.9531 1519.7969,572.1094 1520.0938,572.1094 C1520.3438,572.1094 1520.6094,571.9688 1520.7656,571.75 C1520.8906,571.5938 1520.9219,571.4375 1520.9219,570.9844 L1520.9219,569.0625 C1520.9219,568.9063 1520.9219,568.8594 1520.9063,568.7031 C1520.8438,568.2344 1520.5313,567.9219 1520.0781,567.9219 C1519.8281,567.9219 1519.5625,568.0625 1519.3906,568.2813 C1519.2813,568.4531 1519.25,568.6094 1519.25,569.0625 L1519.25,569.1875 L1517.7969,569.1875 L1517.7969,566.7813 L1521.7813,566.7813 L1521.7813,567.6406 C1521.7813,568.0469 1521.8125,568.2188 1521.8906,568.375 C1522.0625,568.625 1522.3438,568.7813 1522.625,568.7813 C1522.8906,568.7813 1523.1563,568.6406 1523.3281,568.4219 C1523.4375,568.25 1523.4688,568.1094 1523.4688,567.6406 L1523.4688,565.0938 L1515.8438,565.0938 C1515.4063,565.0938 1515.2813,565.1094 1515.125,565.2031 C1514.875,565.3594 1514.7188,565.6563 1514.7188,565.9375 C1514.7188,566.2188 1514.8594,566.4688 1515.0781,566.6406 C1515.2344,566.75 1515.4219,566.7813 1515.8438,566.7813 L1516.0938,566.7813 L1516.0938,573.2969 L1515.8438,573.2969 C1515.4375,573.2969 1515.2813,573.3125 1515.125,573.4219 C1514.875,573.5938 1514.7188,573.8594 1514.7188,574.1563 C1514.7188,574.4219 1514.8594,574.6719 1515.0781,574.8281 C1515.2188,574.9531 1515.4531,575 1515.8438,575 L1523.8438,575 L1523.8438,572.4219 C1523.8438,571.9844 1523.8125,571.8438 1523.7344,571.6875 C1523.5625,571.4375 1523.2813,571.2813 1523,571.2813 C1522.7344,571.2813 1522.4688,571.3906 1522.2969,571.6406 C1522.1875,571.7969 1522.1563,571.9375 1522.1563,572.4219 L1522.1563,573.2969 L1517.7969,573.2969 L1517.7969,570.875 Z " fill="#000000"/><text fill="#000000" font-family="sans-serif" font-size="14" lengthAdjust="spacing" textLength="74" x="1533" y="574.8467">TermType</text><line style="stroke:#181818;stroke-width:0.5;" x1="1505" x2="1609" y1="586" y2="586"/><text fill="#000000" font-family="sans-serif" font-size="14" lengthAdjust="spacing" textLength="49" x="1510" y="602.9951">Winter</text><text fill="#000000" font-family="sans-serif" font-size="14" lengthAdjust="spacing" textLength="60" x="1510" y="619.292">Summer</text></g><!--MD5=[d90bdde1f16ace673e2e2a24731b7f27]
link Class to Term--><g id="link_Class_Term"><path codeLine="95" d="M958.119,590.5 C958.119,590.5 1096.92,590.5 1156.3,590.5 " fill="none" id="Class-Term" style="stroke:#181818;stroke-width:1.0;"/><polygon fill="#181818" points="1169.49,590.5,1160.49,586.5,1164.49,590.5,1160.49,594.5,1169.49,590.5" style="stroke:#181818;stroke-width:1.0;"/><line style="stroke:#181818;stroke-width:1.0;" x1="1164.49" x2="1156.49" y1="590.5" y2="590.5"/><polygon fill="none" points="946.119,590.5,952.119,594.5,958.119,590.5,952.119,586.5,946.119,590.5" style="stroke:#181818;stroke-width:1.0;"/><polygon fill="#000000" points="1049.5,582.0664,1040.4549,579.1275,1040.4549,585.0053,1049.5,582.0664" style="stroke:#000000;stroke-width:1.0;"/><text fill="#000000" font-family="sans-serif" font-size="13" lengthAdjust="spacing" textLength="31" x="1053.5" y="586.5669">term</text></g><!--MD5=[268ba674a1476190d693b689a0d791e1]
link Class to TeacherName--><g id="link_Class_TeacherName"><path codeLine="96" d="M957.2393,641.2958 C957.2393,641.2958 1087.76,694.235 1145.63,717.707 " fill="none" id="Class-TeacherName" style="stroke:#181818;stroke-width:1.0;"/><polygon fill="#181818" points="1157.78,722.637,1150.943,715.5479,1153.1465,720.7579,1147.9365,722.9614,1157.78,722.637" style="stroke:#181818;stroke-width:1.0;"/><line style="stroke:#181818;stroke-width:1.0;" x1="1153.1465" x2="1145.74" y1="720.7579" y2="717.7505"/><polygon fill="#181818" points="946.119,636.786,950.1759,642.7477,957.2393,641.2958,953.1824,635.3341,946.119,636.786" style="stroke:#181818;stroke-width:1.0;"/><polygon fill="#000000" points="1022.6334,654.9457,1015.3561,648.8226,1013.1469,654.2695,1022.6334,654.9457" style="stroke:#000000;stroke-width:1.0;"/><text fill="#000000" font-family="sans-serif" font-size="13" lengthAdjust="spacing" textLength="84" x="1027" y="657.5669">classTeacher</text></g><!--MD5=[b30ad649c736b186f5d6a4b321ac8e23]
link Exam to StudentName--><g id="link_Exam_StudentName"><path codeLine="98" d="M248.1815,572.6481 C248.1815,572.6481 261.217,566.928 267,564.5 C293.689,553.292 322.833,542.247 350.383,532.33 " fill="none" id="Exam-StudentName" style="stroke:#181818;stroke-width:1.0;"/><polygon fill="#181818" points="362.915,527.856,353.0941,527.1143,358.206,529.5368,355.7835,534.6487,362.915,527.856" style="stroke:#181818;stroke-width:1.0;"/><line style="stroke:#181818;stroke-width:1.0;" x1="358.206" x2="350.6715" y1="529.5368" y2="532.227"/><polygon fill="#181818" points="237.236,577.567,244.3484,578.7561,248.1815,572.6481,241.0691,571.459,237.236,577.567" style="stroke:#181818;stroke-width:1.0;"/><polygon fill="#000000" points="277.6512,528.2315,268.1586,528.817,270.3156,534.2847,277.6512,528.2315" style="stroke:#000000;stroke-width:1.0;"/><text fill="#000000" font-family="sans-serif" font-size="13" lengthAdjust="spacing" textLength="49" x="282" y="534.5669">student</text></g><!--MD5=[479bb2afbf1ee3c0ef10851a60d58773]
link Exam to TeacherName--><g id="link_Exam_TeacherName"><path codeLine="99" d="M248.9854,648.8922 C248.9854,648.8922 929.896,726.676 1144.7,751.214 " fill="none" id="Exam-TeacherName" style="stroke:#181818;stroke-width:1.0;"/><polygon fill="#181818" points="1157.87,752.718,1149.386,747.7158,1152.9027,752.1467,1148.4719,755.6634,1157.87,752.718" style="stroke:#181818;stroke-width:1.0;"/><line style="stroke:#181818;stroke-width:1.0;" x1="1152.9027" x2="1144.95" y1="752.1467" y2="751.243"/><polygon fill="#181818" points="237.063,647.53,242.5701,652.1853,248.9854,648.8922,243.4783,644.237,237.063,647.53" style="stroke:#181818;stroke-width:1.0;"/><polygon fill="#000000" points="610.9677,682.6339,602.3146,678.6874,601.6475,684.5272,610.9677,682.6339" style="stroke:#000000;stroke-width:1.0;"/><text fill="#000000" font-family="sans-serif" font-size="13" lengthAdjust="spacing" textLength="49" x="615" y="686.5669">teacher</text></g><!--MD5=[a929898c77b6a891e8823436c525ce8a]
link Exam to Class--><g id="link_Exam_Class"><path codeLine="100" d="M249.3548,626.6369 C249.3548,626.6369 574.429,606.405 702.456,598.438 " fill="none" id="Exam-Class" style="stroke:#181818;stroke-width:1.0;"/><polygon fill="#181818" points="715.787,597.608,706.5556,594.1755,710.7967,597.919,707.0532,602.16,715.787,597.608" style="stroke:#181818;stroke-width:1.0;"/><line style="stroke:#181818;stroke-width:1.0;" x1="710.7967" x2="702.812" y1="597.919" y2="598.4155"/><polygon fill="none" points="237.378,627.382,243.6148,631.0017,249.3548,626.6369,243.1181,623.0172,237.378,627.382" style="stroke:#181818;stroke-width:1.0;"/><polygon fill="#000000" points="429.4903,597.7558,420.2802,595.3844,420.6453,601.2509,429.4903,597.7558" style="stroke:#000000;stroke-width:1.0;"/><text fill="#000000" font-family="sans-serif" font-size="13" lengthAdjust="spacing" textLength="80" x="433.5" y="602.5669">currentClass</text></g><!--MD5=[a929898c77b6a891e8823436c525ce8a]
link Exam to Class--><g id="link_Exam_Class"><path codeLine="101" d="M249.1121,640.1169 C249.1121,640.1169 326.428,642.815 363,643.5 C455.428,645.232 479.026,652.814 571,643.5 C614.348,639.11 661.162,630.688 702.911,621.828 " fill="none" id="Exam-Class-1" style="stroke:#181818;stroke-width:1.0;"/><polygon fill="#181818" points="715.695,619.068,706.0534,617.058,710.8077,620.1235,707.7422,624.8777,715.695,619.068" style="stroke:#181818;stroke-width:1.0;"/><line style="stroke:#181818;stroke-width:1.0;" x1="710.8077" x2="702.9875" y1="620.1235" y2="621.8115"/><polygon fill="none" points="237.121,639.654,242.9622,643.8825,249.1121,640.1169,243.2708,635.8884,237.121,639.654" style="stroke:#181818;stroke-width:1.0;"/><polygon fill="#000000" points="433.9959,634.8651,424.8398,632.2928,425.0765,638.1658,433.9959,634.8651" style="stroke:#000000;stroke-width:1.0;"/><text fill="#000000" font-family="sans-serif" font-size="13" lengthAdjust="spacing" textLength="71" x="438" y="639.5669">examClass</text></g><!--MD5=[f064bfdd27fd70a6204b88560e3c11e6]
link Student to StudentName--><g id="link_Student_StudentName"><path codeLine="103" d="M235.3538,340.7239 C235.3538,340.7239 320.805,403.331 363,431.5 C368.153,434.94 373.497,438.417 378.917,441.874 " fill="none" id="Student-StudentName" style="stroke:#181818;stroke-width:1.0;"/><polygon fill="#181818" points="390.113,448.927,384.6303,440.7453,385.8825,446.2618,380.366,447.514,390.113,448.927" style="stroke:#181818;stroke-width:1.0;"/><line style="stroke:#181818;stroke-width:1.0;" x1="385.8825" x2="379.1135" y1="446.2618" y2="441.998"/><polygon fill="#181818" points="225.738,333.545,228.1529,340.3397,235.3538,340.7239,232.9389,333.9292,225.738,333.545" style="stroke:#181818;stroke-width:1.0;"/><polygon fill="#000000" points="283.0874,359.9462,277.386,352.3341,274.0005,357.1391,283.0874,359.9462" style="stroke:#000000;stroke-width:1.0;"/><text fill="#000000" font-family="sans-serif" font-size="13" lengthAdjust="spacing" textLength="37" x="288" y="361.5669">name</text></g><!--MD5=[ff546ffb5c71ad99af99f528ed102e6d]
link Student to Class--><g id="link_Student_Class"><path codeLine="104" d="M237.7469,212.8442 C237.7469,212.8442 537.43,146.45 665,228.5 C754.096,285.805 795.66,404.385 814.666,490.247 " fill="none" id="Student-Class" style="stroke:#181818;stroke-width:1.0;"/><polygon fill="#181818" points="817.418,503.199,819.4604,493.5642,816.3789,498.3082,811.635,495.2267,817.418,503.199" style="stroke:#181818;stroke-width:1.0;"/><line style="stroke:#181818;stroke-width:1.0;" x1="816.3789" x2="814.7155" y1="498.3082" y2="490.4825"/><polygon fill="none" points="226.261,216.319,233.1622,218.4102,237.7469,212.8442,230.8457,210.753,226.261,216.319" style="stroke:#181818;stroke-width:1.0;"/><polygon fill="#000000" points="429.0061,171.2331,422.128,164.6649,419.5809,169.9621,429.0061,171.2331" style="stroke:#000000;stroke-width:1.0;"/><text fill="#000000" font-family="sans-serif" font-size="13" lengthAdjust="spacing" textLength="80" x="433.5" y="173.5669">currentClass</text></g><!--MD5=[ff546ffb5c71ad99af99f528ed102e6d]
link Student to Class--><g id="link_Student_Class"><path codeLine="105" d="M226.272,246.892 C321.069,244.348 462.797,252.032 571,307.5 C655.672,350.906 726.501,434 772.567,498.969 " fill="none" id="Student-to-Class" style="stroke:#181818;stroke-width:1.0;"/><polygon fill="#181818" points="775.566,503.221,773.6494,493.5604,772.685,499.1345,767.111,498.17,775.566,503.221" style="stroke:#181818;stroke-width:1.0;"/><polygon fill="#000000" points="430.54,245.1613,423.5584,238.7031,421.0957,244.0401,430.54,245.1613" style="stroke:#000000;stroke-width:1.0;"/><text fill="#000000" font-family="sans-serif" font-size="13" lengthAdjust="spacing" textLength="77" x="435" y="247.5669">classHistory</text></g><!--MD5=[db5fb6e4a6db2f4bffdef83a600ca08f]
link Student to Gender--><g id="link_Student_Gender"><path codeLine="106" d="M237.7535,292.9749 C237.7535,292.9749 365.771,335.895 412.017,351.401 " fill="none" id="Student-Gender" style="stroke:#181818;stroke-width:1.0;"/><polygon fill="#181818" points="424.452,355.57,417.1905,348.9163,419.7114,353.9805,414.6473,356.5013,424.452,355.57" style="stroke:#181818;stroke-width:1.0;"/><line style="stroke:#181818;stroke-width:1.0;" x1="419.7114" x2="412.1265" y1="353.9805" y2="351.437"/><polygon fill="none" points="226.376,289.16,230.7931,294.8599,237.7535,292.9749,233.3364,287.275,226.376,289.16" style="stroke:#181818;stroke-width:1.0;"/><polygon fill="#000000" points="279.7406,297.6558,272.099,291.9941,270.2305,297.567,279.7406,297.6558" style="stroke:#000000;stroke-width:1.0;"/><text fill="#000000" font-family="sans-serif" font-size="13" lengthAdjust="spacing" textLength="45" x="284" y="300.5669">gender</text></g><!--MD5=[00e992dca08112ad23f8b9656149c03e]
link Student to Address--><g id="link_Student_Address"><path codeLine="107" d="M225.6379,168.3303 C225.6379,168.3303 253.412,149.309 267,141.5 C299.578,122.777 337.456,106.522 371.369,93.706 " fill="none" id="Student-Address" style="stroke:#181818;stroke-width:1.0;"/><polygon fill="#181818" points="383.667,89.142,373.8376,88.5229,378.9793,90.8815,376.6208,96.0232,383.667,89.142" style="stroke:#181818;stroke-width:1.0;"/><line style="stroke:#181818;stroke-width:1.0;" x1="378.9793" x2="371.479" y1="90.8815" y2="93.665"/><polygon fill="#181818" points="215.927,175.38,223.1324,175.0921,225.6379,168.3303,218.4325,168.6182,215.927,175.38" style="stroke:#181818;stroke-width:1.0;"/><polygon fill="#000000" points="276.4504,99.7875,267.06,101.2942,269.739,106.526,276.4504,99.7875" style="stroke:#000000;stroke-width:1.0;"/><text fill="#000000" font-family="sans-serif" font-size="13" lengthAdjust="spacing" textLength="51" x="281" y="106.5669">address</text></g><!--MD5=[52a1ee40b2b55365a058ee4d6d5b595e]
link Teacher to TeacherName--><g id="link_Teacher_TeacherName"><path codeLine="109" d="M978.6782,848.1218 C978.6782,848.1218 1080.12,822.385 1128,808.5 C1133.6,806.875 1139.33,805.168 1145.09,803.409 " fill="none" id="Teacher-TeacherName" style="stroke:#181818;stroke-width:1.0;"/><polygon fill="#181818" points="1157.77,799.486,1147.9898,798.3253,1152.9935,800.9641,1150.3547,805.9678,1157.77,799.486" style="stroke:#181818;stroke-width:1.0;"/><line style="stroke:#181818;stroke-width:1.0;" x1="1152.9935" x2="1145.355" y1="800.9641" y2="803.3295"/><polygon fill="#181818" points="967.026,850.9901,973.8082,853.44,978.6782,848.1218,971.896,845.6719,967.026,850.9901" style="stroke:#181818;stroke-width:1.0;"/><polygon fill="#000000" points="1046.3287,798.769,1036.8309,798.2778,1038.3561,803.9543,1046.3287,798.769" style="stroke:#000000;stroke-width:1.0;"/><text fill="#000000" font-family="sans-serif" font-size="13" lengthAdjust="spacing" textLength="37" x="1050.5" y="804.5669">name</text></g><!--MD5=[69c12b88fce068bf4d3498ad8f31ef7b]
link Teacher to Subject--><g id="link_Teacher_Subject"><path codeLine="110" d="M967.149,882.5 C1029.49,882.5 1102.25,882.5 1159.76,882.5 " fill="none" id="Teacher-to-Subject" style="stroke:#181818;stroke-width:1.0;"/><polygon fill="#181818" points="1164.93,882.5,1155.93,878.5,1159.93,882.5,1155.93,886.5,1164.93,882.5" style="stroke:#181818;stroke-width:1.0;"/><polygon fill="#000000" points="1007,874.0664,997.9549,871.1275,997.9549,877.0053,1007,874.0664" style="stroke:#000000;stroke-width:1.0;"/><text fill="#000000" font-family="sans-serif" font-size="13" lengthAdjust="spacing" textLength="116" x="1011" y="878.5669">canTeachSubjects</text></g><!--MD5=[f36c9f04e4e8afc572bde58ad455f0fb]
link Term to TermType--><g id="link_Term_TermType"><path codeLine="112" d="M1366.5,590.5 C1366.5,590.5 1454.44,590.5 1490.59,590.5 " fill="none" id="Term-TermType" style="stroke:#181818;stroke-width:1.0;"/><polygon fill="#181818" points="1503.94,590.5,1494.94,586.5,1498.94,590.5,1494.94,594.5,1503.94,590.5" style="stroke:#181818;stroke-width:1.0;"/><line style="stroke:#181818;stroke-width:1.0;" x1="1498.94" x2="1490.94" y1="590.5" y2="590.5"/><polygon fill="none" points="1354.5,590.5,1360.5,594.5,1366.5,590.5,1360.5,586.5,1354.5,590.5" style="stroke:#181818;stroke-width:1.0;"/><polygon fill="#000000" points="1406,582.0664,1396.9549,579.1275,1396.9549,585.0053,1406,582.0664" style="stroke:#000000;stroke-width:1.0;"/><text fill="#000000" font-family="sans-serif" font-size="13" lengthAdjust="spacing" textLength="63" x="1410" y="586.5669">termType</text></g><!--MD5=[27c709253e6ab9b842672ed4ce20e7ff]
@startuml
hide empty methods
left to right direction

class Address <value object> {
    *street : String
    *streetNr : String
    *City : String
    *Zip : Integer
} 

entity Class <<(E,#FF7700) Document>> {
    *id : String <<id>>
    *shortname : String
    *term : Term
    *department : String
    *educationLevel : Integer
    *letter : String
    *classTeacher : TeacherName
    roomShortname : String
}

entity Exam <<(E,#FF7700) Document>> {
    *id : ObjectId <<id, generated>>
    *student : StudentName
    *teacher : TeacherName
    *currentClass : Class
    *examClass : Class
    *subject : Subject
    *dateTime : DateTime
    *pointsMax : Integer
    *points : Integer
    *grade : Integer
}

enum Gender {
    Female
    Male
    Other
}

entity Room <<(E,#FF7700) Document>> {
    *shortname : String <<id>>
    capacity : Integer
}

entity  Student <<(E,#FF7700) Document>> {
    *id : Integer <<id>>
    *name : StudentName
    currentClass : Class
    *gender : Gender
    *address : Address
    *dateOfBirth : DateOnly
    *classHistory : List<Class>
}

class StudentName <value object> {
    *nr : Integer
    *firstname : String
    *lastname : String
}

entity Subject <<(E,#FF7700) Document>> {
    *shortname : String <<id>>
    *longname : String
}

entity Teacher <<(E,#FF7700) Document>> {
    *id : String <<id>>
    *name : TeacherName
    salary : Decimal
    *homeOfficeDays : List<String>
    *canTeachSubjects : List<Subject>
}

class TeacherName <value object> {
    *shortname : String
    *firstname : String
    *lastname : String
}

entity Term <<(E,#FF7700) Document>> {
    *id : String <<id>>
    *year : Integer
    *termType : TermType
    *start : DateOnly
    *end : DateOnly
}


enum TermType {
    Winter
    Summer
}

Class o- -> Term : > term
Class *- -> TeacherName : > classTeacher

Exam *- -> StudentName  : > student
Exam *- -> TeacherName  : > teacher
Exam o- - -> Class  : > currentClass
Exam o- - -> Class  : > examClass

Student *- -> StudentName  : > name
Student o- - -> Class : > currentClass
Student - - -> Class : > classHistory
Student o- -> Gender : > gender
Student *- -> Address : > address

Teacher *- -> TeacherName : > name
Teacher - -> Subject : > canTeachSubjects

Term o- -> TermType : > termType
@enduml

PlantUML version 1.2022.10beta1(Unknown compile time)
(GPL source distribution)
Java Runtime: Java(TM) SE Runtime Environment
JVM: Java HotSpot(TM) 64-Bit Server VM
Default Encoding: UTF-8
Language: en
Country: US
--></g></svg>