<?xml version="1.0" encoding="UTF-8" standalone="no"?><svg xmlns="http://www.w3.org/2000/svg" xmlns:xlink="http://www.w3.org/1999/xlink" contentStyleType="text/css" height="1053px" preserveAspectRatio="none" style="width:1650px;height:1053px;background:#FFFFFF;" version="1.1" viewBox="0 0 1650 1053" width="1650px" zoomAndPan="magnify"><defs/><g><!--MD5=[0f39e4cb6f03951afbf6d14bd2505654]
class Address--><g id="elem_Address"><rect codeLine="4" fill="#F1F1F1" height="105.1875" id="Address" rx="2.5" ry="2.5" style="stroke:#181818;stroke-width:0.5;" width="166" x="491" y="634.5"/><ellipse cx="506" cy="650.5" fill="#ADD1B2" rx="11" ry="11" style="stroke:#181818;stroke-width:1.0;"/><path d="M508.3438,646.1719 C507.4063,645.7344 506.8125,645.5938 505.9375,645.5938 C503.3125,645.5938 501.3125,647.6719 501.3125,650.3906 L501.3125,651.5156 C501.3125,654.0938 503.4219,655.9844 506.3125,655.9844 C507.5313,655.9844 508.6875,655.6875 509.4375,655.1406 C510.0156,654.7344 510.3438,654.2813 510.3438,653.8906 C510.3438,653.4375 509.9531,653.0469 509.4844,653.0469 C509.2656,653.0469 509.0625,653.125 508.875,653.3125 C508.4219,653.7969 508.4219,653.7969 508.2344,653.8906 C507.8125,654.1563 507.125,654.2813 506.3594,654.2813 C504.3125,654.2813 503.0156,653.1875 503.0156,651.4844 L503.0156,650.3906 C503.0156,648.6094 504.2656,647.2969 506,647.2969 C506.5781,647.2969 507.1875,647.4531 507.6563,647.7031 C508.1406,647.9844 508.3125,648.2031 508.4063,648.6094 C508.4688,649.0156 508.5,649.1406 508.6406,649.2656 C508.7813,649.4063 509.0156,649.5156 509.2344,649.5156 C509.5,649.5156 509.7656,649.375 509.9375,649.1563 C510.0469,649 510.0781,648.8125 510.0781,648.3906 L510.0781,646.9688 C510.0781,646.5313 510.0625,646.4063 509.9688,646.25 C509.8125,645.9844 509.5313,645.8438 509.2344,645.8438 C508.9375,645.8438 508.7344,645.9375 508.5156,646.25 L508.3438,646.1719 Z " fill="#000000"/><text fill="#000000" font-family="sans-serif" font-size="14" lengthAdjust="spacing" textLength="57" x="520" y="655.3467">Address</text><rect fill="#FFFFFF" height="15.9688" style="stroke:#181818;stroke-width:1.0;stroke-dasharray:2.0,2.0;" width="75" x="585" y="631.5"/><text fill="#000000" font-family="sans-serif" font-size="12" font-style="italic" lengthAdjust="spacing" textLength="73" x="586" y="643.6387">value object</text><line style="stroke:#181818;stroke-width:0.5;" x1="492" x2="656" y1="666.5" y2="666.5"/><ellipse cx="502" cy="680.1484" fill="#000000" rx="3" ry="3" style="stroke:#000000;stroke-width:1.0;"/><text fill="#000000" font-family="sans-serif" font-size="14" lengthAdjust="spacing" textLength="102" x="511" y="683.4951">street : String</text><ellipse cx="502" cy="696.4453" fill="#000000" rx="3" ry="3" style="stroke:#000000;stroke-width:1.0;"/><text fill="#000000" font-family="sans-serif" font-size="14" lengthAdjust="spacing" textLength="118" x="511" y="699.792">streetNr : String</text><ellipse cx="502" cy="712.7422" fill="#000000" rx="3" ry="3" style="stroke:#000000;stroke-width:1.0;"/><text fill="#000000" font-family="sans-serif" font-size="14" lengthAdjust="spacing" textLength="86" x="511" y="716.0889">City : String</text><ellipse cx="502" cy="729.0391" fill="#000000" rx="3" ry="3" style="stroke:#000000;stroke-width:1.0;"/><text fill="#000000" font-family="sans-serif" font-size="14" lengthAdjust="spacing" textLength="90" x="511" y="732.3857">Zip : Integer</text></g><!--MD5=[41e1c6cf192918703501b24b2053926c]
class Class--><g id="elem_Class"><rect codeLine="11" fill="#FFFFFF" height="173.9844" id="Class" rx="2.5" ry="2.5" style="stroke:#181818;stroke-width:0.5;" width="230" x="802" y="284"/><rect fill="none" height="35.6094" rx="2.5" ry="2.5" style="stroke:none;stroke-width:0.5;" width="230" x="802" y="284"/><rect fill="none" height="2.5" style="stroke:none;stroke-width:0.5;" width="230" x="802" y="317.1094"/><rect codeLine="11" fill="none" height="173.9844" id="Class" rx="2.5" ry="2.5" style="stroke:#181818;stroke-width:0.5;" width="230" x="802" y="284"/><ellipse cx="876.25" cy="301.8047" fill="#FF7700" rx="11" ry="11" style="stroke:#181818;stroke-width:1.0;"/><path d="M875.0469,302.6797 L876.5,302.6797 L876.5,302.7891 C876.5,303.1953 876.5313,303.3516 876.6094,303.5078 C876.7656,303.7578 877.0469,303.9141 877.3438,303.9141 C877.5938,303.9141 877.8594,303.7734 878.0156,303.5547 C878.1406,303.3984 878.1719,303.2422 878.1719,302.7891 L878.1719,300.8672 C878.1719,300.7109 878.1719,300.6641 878.1563,300.5078 C878.0938,300.0391 877.7813,299.7266 877.3281,299.7266 C877.0781,299.7266 876.8125,299.8672 876.6406,300.0859 C876.5313,300.2578 876.5,300.4141 876.5,300.8672 L876.5,300.9922 L875.0469,300.9922 L875.0469,298.5859 L879.0313,298.5859 L879.0313,299.4453 C879.0313,299.8516 879.0625,300.0234 879.1406,300.1797 C879.3125,300.4297 879.5938,300.5859 879.875,300.5859 C880.1406,300.5859 880.4063,300.4453 880.5781,300.2266 C880.6875,300.0547 880.7188,299.9141 880.7188,299.4453 L880.7188,296.8984 L873.0938,296.8984 C872.6563,296.8984 872.5313,296.9141 872.375,297.0078 C872.125,297.1641 871.9688,297.4609 871.9688,297.7422 C871.9688,298.0234 872.1094,298.2734 872.3281,298.4453 C872.4844,298.5547 872.6719,298.5859 873.0938,298.5859 L873.3438,298.5859 L873.3438,305.1016 L873.0938,305.1016 C872.6875,305.1016 872.5313,305.1172 872.375,305.2266 C872.125,305.3984 871.9688,305.6641 871.9688,305.9609 C871.9688,306.2266 872.1094,306.4766 872.3281,306.6328 C872.4688,306.7578 872.7031,306.8047 873.0938,306.8047 L881.0938,306.8047 L881.0938,304.2266 C881.0938,303.7891 881.0625,303.6484 880.9844,303.4922 C880.8125,303.2422 880.5313,303.0859 880.25,303.0859 C879.9844,303.0859 879.7188,303.1953 879.5469,303.4453 C879.4375,303.6016 879.4063,303.7422 879.4063,304.2266 L879.4063,305.1016 L875.0469,305.1016 L875.0469,302.6797 Z " fill="#000000"/><text fill="#000000" font-family="sans-serif" font-size="12" font-style="italic" lengthAdjust="spacing" textLength="77" x="894.75" y="300.1387">«Document»</text><text fill="#888888" font-family="sans-serif" font-size="10" lengthAdjust="spacing" textLength="28" x="919.25" y="312.251">Class</text><line style="stroke:#181818;stroke-width:0.5;" x1="803" x2="1031" y1="319.6094" y2="319.6094"/><ellipse cx="813" cy="333.2578" fill="#000000" rx="3" ry="3" style="stroke:#000000;stroke-width:1.0;"/><text fill="#000000" font-family="sans-serif" font-size="14" lengthAdjust="spacing" textLength="103" x="822" y="336.6045">id : String «id»</text><ellipse cx="813" cy="349.5547" fill="#000000" rx="3" ry="3" style="stroke:#000000;stroke-width:1.0;"/><text fill="#000000" font-family="sans-serif" font-size="14" lengthAdjust="spacing" textLength="135" x="822" y="352.9014">shortname : String</text><ellipse cx="813" cy="365.8516" fill="#000000" rx="3" ry="3" style="stroke:#000000;stroke-width:1.0;"/><text fill="#000000" font-family="sans-serif" font-size="14" lengthAdjust="spacing" textLength="87" x="822" y="369.1982">term : Term</text><ellipse cx="813" cy="382.1484" fill="#000000" rx="3" ry="3" style="stroke:#000000;stroke-width:1.0;"/><text fill="#000000" font-family="sans-serif" font-size="14" lengthAdjust="spacing" textLength="145" x="822" y="385.4951">department : String</text><ellipse cx="813" cy="398.4453" fill="#000000" rx="3" ry="3" style="stroke:#000000;stroke-width:1.0;"/><text fill="#000000" font-family="sans-serif" font-size="14" lengthAdjust="spacing" textLength="175" x="822" y="401.792">educationLevel : Integer</text><ellipse cx="813" cy="414.7422" fill="#000000" rx="3" ry="3" style="stroke:#000000;stroke-width:1.0;"/><text fill="#000000" font-family="sans-serif" font-size="14" lengthAdjust="spacing" textLength="99" x="822" y="418.0889">letter : String</text><ellipse cx="813" cy="431.0391" fill="#000000" rx="3" ry="3" style="stroke:#000000;stroke-width:1.0;"/><text fill="#000000" font-family="sans-serif" font-size="14" lengthAdjust="spacing" textLength="204" x="822" y="434.3857">classTeacher : TeacherName</text><text fill="#000000" font-family="sans-serif" font-size="14" lengthAdjust="spacing" textLength="175" x="822" y="450.6826">roomShortname : String</text></g><!--MD5=[4ec975f1641a34b3290014bf4027a644]
class Exam--><g id="elem_Exam"><rect codeLine="22" fill="#FFFFFF" height="206.5781" id="Exam" rx="2.5" ry="2.5" style="stroke:#181818;stroke-width:0.5;" width="230" x="28" y="118.5"/><rect fill="none" height="35.6094" rx="2.5" ry="2.5" style="stroke:none;stroke-width:0.5;" width="230" x="28" y="118.5"/><rect fill="none" height="2.5" style="stroke:none;stroke-width:0.5;" width="230" x="28" y="151.6094"/><rect codeLine="22" fill="none" height="206.5781" id="Exam" rx="2.5" ry="2.5" style="stroke:#181818;stroke-width:0.5;" width="230" x="28" y="118.5"/><ellipse cx="102.25" cy="136.3047" fill="#FF7700" rx="11" ry="11" style="stroke:#181818;stroke-width:1.0;"/><path d="M101.0469,137.1797 L102.5,137.1797 L102.5,137.2891 C102.5,137.6953 102.5313,137.8516 102.6094,138.0078 C102.7656,138.2578 103.0469,138.4141 103.3438,138.4141 C103.5938,138.4141 103.8594,138.2734 104.0156,138.0547 C104.1406,137.8984 104.1719,137.7422 104.1719,137.2891 L104.1719,135.3672 C104.1719,135.2109 104.1719,135.1641 104.1563,135.0078 C104.0938,134.5391 103.7813,134.2266 103.3281,134.2266 C103.0781,134.2266 102.8125,134.3672 102.6406,134.5859 C102.5313,134.7578 102.5,134.9141 102.5,135.3672 L102.5,135.4922 L101.0469,135.4922 L101.0469,133.0859 L105.0313,133.0859 L105.0313,133.9453 C105.0313,134.3516 105.0625,134.5234 105.1406,134.6797 C105.3125,134.9297 105.5938,135.0859 105.875,135.0859 C106.1406,135.0859 106.4063,134.9453 106.5781,134.7266 C106.6875,134.5547 106.7188,134.4141 106.7188,133.9453 L106.7188,131.3984 L99.0938,131.3984 C98.6563,131.3984 98.5313,131.4141 98.375,131.5078 C98.125,131.6641 97.9688,131.9609 97.9688,132.2422 C97.9688,132.5234 98.1094,132.7734 98.3281,132.9453 C98.4844,133.0547 98.6719,133.0859 99.0938,133.0859 L99.3438,133.0859 L99.3438,139.6016 L99.0938,139.6016 C98.6875,139.6016 98.5313,139.6172 98.375,139.7266 C98.125,139.8984 97.9688,140.1641 97.9688,140.4609 C97.9688,140.7266 98.1094,140.9766 98.3281,141.1328 C98.4688,141.2578 98.7031,141.3047 99.0938,141.3047 L107.0938,141.3047 L107.0938,138.7266 C107.0938,138.2891 107.0625,138.1484 106.9844,137.9922 C106.8125,137.7422 106.5313,137.5859 106.25,137.5859 C105.9844,137.5859 105.7188,137.6953 105.5469,137.9453 C105.4375,138.1016 105.4063,138.2422 105.4063,138.7266 L105.4063,139.6016 L101.0469,139.6016 L101.0469,137.1797 Z " fill="#000000"/><text fill="#000000" font-family="sans-serif" font-size="12" font-style="italic" lengthAdjust="spacing" textLength="77" x="120.75" y="134.6387">«Document»</text><text fill="#888888" font-family="sans-serif" font-size="10" lengthAdjust="spacing" textLength="30" x="144.25" y="146.751">Exam</text><line style="stroke:#181818;stroke-width:0.5;" x1="29" x2="257" y1="154.1094" y2="154.1094"/><ellipse cx="39" cy="167.7578" fill="#000000" rx="3" ry="3" style="stroke:#000000;stroke-width:1.0;"/><text fill="#000000" font-family="sans-serif" font-size="14" lengthAdjust="spacing" textLength="204" x="48" y="171.1045">id : ObjectId «id, generated»</text><ellipse cx="39" cy="184.0547" fill="#000000" rx="3" ry="3" style="stroke:#000000;stroke-width:1.0;"/><text fill="#000000" font-family="sans-serif" font-size="14" lengthAdjust="spacing" textLength="168" x="48" y="187.4014">student : StudentName</text><ellipse cx="39" cy="200.3516" fill="#000000" rx="3" ry="3" style="stroke:#000000;stroke-width:1.0;"/><text fill="#000000" font-family="sans-serif" font-size="14" lengthAdjust="spacing" textLength="168" x="48" y="203.6982">teacher : TeacherName</text><ellipse cx="39" cy="216.6484" fill="#000000" rx="3" ry="3" style="stroke:#000000;stroke-width:1.0;"/><text fill="#000000" font-family="sans-serif" font-size="14" lengthAdjust="spacing" textLength="138" x="48" y="219.9951">currentClass : Class</text><ellipse cx="39" cy="232.9453" fill="#000000" rx="3" ry="3" style="stroke:#000000;stroke-width:1.0;"/><text fill="#000000" font-family="sans-serif" font-size="14" lengthAdjust="spacing" textLength="124" x="48" y="236.292">examClass : Class</text><ellipse cx="39" cy="249.2422" fill="#000000" rx="3" ry="3" style="stroke:#000000;stroke-width:1.0;"/><text fill="#000000" font-family="sans-serif" font-size="14" lengthAdjust="spacing" textLength="121" x="48" y="252.5889">subject : Subject</text><ellipse cx="39" cy="265.5391" fill="#000000" rx="3" ry="3" style="stroke:#000000;stroke-width:1.0;"/><text fill="#000000" font-family="sans-serif" font-size="14" lengthAdjust="spacing" textLength="153" x="48" y="268.8857">dateTime : DateTime</text><ellipse cx="39" cy="281.8359" fill="#000000" rx="3" ry="3" style="stroke:#000000;stroke-width:1.0;"/><text fill="#000000" font-family="sans-serif" font-size="14" lengthAdjust="spacing" textLength="140" x="48" y="285.1826">pointsMax : Integer</text><ellipse cx="39" cy="298.1328" fill="#000000" rx="3" ry="3" style="stroke:#000000;stroke-width:1.0;"/><text fill="#000000" font-family="sans-serif" font-size="14" lengthAdjust="spacing" textLength="112" x="48" y="301.4795">points : Integer</text><ellipse cx="39" cy="314.4297" fill="#000000" rx="3" ry="3" style="stroke:#000000;stroke-width:1.0;"/><text fill="#000000" font-family="sans-serif" font-size="14" lengthAdjust="spacing" textLength="107" x="48" y="317.7764">grade : Integer</text></g><!--MD5=[a4ea2dcb44ebd57046df9af95d8b8c12]
class Gender--><g id="elem_Gender"><rect codeLine="35" fill="#F1F1F1" height="88.8906" id="Gender" rx="2.5" ry="2.5" style="stroke:#181818;stroke-width:0.5;" width="85" x="531.5" y="774.5"/><ellipse cx="546.5" cy="790.5" fill="#EB937F" rx="11" ry="11" style="stroke:#181818;stroke-width:1.0;"/><path d="M545.2969,791.375 L546.75,791.375 L546.75,791.4844 C546.75,791.8906 546.7813,792.0469 546.8594,792.2031 C547.0156,792.4531 547.2969,792.6094 547.5938,792.6094 C547.8438,792.6094 548.1094,792.4688 548.2656,792.25 C548.3906,792.0938 548.4219,791.9375 548.4219,791.4844 L548.4219,789.5625 C548.4219,789.4063 548.4219,789.3594 548.4063,789.2031 C548.3438,788.7344 548.0313,788.4219 547.5781,788.4219 C547.3281,788.4219 547.0625,788.5625 546.8906,788.7813 C546.7813,788.9531 546.75,789.1094 546.75,789.5625 L546.75,789.6875 L545.2969,789.6875 L545.2969,787.2813 L549.2813,787.2813 L549.2813,788.1406 C549.2813,788.5469 549.3125,788.7188 549.3906,788.875 C549.5625,789.125 549.8438,789.2813 550.125,789.2813 C550.3906,789.2813 550.6563,789.1406 550.8281,788.9219 C550.9375,788.75 550.9688,788.6094 550.9688,788.1406 L550.9688,785.5938 L543.3438,785.5938 C542.9063,785.5938 542.7813,785.6094 542.625,785.7031 C542.375,785.8594 542.2188,786.1563 542.2188,786.4375 C542.2188,786.7188 542.3594,786.9688 542.5781,787.1406 C542.7344,787.25 542.9219,787.2813 543.3438,787.2813 L543.5938,787.2813 L543.5938,793.7969 L543.3438,793.7969 C542.9375,793.7969 542.7813,793.8125 542.625,793.9219 C542.375,794.0938 542.2188,794.3594 542.2188,794.6563 C542.2188,794.9219 542.3594,795.1719 542.5781,795.3281 C542.7188,795.4531 542.9531,795.5 543.3438,795.5 L551.3438,795.5 L551.3438,792.9219 C551.3438,792.4844 551.3125,792.3438 551.2344,792.1875 C551.0625,791.9375 550.7813,791.7813 550.5,791.7813 C550.2344,791.7813 549.9688,791.8906 549.7969,792.1406 C549.6875,792.2969 549.6563,792.4375 549.6563,792.9219 L549.6563,793.7969 L545.2969,793.7969 L545.2969,791.375 Z " fill="#000000"/><text fill="#000000" font-family="sans-serif" font-size="14" lengthAdjust="spacing" textLength="53" x="560.5" y="795.3467">Gender</text><line style="stroke:#181818;stroke-width:0.5;" x1="532.5" x2="615.5" y1="806.5" y2="806.5"/><text fill="#000000" font-family="sans-serif" font-size="14" lengthAdjust="spacing" textLength="52" x="537.5" y="823.4951">Female</text><text fill="#000000" font-family="sans-serif" font-size="14" lengthAdjust="spacing" textLength="33" x="537.5" y="839.792">Male</text><text fill="#000000" font-family="sans-serif" font-size="14" lengthAdjust="spacing" textLength="42" x="537.5" y="856.0889">Other</text></g><!--MD5=[d218c48b946d362ff1ecd879cabebcad]
class Room--><g id="elem_Room"><rect codeLine="41" fill="#FFFFFF" height="76.2031" id="Room" rx="2.5" ry="2.5" style="stroke:#181818;stroke-width:0.5;" width="194" x="46" y="7"/><rect fill="none" height="35.6094" rx="2.5" ry="2.5" style="stroke:none;stroke-width:0.5;" width="194" x="46" y="7"/><rect fill="none" height="2.5" style="stroke:none;stroke-width:0.5;" width="194" x="46" y="40.1094"/><rect codeLine="41" fill="none" height="76.2031" id="Room" rx="2.5" ry="2.5" style="stroke:#181818;stroke-width:0.5;" width="194" x="46" y="7"/><ellipse cx="102.25" cy="24.8047" fill="#FF7700" rx="11" ry="11" style="stroke:#181818;stroke-width:1.0;"/><path d="M101.0469,25.6797 L102.5,25.6797 L102.5,25.7891 C102.5,26.1953 102.5313,26.3516 102.6094,26.5078 C102.7656,26.7578 103.0469,26.9141 103.3438,26.9141 C103.5938,26.9141 103.8594,26.7734 104.0156,26.5547 C104.1406,26.3984 104.1719,26.2422 104.1719,25.7891 L104.1719,23.8672 C104.1719,23.7109 104.1719,23.6641 104.1563,23.5078 C104.0938,23.0391 103.7813,22.7266 103.3281,22.7266 C103.0781,22.7266 102.8125,22.8672 102.6406,23.0859 C102.5313,23.2578 102.5,23.4141 102.5,23.8672 L102.5,23.9922 L101.0469,23.9922 L101.0469,21.5859 L105.0313,21.5859 L105.0313,22.4453 C105.0313,22.8516 105.0625,23.0234 105.1406,23.1797 C105.3125,23.4297 105.5938,23.5859 105.875,23.5859 C106.1406,23.5859 106.4063,23.4453 106.5781,23.2266 C106.6875,23.0547 106.7188,22.9141 106.7188,22.4453 L106.7188,19.8984 L99.0938,19.8984 C98.6563,19.8984 98.5313,19.9141 98.375,20.0078 C98.125,20.1641 97.9688,20.4609 97.9688,20.7422 C97.9688,21.0234 98.1094,21.2734 98.3281,21.4453 C98.4844,21.5547 98.6719,21.5859 99.0938,21.5859 L99.3438,21.5859 L99.3438,28.1016 L99.0938,28.1016 C98.6875,28.1016 98.5313,28.1172 98.375,28.2266 C98.125,28.3984 97.9688,28.6641 97.9688,28.9609 C97.9688,29.2266 98.1094,29.4766 98.3281,29.6328 C98.4688,29.7578 98.7031,29.8047 99.0938,29.8047 L107.0938,29.8047 L107.0938,27.2266 C107.0938,26.7891 107.0625,26.6484 106.9844,26.4922 C106.8125,26.2422 106.5313,26.0859 106.25,26.0859 C105.9844,26.0859 105.7188,26.1953 105.5469,26.4453 C105.4375,26.6016 105.4063,26.7422 105.4063,27.2266 L105.4063,28.1016 L101.0469,28.1016 L101.0469,25.6797 Z " fill="#000000"/><text fill="#000000" font-family="sans-serif" font-size="12" font-style="italic" lengthAdjust="spacing" textLength="77" x="120.75" y="23.1387">«Document»</text><text fill="#888888" font-family="sans-serif" font-size="10" lengthAdjust="spacing" textLength="32" x="143.25" y="35.251">Room</text><line style="stroke:#181818;stroke-width:0.5;" x1="47" x2="239" y1="42.6094" y2="42.6094"/><ellipse cx="57" cy="56.2578" fill="#000000" rx="3" ry="3" style="stroke:#000000;stroke-width:1.0;"/><text fill="#000000" font-family="sans-serif" font-size="14" lengthAdjust="spacing" textLength="168" x="66" y="59.6045">shortname : String «id»</text><text fill="#000000" font-family="sans-serif" font-size="14" lengthAdjust="spacing" textLength="127" x="66" y="75.9014">capacity : Integer</text></g><!--MD5=[d6181cb537bdc20c0a3007a98a56832d]
class Student--><g id="elem_Student"><rect codeLine="46" fill="#FFFFFF" height="157.6875" id="Student" rx="2.5" ry="2.5" style="stroke:#181818;stroke-width:0.5;" width="208" x="39" y="485"/><rect fill="none" height="35.6094" rx="2.5" ry="2.5" style="stroke:none;stroke-width:0.5;" width="208" x="39" y="485"/><rect fill="none" height="2.5" style="stroke:none;stroke-width:0.5;" width="208" x="39" y="518.1094"/><rect codeLine="46" fill="none" height="157.6875" id="Student" rx="2.5" ry="2.5" style="stroke:#181818;stroke-width:0.5;" width="208" x="39" y="485"/><ellipse cx="102.25" cy="502.8047" fill="#FF7700" rx="11" ry="11" style="stroke:#181818;stroke-width:1.0;"/><path d="M101.0469,503.6797 L102.5,503.6797 L102.5,503.7891 C102.5,504.1953 102.5313,504.3516 102.6094,504.5078 C102.7656,504.7578 103.0469,504.9141 103.3438,504.9141 C103.5938,504.9141 103.8594,504.7734 104.0156,504.5547 C104.1406,504.3984 104.1719,504.2422 104.1719,503.7891 L104.1719,501.8672 C104.1719,501.7109 104.1719,501.6641 104.1563,501.5078 C104.0938,501.0391 103.7813,500.7266 103.3281,500.7266 C103.0781,500.7266 102.8125,500.8672 102.6406,501.0859 C102.5313,501.2578 102.5,501.4141 102.5,501.8672 L102.5,501.9922 L101.0469,501.9922 L101.0469,499.5859 L105.0313,499.5859 L105.0313,500.4453 C105.0313,500.8516 105.0625,501.0234 105.1406,501.1797 C105.3125,501.4297 105.5938,501.5859 105.875,501.5859 C106.1406,501.5859 106.4063,501.4453 106.5781,501.2266 C106.6875,501.0547 106.7188,500.9141 106.7188,500.4453 L106.7188,497.8984 L99.0938,497.8984 C98.6563,497.8984 98.5313,497.9141 98.375,498.0078 C98.125,498.1641 97.9688,498.4609 97.9688,498.7422 C97.9688,499.0234 98.1094,499.2734 98.3281,499.4453 C98.4844,499.5547 98.6719,499.5859 99.0938,499.5859 L99.3438,499.5859 L99.3438,506.1016 L99.0938,506.1016 C98.6875,506.1016 98.5313,506.1172 98.375,506.2266 C98.125,506.3984 97.9688,506.6641 97.9688,506.9609 C97.9688,507.2266 98.1094,507.4766 98.3281,507.6328 C98.4688,507.7578 98.7031,507.8047 99.0938,507.8047 L107.0938,507.8047 L107.0938,505.2266 C107.0938,504.7891 107.0625,504.6484 106.9844,504.4922 C106.8125,504.2422 106.5313,504.0859 106.25,504.0859 C105.9844,504.0859 105.7188,504.1953 105.5469,504.4453 C105.4375,504.6016 105.4063,504.7422 105.4063,505.2266 L105.4063,506.1016 L101.0469,506.1016 L101.0469,503.6797 Z " fill="#000000"/><text fill="#000000" font-family="sans-serif" font-size="12" font-style="italic" lengthAdjust="spacing" textLength="77" x="120.75" y="501.1387">«Document»</text><text fill="#888888" font-family="sans-serif" font-size="10" lengthAdjust="spacing" textLength="43" x="137.75" y="513.251">Student</text><line style="stroke:#181818;stroke-width:0.5;" x1="40" x2="246" y1="520.6094" y2="520.6094"/><ellipse cx="50" cy="534.2578" fill="#000000" rx="3" ry="3" style="stroke:#000000;stroke-width:1.0;"/><text fill="#000000" font-family="sans-serif" font-size="14" lengthAdjust="spacing" textLength="112" x="59" y="537.6045">id : Integer «id»</text><ellipse cx="50" cy="550.5547" fill="#000000" rx="3" ry="3" style="stroke:#000000;stroke-width:1.0;"/><text fill="#000000" font-family="sans-serif" font-size="14" lengthAdjust="spacing" textLength="152" x="59" y="553.9014">name : StudentName</text><text fill="#000000" font-family="sans-serif" font-size="14" lengthAdjust="spacing" textLength="138" x="59" y="570.1982">currentClass : Class</text><ellipse cx="50" cy="583.1484" fill="#000000" rx="3" ry="3" style="stroke:#000000;stroke-width:1.0;"/><text fill="#000000" font-family="sans-serif" font-size="14" lengthAdjust="spacing" textLength="117" x="59" y="586.4951">gender : Gender</text><ellipse cx="50" cy="599.4453" fill="#000000" rx="3" ry="3" style="stroke:#000000;stroke-width:1.0;"/><text fill="#000000" font-family="sans-serif" font-size="14" lengthAdjust="spacing" textLength="125" x="59" y="602.792">address : Address</text><ellipse cx="50" cy="615.7422" fill="#000000" rx="3" ry="3" style="stroke:#000000;stroke-width:1.0;"/><text fill="#000000" font-family="sans-serif" font-size="14" lengthAdjust="spacing" textLength="166" x="59" y="619.0889">dateOfBirth : DateOnly</text><ellipse cx="50" cy="632.0391" fill="#000000" rx="3" ry="3" style="stroke:#000000;stroke-width:1.0;"/><text fill="#000000" font-family="sans-serif" font-size="14" lengthAdjust="spacing" textLength="182" x="59" y="635.3857">classHistory : List&lt;Class&gt;</text></g><!--MD5=[22044a04dd7408159797097a0b6602f9]
class StudentName--><g id="elem_StudentName"><rect codeLine="56" fill="#F1F1F1" height="88.8906" id="StudentName" rx="2.5" ry="2.5" style="stroke:#181818;stroke-width:0.5;" width="208" x="470" y="335.5"/><ellipse cx="485" cy="351.5" fill="#ADD1B2" rx="11" ry="11" style="stroke:#181818;stroke-width:1.0;"/><path d="M487.3438,347.1719 C486.4063,346.7344 485.8125,346.5938 484.9375,346.5938 C482.3125,346.5938 480.3125,348.6719 480.3125,351.3906 L480.3125,352.5156 C480.3125,355.0938 482.4219,356.9844 485.3125,356.9844 C486.5313,356.9844 487.6875,356.6875 488.4375,356.1406 C489.0156,355.7344 489.3438,355.2813 489.3438,354.8906 C489.3438,354.4375 488.9531,354.0469 488.4844,354.0469 C488.2656,354.0469 488.0625,354.125 487.875,354.3125 C487.4219,354.7969 487.4219,354.7969 487.2344,354.8906 C486.8125,355.1563 486.125,355.2813 485.3594,355.2813 C483.3125,355.2813 482.0156,354.1875 482.0156,352.4844 L482.0156,351.3906 C482.0156,349.6094 483.2656,348.2969 485,348.2969 C485.5781,348.2969 486.1875,348.4531 486.6563,348.7031 C487.1406,348.9844 487.3125,349.2031 487.4063,349.6094 C487.4688,350.0156 487.5,350.1406 487.6406,350.2656 C487.7813,350.4063 488.0156,350.5156 488.2344,350.5156 C488.5,350.5156 488.7656,350.375 488.9375,350.1563 C489.0469,350 489.0781,349.8125 489.0781,349.3906 L489.0781,347.9688 C489.0781,347.5313 489.0625,347.4063 488.9688,347.25 C488.8125,346.9844 488.5313,346.8438 488.2344,346.8438 C487.9375,346.8438 487.7344,346.9375 487.5156,347.25 L487.3438,347.1719 Z " fill="#000000"/><text fill="#000000" font-family="sans-serif" font-size="14" lengthAdjust="spacing" textLength="99" x="499" y="356.3467">StudentName</text><rect fill="#FFFFFF" height="15.9688" style="stroke:#181818;stroke-width:1.0;stroke-dasharray:2.0,2.0;" width="75" x="606" y="332.5"/><text fill="#000000" font-family="sans-serif" font-size="12" font-style="italic" lengthAdjust="spacing" textLength="73" x="607" y="344.6387">value object</text><line style="stroke:#181818;stroke-width:0.5;" x1="471" x2="677" y1="367.5" y2="367.5"/><ellipse cx="481" cy="381.1484" fill="#000000" rx="3" ry="3" style="stroke:#000000;stroke-width:1.0;"/><text fill="#000000" font-family="sans-serif" font-size="14" lengthAdjust="spacing" textLength="81" x="490" y="384.4951">nr : Integer</text><ellipse cx="481" cy="397.4453" fill="#000000" rx="3" ry="3" style="stroke:#000000;stroke-width:1.0;"/><text fill="#000000" font-family="sans-serif" font-size="14" lengthAdjust="spacing" textLength="127" x="490" y="400.792">firstname : String</text><ellipse cx="481" cy="413.7422" fill="#000000" rx="3" ry="3" style="stroke:#000000;stroke-width:1.0;"/><text fill="#000000" font-family="sans-serif" font-size="14" lengthAdjust="spacing" textLength="123" x="490" y="417.0889">lastname : String</text></g><!--MD5=[d0da0a299942266ebd64acf2b2e95fa4]
class Subject--><g id="elem_Subject"><rect codeLine="62" fill="#FFFFFF" height="76.2031" id="Subject" rx="2.5" ry="2.5" style="stroke:#181818;stroke-width:0.5;" width="194" x="477" y="970"/><rect fill="none" height="35.6094" rx="2.5" ry="2.5" style="stroke:none;stroke-width:0.5;" width="194" x="477" y="970"/><rect fill="none" height="2.5" style="stroke:none;stroke-width:0.5;" width="194" x="477" y="1003.1094"/><rect codeLine="62" fill="none" height="76.2031" id="Subject" rx="2.5" ry="2.5" style="stroke:#181818;stroke-width:0.5;" width="194" x="477" y="970"/><ellipse cx="533.25" cy="987.8047" fill="#FF7700" rx="11" ry="11" style="stroke:#181818;stroke-width:1.0;"/><path d="M532.0469,988.6797 L533.5,988.6797 L533.5,988.7891 C533.5,989.1953 533.5313,989.3516 533.6094,989.5078 C533.7656,989.7578 534.0469,989.9141 534.3438,989.9141 C534.5938,989.9141 534.8594,989.7734 535.0156,989.5547 C535.1406,989.3984 535.1719,989.2422 535.1719,988.7891 L535.1719,986.8672 C535.1719,986.7109 535.1719,986.6641 535.1563,986.5078 C535.0938,986.0391 534.7813,985.7266 534.3281,985.7266 C534.0781,985.7266 533.8125,985.8672 533.6406,986.0859 C533.5313,986.2578 533.5,986.4141 533.5,986.8672 L533.5,986.9922 L532.0469,986.9922 L532.0469,984.5859 L536.0313,984.5859 L536.0313,985.4453 C536.0313,985.8516 536.0625,986.0234 536.1406,986.1797 C536.3125,986.4297 536.5938,986.5859 536.875,986.5859 C537.1406,986.5859 537.4063,986.4453 537.5781,986.2266 C537.6875,986.0547 537.7188,985.9141 537.7188,985.4453 L537.7188,982.8984 L530.0938,982.8984 C529.6563,982.8984 529.5313,982.9141 529.375,983.0078 C529.125,983.1641 528.9688,983.4609 528.9688,983.7422 C528.9688,984.0234 529.1094,984.2734 529.3281,984.4453 C529.4844,984.5547 529.6719,984.5859 530.0938,984.5859 L530.3438,984.5859 L530.3438,991.1016 L530.0938,991.1016 C529.6875,991.1016 529.5313,991.1172 529.375,991.2266 C529.125,991.3984 528.9688,991.6641 528.9688,991.9609 C528.9688,992.2266 529.1094,992.4766 529.3281,992.6328 C529.4688,992.7578 529.7031,992.8047 530.0938,992.8047 L538.0938,992.8047 L538.0938,990.2266 C538.0938,989.7891 538.0625,989.6484 537.9844,989.4922 C537.8125,989.2422 537.5313,989.0859 537.25,989.0859 C536.9844,989.0859 536.7188,989.1953 536.5469,989.4453 C536.4375,989.6016 536.4063,989.7422 536.4063,990.2266 L536.4063,991.1016 L532.0469,991.1016 L532.0469,988.6797 Z " fill="#000000"/><text fill="#000000" font-family="sans-serif" font-size="12" font-style="italic" lengthAdjust="spacing" textLength="77" x="551.75" y="986.1387">«Document»</text><text fill="#888888" font-family="sans-serif" font-size="10" lengthAdjust="spacing" textLength="41" x="569.75" y="998.251">Subject</text><line style="stroke:#181818;stroke-width:0.5;" x1="478" x2="670" y1="1005.6094" y2="1005.6094"/><ellipse cx="488" cy="1019.2578" fill="#000000" rx="3" ry="3" style="stroke:#000000;stroke-width:1.0;"/><text fill="#000000" font-family="sans-serif" font-size="14" lengthAdjust="spacing" textLength="168" x="497" y="1022.6045">shortname : String «id»</text><ellipse cx="488" cy="1035.5547" fill="#000000" rx="3" ry="3" style="stroke:#000000;stroke-width:1.0;"/><text fill="#000000" font-family="sans-serif" font-size="14" lengthAdjust="spacing" textLength="128" x="497" y="1038.9014">longname : String</text></g><!--MD5=[61a83f88cb8b7d3a80bc8c481f3736bf]
class Teacher--><g id="elem_Teacher"><rect codeLine="67" fill="#FFFFFF" height="173.9844" id="Teacher" rx="2.5" ry="2.5" style="stroke:#181818;stroke-width:0.5;" width="272" x="7" y="830"/><rect fill="none" height="35.6094" rx="2.5" ry="2.5" style="stroke:none;stroke-width:0.5;" width="272" x="7" y="830"/><rect fill="none" height="2.5" style="stroke:none;stroke-width:0.5;" width="272" x="7" y="863.1094"/><rect codeLine="67" fill="none" height="173.9844" id="Teacher" rx="2.5" ry="2.5" style="stroke:#181818;stroke-width:0.5;" width="272" x="7" y="830"/><ellipse cx="102.25" cy="847.8047" fill="#FF7700" rx="11" ry="11" style="stroke:#181818;stroke-width:1.0;"/><path d="M101.0469,848.6797 L102.5,848.6797 L102.5,848.7891 C102.5,849.1953 102.5313,849.3516 102.6094,849.5078 C102.7656,849.7578 103.0469,849.9141 103.3438,849.9141 C103.5938,849.9141 103.8594,849.7734 104.0156,849.5547 C104.1406,849.3984 104.1719,849.2422 104.1719,848.7891 L104.1719,846.8672 C104.1719,846.7109 104.1719,846.6641 104.1563,846.5078 C104.0938,846.0391 103.7813,845.7266 103.3281,845.7266 C103.0781,845.7266 102.8125,845.8672 102.6406,846.0859 C102.5313,846.2578 102.5,846.4141 102.5,846.8672 L102.5,846.9922 L101.0469,846.9922 L101.0469,844.5859 L105.0313,844.5859 L105.0313,845.4453 C105.0313,845.8516 105.0625,846.0234 105.1406,846.1797 C105.3125,846.4297 105.5938,846.5859 105.875,846.5859 C106.1406,846.5859 106.4063,846.4453 106.5781,846.2266 C106.6875,846.0547 106.7188,845.9141 106.7188,845.4453 L106.7188,842.8984 L99.0938,842.8984 C98.6563,842.8984 98.5313,842.9141 98.375,843.0078 C98.125,843.1641 97.9688,843.4609 97.9688,843.7422 C97.9688,844.0234 98.1094,844.2734 98.3281,844.4453 C98.4844,844.5547 98.6719,844.5859 99.0938,844.5859 L99.3438,844.5859 L99.3438,851.1016 L99.0938,851.1016 C98.6875,851.1016 98.5313,851.1172 98.375,851.2266 C98.125,851.3984 97.9688,851.6641 97.9688,851.9609 C97.9688,852.2266 98.1094,852.4766 98.3281,852.6328 C98.4688,852.7578 98.7031,852.8047 99.0938,852.8047 L107.0938,852.8047 L107.0938,850.2266 C107.0938,849.7891 107.0625,849.6484 106.9844,849.4922 C106.8125,849.2422 106.5313,849.0859 106.25,849.0859 C105.9844,849.0859 105.7188,849.1953 105.5469,849.4453 C105.4375,849.6016 105.4063,849.7422 105.4063,850.2266 L105.4063,851.1016 L101.0469,851.1016 L101.0469,848.6797 Z " fill="#000000"/><text fill="#000000" font-family="sans-serif" font-size="12" font-style="italic" lengthAdjust="spacing" textLength="77" x="120.75" y="846.1387">«Document»</text><text fill="#888888" font-family="sans-serif" font-size="10" lengthAdjust="spacing" textLength="45" x="136.75" y="858.251">Teacher</text><line style="stroke:#181818;stroke-width:0.5;" x1="8" x2="278" y1="865.6094" y2="865.6094"/><ellipse cx="18" cy="879.2578" fill="#000000" rx="3" ry="3" style="stroke:#000000;stroke-width:1.0;"/><text fill="#000000" font-family="sans-serif" font-size="14" lengthAdjust="spacing" textLength="103" x="27" y="882.6045">id : String «id»</text><ellipse cx="18" cy="895.5547" fill="#000000" rx="3" ry="3" style="stroke:#000000;stroke-width:1.0;"/><text fill="#000000" font-family="sans-serif" font-size="14" lengthAdjust="spacing" textLength="152" x="27" y="898.9014">name : TeacherName</text><ellipse cx="18" cy="911.8516" fill="#000000" rx="3" ry="3" style="stroke:#000000;stroke-width:1.0;"/><text fill="#000000" font-family="sans-serif" font-size="14" lengthAdjust="spacing" textLength="117" x="27" y="915.1982">gender : Gender</text><text fill="#000000" font-family="sans-serif" font-size="14" lengthAdjust="spacing" textLength="170" x="27" y="931.4951">hoursPerWeek : Integer</text><text fill="#000000" font-family="sans-serif" font-size="14" lengthAdjust="spacing" textLength="170" x="27" y="947.792">lessonsFrom : TimeOnly</text><text fill="#000000" font-family="sans-serif" font-size="14" lengthAdjust="spacing" textLength="112" x="27" y="964.0889">salary : Decimal</text><ellipse cx="18" cy="977.0391" fill="#000000" rx="3" ry="3" style="stroke:#000000;stroke-width:1.0;"/><text fill="#000000" font-family="sans-serif" font-size="14" lengthAdjust="spacing" textLength="224" x="27" y="980.3857">homeOfficeDays : List&lt;String&gt;</text><ellipse cx="18" cy="993.3359" fill="#000000" rx="3" ry="3" style="stroke:#000000;stroke-width:1.0;"/><text fill="#000000" font-family="sans-serif" font-size="14" lengthAdjust="spacing" textLength="246" x="27" y="996.6826">canTeachSubjects : List&lt;Subject&gt;</text></g><!--MD5=[8eff04f78ce0710c24f77e98bfb4599e]
class TeacherName--><g id="elem_TeacherName"><rect codeLine="78" fill="#F1F1F1" height="105.1875" id="TeacherName" rx="2.5" ry="2.5" style="stroke:#181818;stroke-width:0.5;" width="208" x="1191" y="382.5"/><ellipse cx="1206" cy="398.5" fill="#ADD1B2" rx="11" ry="11" style="stroke:#181818;stroke-width:1.0;"/><path d="M1208.3438,394.1719 C1207.4063,393.7344 1206.8125,393.5938 1205.9375,393.5938 C1203.3125,393.5938 1201.3125,395.6719 1201.3125,398.3906 L1201.3125,399.5156 C1201.3125,402.0938 1203.4219,403.9844 1206.3125,403.9844 C1207.5313,403.9844 1208.6875,403.6875 1209.4375,403.1406 C1210.0156,402.7344 1210.3438,402.2813 1210.3438,401.8906 C1210.3438,401.4375 1209.9531,401.0469 1209.4844,401.0469 C1209.2656,401.0469 1209.0625,401.125 1208.875,401.3125 C1208.4219,401.7969 1208.4219,401.7969 1208.2344,401.8906 C1207.8125,402.1563 1207.125,402.2813 1206.3594,402.2813 C1204.3125,402.2813 1203.0156,401.1875 1203.0156,399.4844 L1203.0156,398.3906 C1203.0156,396.6094 1204.2656,395.2969 1206,395.2969 C1206.5781,395.2969 1207.1875,395.4531 1207.6563,395.7031 C1208.1406,395.9844 1208.3125,396.2031 1208.4063,396.6094 C1208.4688,397.0156 1208.5,397.1406 1208.6406,397.2656 C1208.7813,397.4063 1209.0156,397.5156 1209.2344,397.5156 C1209.5,397.5156 1209.7656,397.375 1209.9375,397.1563 C1210.0469,397 1210.0781,396.8125 1210.0781,396.3906 L1210.0781,394.9688 C1210.0781,394.5313 1210.0625,394.4063 1209.9688,394.25 C1209.8125,393.9844 1209.5313,393.8438 1209.2344,393.8438 C1208.9375,393.8438 1208.7344,393.9375 1208.5156,394.25 L1208.3438,394.1719 Z " fill="#000000"/><text fill="#000000" font-family="sans-serif" font-size="14" lengthAdjust="spacing" textLength="99" x="1220" y="403.3467">TeacherName</text><rect fill="#FFFFFF" height="15.9688" style="stroke:#181818;stroke-width:1.0;stroke-dasharray:2.0,2.0;" width="75" x="1327" y="379.5"/><text fill="#000000" font-family="sans-serif" font-size="12" font-style="italic" lengthAdjust="spacing" textLength="73" x="1328" y="391.6387">value object</text><line style="stroke:#181818;stroke-width:0.5;" x1="1192" x2="1398" y1="414.5" y2="414.5"/><ellipse cx="1202" cy="428.1484" fill="#000000" rx="3" ry="3" style="stroke:#000000;stroke-width:1.0;"/><text fill="#000000" font-family="sans-serif" font-size="14" lengthAdjust="spacing" textLength="135" x="1211" y="431.4951">shortname : String</text><ellipse cx="1202" cy="444.4453" fill="#000000" rx="3" ry="3" style="stroke:#000000;stroke-width:1.0;"/><text fill="#000000" font-family="sans-serif" font-size="14" lengthAdjust="spacing" textLength="127" x="1211" y="447.792">firstname : String</text><ellipse cx="1202" cy="460.7422" fill="#000000" rx="3" ry="3" style="stroke:#000000;stroke-width:1.0;"/><text fill="#000000" font-family="sans-serif" font-size="14" lengthAdjust="spacing" textLength="123" x="1211" y="464.0889">lastname : String</text><ellipse cx="1202" cy="477.0391" fill="#000000" rx="3" ry="3" style="stroke:#000000;stroke-width:1.0;"/><text fill="#000000" font-family="sans-serif" font-size="14" lengthAdjust="spacing" textLength="92" x="1211" y="480.3857">email: String</text></g><!--MD5=[9d35236b92952560f647498cf8a29acb]
class Term--><g id="elem_Term"><rect codeLine="85" fill="#FFFFFF" height="125.0938" id="Term" rx="2.5" ry="2.5" style="stroke:#181818;stroke-width:0.5;" width="185" x="1202.5" y="222.5"/><rect fill="none" height="35.6094" rx="2.5" ry="2.5" style="stroke:none;stroke-width:0.5;" width="185" x="1202.5" y="222.5"/><rect fill="none" height="2.5" style="stroke:none;stroke-width:0.5;" width="185" x="1202.5" y="255.6094"/><rect codeLine="85" fill="none" height="125.0938" id="Term" rx="2.5" ry="2.5" style="stroke:#181818;stroke-width:0.5;" width="185" x="1202.5" y="222.5"/><ellipse cx="1254.25" cy="240.3047" fill="#FF7700" rx="11" ry="11" style="stroke:#181818;stroke-width:1.0;"/><path d="M1253.0469,241.1797 L1254.5,241.1797 L1254.5,241.2891 C1254.5,241.6953 1254.5313,241.8516 1254.6094,242.0078 C1254.7656,242.2578 1255.0469,242.4141 1255.3438,242.4141 C1255.5938,242.4141 1255.8594,242.2734 1256.0156,242.0547 C1256.1406,241.8984 1256.1719,241.7422 1256.1719,241.2891 L1256.1719,239.3672 C1256.1719,239.2109 1256.1719,239.1641 1256.1563,239.0078 C1256.0938,238.5391 1255.7813,238.2266 1255.3281,238.2266 C1255.0781,238.2266 1254.8125,238.3672 1254.6406,238.5859 C1254.5313,238.7578 1254.5,238.9141 1254.5,239.3672 L1254.5,239.4922 L1253.0469,239.4922 L1253.0469,237.0859 L1257.0313,237.0859 L1257.0313,237.9453 C1257.0313,238.3516 1257.0625,238.5234 1257.1406,238.6797 C1257.3125,238.9297 1257.5938,239.0859 1257.875,239.0859 C1258.1406,239.0859 1258.4063,238.9453 1258.5781,238.7266 C1258.6875,238.5547 1258.7188,238.4141 1258.7188,237.9453 L1258.7188,235.3984 L1251.0938,235.3984 C1250.6563,235.3984 1250.5313,235.4141 1250.375,235.5078 C1250.125,235.6641 1249.9688,235.9609 1249.9688,236.2422 C1249.9688,236.5234 1250.1094,236.7734 1250.3281,236.9453 C1250.4844,237.0547 1250.6719,237.0859 1251.0938,237.0859 L1251.3438,237.0859 L1251.3438,243.6016 L1251.0938,243.6016 C1250.6875,243.6016 1250.5313,243.6172 1250.375,243.7266 C1250.125,243.8984 1249.9688,244.1641 1249.9688,244.4609 C1249.9688,244.7266 1250.1094,244.9766 1250.3281,245.1328 C1250.4688,245.2578 1250.7031,245.3047 1251.0938,245.3047 L1259.0938,245.3047 L1259.0938,242.7266 C1259.0938,242.2891 1259.0625,242.1484 1258.9844,241.9922 C1258.8125,241.7422 1258.5313,241.5859 1258.25,241.5859 C1257.9844,241.5859 1257.7188,241.6953 1257.5469,241.9453 C1257.4375,242.1016 1257.4063,242.2422 1257.4063,242.7266 L1257.4063,243.6016 L1253.0469,243.6016 L1253.0469,241.1797 Z " fill="#000000"/><text fill="#000000" font-family="sans-serif" font-size="12" font-style="italic" lengthAdjust="spacing" textLength="77" x="1272.75" y="238.6387">«Document»</text><text fill="#888888" font-family="sans-serif" font-size="10" lengthAdjust="spacing" textLength="29" x="1296.75" y="250.751">Term</text><line style="stroke:#181818;stroke-width:0.5;" x1="1203.5" x2="1386.5" y1="258.1094" y2="258.1094"/><ellipse cx="1213.5" cy="271.7578" fill="#000000" rx="3" ry="3" style="stroke:#000000;stroke-width:1.0;"/><text fill="#000000" font-family="sans-serif" font-size="14" lengthAdjust="spacing" textLength="103" x="1222.5" y="275.1045">id : String «id»</text><ellipse cx="1213.5" cy="288.0547" fill="#000000" rx="3" ry="3" style="stroke:#000000;stroke-width:1.0;"/><text fill="#000000" font-family="sans-serif" font-size="14" lengthAdjust="spacing" textLength="97" x="1222.5" y="291.4014">year : Integer</text><ellipse cx="1213.5" cy="304.3516" fill="#000000" rx="3" ry="3" style="stroke:#000000;stroke-width:1.0;"/><text fill="#000000" font-family="sans-serif" font-size="14" lengthAdjust="spacing" textLength="159" x="1222.5" y="307.6982">termType : TermType</text><ellipse cx="1213.5" cy="320.6484" fill="#000000" rx="3" ry="3" style="stroke:#000000;stroke-width:1.0;"/><text fill="#000000" font-family="sans-serif" font-size="14" lengthAdjust="spacing" textLength="115" x="1222.5" y="323.9951">start : DateOnly</text><ellipse cx="1213.5" cy="336.9453" fill="#000000" rx="3" ry="3" style="stroke:#000000;stroke-width:1.0;"/><text fill="#000000" font-family="sans-serif" font-size="14" lengthAdjust="spacing" textLength="107" x="1222.5" y="340.292">end : DateOnly</text></g><!--MD5=[900cfb6e59038aab71619b78b86ded6d]
class TermType--><g id="elem_TermType"><rect codeLine="94" fill="#F1F1F1" height="72.5938" id="TermType" rx="2.5" ry="2.5" style="stroke:#181818;stroke-width:0.5;" width="106" x="1537" y="248.5"/><ellipse cx="1552" cy="264.5" fill="#EB937F" rx="11" ry="11" style="stroke:#181818;stroke-width:1.0;"/><path d="M1550.7969,265.375 L1552.25,265.375 L1552.25,265.4844 C1552.25,265.8906 1552.2813,266.0469 1552.3594,266.2031 C1552.5156,266.4531 1552.7969,266.6094 1553.0938,266.6094 C1553.3438,266.6094 1553.6094,266.4688 1553.7656,266.25 C1553.8906,266.0938 1553.9219,265.9375 1553.9219,265.4844 L1553.9219,263.5625 C1553.9219,263.4063 1553.9219,263.3594 1553.9063,263.2031 C1553.8438,262.7344 1553.5313,262.4219 1553.0781,262.4219 C1552.8281,262.4219 1552.5625,262.5625 1552.3906,262.7813 C1552.2813,262.9531 1552.25,263.1094 1552.25,263.5625 L1552.25,263.6875 L1550.7969,263.6875 L1550.7969,261.2813 L1554.7813,261.2813 L1554.7813,262.1406 C1554.7813,262.5469 1554.8125,262.7188 1554.8906,262.875 C1555.0625,263.125 1555.3438,263.2813 1555.625,263.2813 C1555.8906,263.2813 1556.1563,263.1406 1556.3281,262.9219 C1556.4375,262.75 1556.4688,262.6094 1556.4688,262.1406 L1556.4688,259.5938 L1548.8438,259.5938 C1548.4063,259.5938 1548.2813,259.6094 1548.125,259.7031 C1547.875,259.8594 1547.7188,260.1563 1547.7188,260.4375 C1547.7188,260.7188 1547.8594,260.9688 1548.0781,261.1406 C1548.2344,261.25 1548.4219,261.2813 1548.8438,261.2813 L1549.0938,261.2813 L1549.0938,267.7969 L1548.8438,267.7969 C1548.4375,267.7969 1548.2813,267.8125 1548.125,267.9219 C1547.875,268.0938 1547.7188,268.3594 1547.7188,268.6563 C1547.7188,268.9219 1547.8594,269.1719 1548.0781,269.3281 C1548.2188,269.4531 1548.4531,269.5 1548.8438,269.5 L1556.8438,269.5 L1556.8438,266.9219 C1556.8438,266.4844 1556.8125,266.3438 1556.7344,266.1875 C1556.5625,265.9375 1556.2813,265.7813 1556,265.7813 C1555.7344,265.7813 1555.4688,265.8906 1555.2969,266.1406 C1555.1875,266.2969 1555.1563,266.4375 1555.1563,266.9219 L1555.1563,267.7969 L1550.7969,267.7969 L1550.7969,265.375 Z " fill="#000000"/><text fill="#000000" font-family="sans-serif" font-size="14" lengthAdjust="spacing" textLength="74" x="1566" y="269.3467">TermType</text><line style="stroke:#181818;stroke-width:0.5;" x1="1538" x2="1642" y1="280.5" y2="280.5"/><text fill="#000000" font-family="sans-serif" font-size="14" lengthAdjust="spacing" textLength="49" x="1543" y="297.4951">Winter</text><text fill="#000000" font-family="sans-serif" font-size="14" lengthAdjust="spacing" textLength="60" x="1543" y="313.792">Summer</text></g><!--MD5=[d90bdde1f16ace673e2e2a24731b7f27]
link Class to Term--><g id="link_Class_Term"><path codeLine="99" d="M1043.7876,342.2282 C1043.7876,342.2282 1144.88,319.106 1189.69,308.858 " fill="none" id="Class-Term" style="stroke:#181818;stroke-width:1.0;"/><polygon fill="#181818" points="1202.41,305.949,1192.7445,304.0574,1197.536,307.0643,1194.5291,311.8558,1202.41,305.949" style="stroke:#181818;stroke-width:1.0;"/><line style="stroke:#181818;stroke-width:1.0;" x1="1197.536" x2="1189.735" y1="307.0643" y2="308.8475"/><polygon fill="none" points="1032.09,344.905,1038.8311,347.4658,1043.7876,342.2282,1037.0465,339.6674,1032.09,344.905" style="stroke:#181818;stroke-width:1.0;"/><polygon fill="#000000" points="1098.3741,307.4516,1088.9015,306.6033,1090.212,312.3332,1098.3741,307.4516" style="stroke:#000000;stroke-width:1.0;"/><text fill="#000000" font-family="sans-serif" font-size="13" lengthAdjust="spacing" textLength="31" x="1102.5" y="313.0669">term</text></g><!--MD5=[268ba674a1476190d693b689a0d791e1]
link Class to TeacherName--><g id="link_Class_TeacherName"><path codeLine="100" d="M1043.9192,392.4365 C1043.9192,392.4365 1135.89,408.088 1178.04,415.263 " fill="none" id="Class-TeacherName" style="stroke:#181818;stroke-width:1.0;"/><polygon fill="#181818" points="1190.93,417.456,1182.7306,411.9998,1186.0012,416.6154,1181.3856,419.886,1190.93,417.456" style="stroke:#181818;stroke-width:1.0;"/><line style="stroke:#181818;stroke-width:1.0;" x1="1186.0012" x2="1178.115" y1="416.6154" y2="415.2745"/><polygon fill="#181818" points="1032.09,390.419,1037.3321,395.3708,1043.9192,392.4365,1038.6771,387.4847,1032.09,390.419" style="stroke:#181818;stroke-width:1.0;"/><polygon fill="#000000" points="1071.9291,389.4053,1063.5054,384.9905,1062.5192,390.785,1071.9291,389.4053" style="stroke:#000000;stroke-width:1.0;"/><text fill="#000000" font-family="sans-serif" font-size="13" lengthAdjust="spacing" textLength="84" x="1076" y="393.0669">classTeacher</text></g><!--MD5=[b30ad649c736b186f5d6a4b321ac8e23]
link Exam to StudentName--><g id="link_Exam_StudentName"><path codeLine="102" d="M269.2095,290.7582 C269.2095,290.7582 296.219,302.993 309,308 C356.408,326.571 410.391,342.212 457.136,354.121 " fill="none" id="Exam-StudentName" style="stroke:#181818;stroke-width:1.0;"/><polygon fill="#181818" points="469.8,357.302,462.0457,351.2299,464.9506,356.0839,460.0967,358.9889,469.8,357.302" style="stroke:#181818;stroke-width:1.0;"/><line style="stroke:#181818;stroke-width:1.0;" x1="464.9506" x2="457.1915" y1="356.0839" y2="354.135"/><polygon fill="#181818" points="258.378,285.593,262.072,291.7861,269.2095,290.7582,265.5155,284.5651,258.378,285.593" style="stroke:#181818;stroke-width:1.0;"/><polygon fill="#000000" points="352.2379,301.1639,344.6059,295.4891,342.728,301.0589,352.2379,301.1639" style="stroke:#000000;stroke-width:1.0;"/><text fill="#000000" font-family="sans-serif" font-size="13" lengthAdjust="spacing" textLength="49" x="356.5" y="304.0669">student</text></g><!--MD5=[479bb2afbf1ee3c0ef10851a60d58773]
link Exam to TeacherName--><g id="link_Exam_TeacherName"><path codeLine="103" d="M269.7575,174.9326 C269.7575,174.9326 296.484,168.186 309,166 C343.574,159.961 674.886,162.591 678,163 C898.302,191.912 994.092,145.335 1161,292 C1187.35,315.154 1168.89,337.767 1191,365 C1193.22,367.738 1195.58,370.412 1198.05,373.017 " fill="none" id="Exam-TeacherName" style="stroke:#181818;stroke-width:1.0;"/><polygon fill="#181818" points="1207.41,382.152,1203.759,373.0049,1203.8302,378.6613,1198.1738,378.7325,1207.41,382.152" style="stroke:#181818;stroke-width:1.0;"/><line style="stroke:#181818;stroke-width:1.0;" x1="1203.8302" x2="1198.105" y1="378.6613" y2="373.072"/><polygon fill="#181818" points="258.212,178.204,265.0752,180.4168,269.7575,174.9326,262.8943,172.7198,258.212,178.204" style="stroke:#181818;stroke-width:1.0;"/><polygon fill="#000000" points="717.8899,160.6098,709.6573,155.848,708.4307,161.5965,717.8899,160.6098" style="stroke:#000000;stroke-width:1.0;"/><text fill="#000000" font-family="sans-serif" font-size="13" lengthAdjust="spacing" textLength="49" x="722" y="164.0669">teacher</text></g><!--MD5=[a929898c77b6a891e8823436c525ce8a]
link Exam to Class--><g id="link_Exam_Class"><path codeLine="104" d="M269.8984,200.3497 C269.8984,200.3497 608.885,172.996 772,239 C792.893,247.454 812.642,260.415 830.434,274.972 " fill="none" id="Exam-Class" style="stroke:#181818;stroke-width:1.0;"/><polygon fill="#181818" points="840.678,283.706,836.425,274.8228,836.8734,280.4618,831.2343,280.9102,840.678,283.706" style="stroke:#181818;stroke-width:1.0;"/><line style="stroke:#181818;stroke-width:1.0;" x1="836.8734" x2="830.785" y1="280.4618" y2="275.271"/><polygon fill="none" points="258.002,201.923,264.4746,205.1018,269.8984,200.3497,263.4258,197.1709,258.002,201.923" style="stroke:#181818;stroke-width:1.0;"/><polygon fill="#000000" points="536.4563,180.2262,527.8781,176.1194,527.1025,181.9458,536.4563,180.2262" style="stroke:#000000;stroke-width:1.0;"/><text fill="#000000" font-family="sans-serif" font-size="13" lengthAdjust="spacing" textLength="80" x="540.5" y="184.0669">currentClass</text></g><!--MD5=[a929898c77b6a891e8823436c525ce8a]
link Exam to Class--><g id="link_Exam_Class"><path codeLine="105" d="M269.8915,243.1255 C269.8915,243.1255 539.236,290.089 678,318 C714.037,325.249 753.011,333.678 788.782,341.653 " fill="none" id="Exam-Class-1" style="stroke:#181818;stroke-width:1.0;"/><polygon fill="#181818" points="801.804,344.567,793.8953,338.6974,796.9248,343.4747,792.1475,346.5042,801.804,344.567" style="stroke:#181818;stroke-width:1.0;"/><line style="stroke:#181818;stroke-width:1.0;" x1="796.9248" x2="789.118" y1="343.4747" y2="341.728"/><polygon fill="none" points="258.063,241.104,263.3034,246.0576,269.8915,243.1255,264.6511,238.1719,258.063,241.104" style="stroke:#181818;stroke-width:1.0;"/><polygon fill="#000000" points="540.9122,272.4991,532.5742,267.9245,531.4777,273.6991,540.9122,272.4991" style="stroke:#000000;stroke-width:1.0;"/><text fill="#000000" font-family="sans-serif" font-size="13" lengthAdjust="spacing" textLength="71" x="545" y="276.0669">examClass</text></g><!--MD5=[f064bfdd27fd70a6204b88560e3c11e6]
link Student to StudentName--><g id="link_Student_StudentName"><path codeLine="107" d="M257.5061,479.095 C257.5061,479.095 292.089,458.789 309,451 C355.597,429.539 409.91,413.543 457.115,402.224 " fill="none" id="Student-StudentName" style="stroke:#181818;stroke-width:1.0;"/><polygon fill="#181818" points="469.909,399.228,460.234,397.3856,465.0407,400.3681,462.0582,405.1749,469.909,399.228" style="stroke:#181818;stroke-width:1.0;"/><line style="stroke:#181818;stroke-width:1.0;" x1="465.0407" x2="457.2515" y1="400.3681" y2="402.192"/><polygon fill="#181818" points="247.359,485.501,254.5679,485.6803,257.5061,479.095,250.2972,478.9156,247.359,485.501" style="stroke:#181818;stroke-width:1.0;"/><polygon fill="#000000" points="358.166,396.7695,348.669,397.2775,350.7814,402.7627,358.166,396.7695" style="stroke:#000000;stroke-width:1.0;"/><text fill="#000000" font-family="sans-serif" font-size="13" lengthAdjust="spacing" textLength="37" x="362.5" y="403.0669">name</text></g><!--MD5=[ff546ffb5c71ad99af99f528ed102e6d]
link Student to Class--><g id="link_Student_Class"><path codeLine="108" d="M259.0222,543.6113 C259.0222,543.6113 601.089,480.63 678,459 C714.703,448.678 753.79,435.277 789.456,422.06 " fill="none" id="Student-Class" style="stroke:#181818;stroke-width:1.0;"/><polygon fill="#181818" points="801.919,417.397,792.088,416.8036,797.2359,419.1487,794.8908,424.2966,801.919,417.397" style="stroke:#181818;stroke-width:1.0;"/><line style="stroke:#181818;stroke-width:1.0;" x1="797.2359" x2="789.743" y1="419.1487" y2="421.9525"/><polygon fill="none" points="247.212,545.737,253.8257,548.6109,259.0222,543.6113,252.4085,540.7374,247.212,545.737" style="stroke:#181818;stroke-width:1.0;"/><polygon fill="#000000" points="536.3737,449.4496,526.9007,448.6053,528.2136,454.3346,536.3737,449.4496" style="stroke:#000000;stroke-width:1.0;"/><text fill="#000000" font-family="sans-serif" font-size="13" lengthAdjust="spacing" textLength="80" x="540.5" y="455.0669">currentClass</text></g><!--MD5=[ff546ffb5c71ad99af99f528ed102e6d]
link Student to Class--><g id="link_Student_Class"><path codeLine="109" d="M247.143,572.347 C356.964,577.758 534.372,576.431 678,528 C722.803,512.892 767.307,487.201 805.497,460.927 " fill="none" id="Student-to-Class" style="stroke:#181818;stroke-width:1.0;"/><polygon fill="#181818" points="809.646,458.053,799.97,459.8899,805.5359,460.9002,804.5255,466.4661,809.646,458.053" style="stroke:#181818;stroke-width:1.0;"/><polygon fill="#000000" points="537.9033,518.5879,528.458,517.4759,529.6083,523.2401,537.9033,518.5879" style="stroke:#000000;stroke-width:1.0;"/><text fill="#000000" font-family="sans-serif" font-size="13" lengthAdjust="spacing" textLength="77" x="542" y="524.0669">classHistory</text></g><!--MD5=[db5fb6e4a6db2f4bffdef83a600ca08f]
link Student to Gender--><g id="link_Student_Gender"><path codeLine="110" d="M257.2265,639.6285 C257.2265,639.6285 292.417,661.974 309,672 C380.785,715.403 465.895,761.939 519.676,790.759 " fill="none" id="Student-Gender" style="stroke:#181818;stroke-width:1.0;"/><polygon fill="#181818" points="531.322,796.985,525.2707,789.2144,526.9125,794.6278,521.4992,796.2696,531.322,796.985" style="stroke:#181818;stroke-width:1.0;"/><line style="stroke:#181818;stroke-width:1.0;" x1="526.9125" x2="519.857" y1="794.6278" y2="790.8555"/><polygon fill="none" points="247.141,633.126,250.0162,639.7391,257.2265,639.6285,254.3513,633.0154,247.141,633.126" style="stroke:#181818;stroke-width:1.0;"/><polygon fill="#000000" points="353.8329,666.0615,347.4612,659.001,344.528,664.0947,353.8329,666.0615" style="stroke:#000000;stroke-width:1.0;"/><text fill="#000000" font-family="sans-serif" font-size="13" lengthAdjust="spacing" textLength="45" x="358.5" y="668.0669">gender</text></g><!--MD5=[00e992dca08112ad23f8b9656149c03e]
link Student to Address--><g id="link_Student_Address"><path codeLine="111" d="M258.5643,596.8471 C258.5643,596.8471 413.97,641.404 478.333,659.858 " fill="none" id="Student-Address" style="stroke:#181818;stroke-width:1.0;"/><polygon fill="#181818" points="490.911,663.464,483.3619,657.1386,486.1046,662.086,481.1572,664.8288,490.911,663.464" style="stroke:#181818;stroke-width:1.0;"/><line style="stroke:#181818;stroke-width:1.0;" x1="486.1046" x2="478.415" y1="662.086" y2="659.881"/><polygon fill="#181818" points="247.029,593.54,251.6943,599.0386,258.5643,596.8471,253.899,591.3485,247.029,593.54" style="stroke:#181818;stroke-width:1.0;"/><polygon fill="#000000" points="351.3063,606.9445,343.4216,601.6264,341.8016,607.2766,351.3063,606.9445" style="stroke:#000000;stroke-width:1.0;"/><text fill="#000000" font-family="sans-serif" font-size="13" lengthAdjust="spacing" textLength="51" x="355.5" y="610.0669">address</text></g><!--MD5=[52a1ee40b2b55365a058ee4d6d5b595e]
link Teacher to TeacherName--><g id="link_Teacher_TeacherName"><path codeLine="113" d="M291.0333,928.5519 C291.0333,928.5519 553.413,926.053 678,881 C909.779,797.183 1131.07,598.458 1233.93,496.97 " fill="none" id="Teacher-TeacherName" style="stroke:#181818;stroke-width:1.0;"/><polygon fill="#181818" points="1243.22,487.756,1234.0142,491.2565,1239.671,491.278,1239.6495,496.9349,1243.22,487.756" style="stroke:#181818;stroke-width:1.0;"/><line style="stroke:#181818;stroke-width:1.0;" x1="1239.671" x2="1233.995" y1="491.278" y2="496.9135"/><polygon fill="#181818" points="279.041,928.122,284.8938,932.3344,291.0333,928.5519,285.1804,924.3395,279.041,928.122" style="stroke:#181818;stroke-width:1.0;"/><polygon fill="#000000" points="723.5464,833.4854,714.0987,834.5776,716.5451,839.9222,723.5464,833.4854" style="stroke:#000000;stroke-width:1.0;"/><text fill="#000000" font-family="sans-serif" font-size="13" lengthAdjust="spacing" textLength="37" x="728" y="840.0669">name</text></g><!--MD5=[9dc553486cf635a220e347306adddb21]
link Teacher to Gender--><g id="link_Teacher_Gender"><path codeLine="114" d="M290.8478,883.4552 C290.8478,883.4552 461.399,844.494 518.189,831.521 " fill="none" id="Teacher-Gender" style="stroke:#181818;stroke-width:1.0;"/><polygon fill="#181818" points="531.16,828.558,521.4954,826.662,526.2855,829.6711,523.2764,834.4613,531.16,828.558" style="stroke:#181818;stroke-width:1.0;"/><line style="stroke:#181818;stroke-width:1.0;" x1="526.2855" x2="518.486" y1="829.6711" y2="831.453"/><polygon fill="none" points="279.149,886.127,285.889,888.6907,290.8478,883.4552,284.1078,880.8915,279.149,886.127" style="stroke:#181818;stroke-width:1.0;"/><polygon fill="#000000" points="354.3744,840.4529,344.902,839.6021,346.211,845.3324,354.3744,840.4529" style="stroke:#000000;stroke-width:1.0;"/><text fill="#000000" font-family="sans-serif" font-size="13" lengthAdjust="spacing" textLength="45" x="358.5" y="846.0669">gender</text></g><!--MD5=[69c12b88fce068bf4d3498ad8f31ef7b]
link Teacher to Subject--><g id="link_Teacher_Subject"><path codeLine="115" d="M279.318,953.1364 C289.342,955.5456 299.317,957.8611 309,960 C362.433,971.8026 422.414,982.8801 471.684,991.4129 " fill="none" id="Teacher-to-Subject" style="stroke:#181818;stroke-width:1.0;"/><polygon fill="#181818" points="476.722,992.2829,468.5346,986.8088,471.795,991.4315,467.1723,994.692,476.722,992.2829" style="stroke:#181818;stroke-width:1.0;"/><polygon fill="#000000" points="318.9039,952.5422,310.6062,947.8946,309.4592,953.6594,318.9039,952.5422" style="stroke:#000000;stroke-width:1.0;"/><text fill="#000000" font-family="sans-serif" font-size="13" lengthAdjust="spacing" textLength="116" x="323" y="956.0669">canTeachSubjects</text></g><!--MD5=[f36c9f04e4e8afc572bde58ad455f0fb]
link Term to TermType--><g id="link_Term_TermType"><path codeLine="117" d="M1399.5,285 C1399.5,285 1487.44,285 1523.59,285 " fill="none" id="Term-TermType" style="stroke:#181818;stroke-width:1.0;"/><polygon fill="#181818" points="1536.94,285,1527.94,281,1531.94,285,1527.94,289,1536.94,285" style="stroke:#181818;stroke-width:1.0;"/><line style="stroke:#181818;stroke-width:1.0;" x1="1531.94" x2="1523.94" y1="285" y2="285"/><polygon fill="none" points="1387.5,285,1393.5,289,1399.5,285,1393.5,281,1387.5,285" style="stroke:#181818;stroke-width:1.0;"/><polygon fill="#000000" points="1439,276.5664,1429.9549,273.6275,1429.9549,279.5053,1439,276.5664" style="stroke:#000000;stroke-width:1.0;"/><text fill="#000000" font-family="sans-serif" font-size="13" lengthAdjust="spacing" textLength="63" x="1443" y="281.0669">termType</text></g><!--MD5=[9696212ca017be822d8a0aba32d7771f]
@startuml
hide empty methods
left to right direction

class Address <value object> {
    *street : String
    *streetNr : String
    *City : String
    *Zip : Integer
} 

entity Class <<(E,#FF7700) Document>> {
    *id : String <<id>>
    *shortname : String
    *term : Term
    *department : String
    *educationLevel : Integer
    *letter : String
    *classTeacher : TeacherName
    roomShortname : String
}

entity Exam <<(E,#FF7700) Document>> {
    *id : ObjectId <<id, generated>>
    *student : StudentName
    *teacher : TeacherName
    *currentClass : Class
    *examClass : Class
    *subject : Subject
    *dateTime : DateTime
    *pointsMax : Integer
    *points : Integer
    *grade : Integer
}

enum Gender {
    Female
    Male
    Other
}

entity Room <<(E,#FF7700) Document>> {
    *shortname : String <<id>>
    capacity : Integer
}

entity  Student <<(E,#FF7700) Document>> {
    *id : Integer <<id>>
    *name : StudentName
    currentClass : Class
    *gender : Gender
    *address : Address
    *dateOfBirth : DateOnly
    *classHistory : List<Class>
}

class StudentName <value object> {
    *nr : Integer
    *firstname : String
    *lastname : String
}

entity Subject <<(E,#FF7700) Document>> {
    *shortname : String <<id>>
    *longname : String
}

entity Teacher <<(E,#FF7700) Document>> {
    *id : String <<id>>
    *name : TeacherName
    *gender : Gender
    hoursPerWeek : Integer
    lessonsFrom : TimeOnly
    salary : Decimal
    *homeOfficeDays : List<String>
    *canTeachSubjects : List<Subject>
}

class TeacherName <value object> {
    *shortname : String
    *firstname : String
    *lastname : String
    *email: String
}

entity Term <<(E,#FF7700) Document>> {
    *id : String <<id>>
    *year : Integer
    *termType : TermType
    *start : DateOnly
    *end : DateOnly
}


enum TermType {
    Winter
    Summer
}

Class o- -> Term : > term
Class *- -> TeacherName : > classTeacher

Exam *- -> StudentName  : > student
Exam *- -> TeacherName  : > teacher
Exam o- - -> Class  : > currentClass
Exam o- - -> Class  : > examClass

Student *- -> StudentName  : > name
Student o- - -> Class : > currentClass
Student - - -> Class : > classHistory
Student o- -> Gender : > gender
Student *- -> Address : > address

Teacher *- -> TeacherName : > name
Teacher o- -> Gender : > gender
Teacher - -> Subject : > canTeachSubjects

Term o- -> TermType : > termType
@enduml

PlantUML version 1.2022.10beta1(Unknown compile time)
(GPL source distribution)
Java Runtime: Java(TM) SE Runtime Environment
JVM: Java HotSpot(TM) 64-Bit Server VM
Default Encoding: UTF-8
Language: en
Country: US
--></g></svg>