<?xml version="1.0" encoding="UTF-8" standalone="no"?><svg xmlns="http://www.w3.org/2000/svg" xmlns:xlink="http://www.w3.org/1999/xlink" contentStyleType="text/css" height="744px" preserveAspectRatio="none" style="width:1061px;height:744px;" version="1.1" viewBox="0 0 1061 744" width="1061px" zoomAndPan="magnify"><defs><style type="text/css"><![CDATA[*.f_ffffff_000000 {fill:#ffffff;}*.s_181818_e7e7e7 {stroke:#181818;}*.f_000000_ffffff {fill:#000000;}*.f_888888_777777 {fill:#888888;}*.f_f1f1f1_070707 {fill:#f1f1f1;}*.f_add1b2_2e5233 {fill:#add1b2;}*.f_181818_e7e7e7 {fill:#181818;}@media (prefers-color-scheme:dark) {*.f_ffffff_000000 {fill:#000000;}*.s_181818_e7e7e7 {stroke:#e7e7e7;}*.f_000000_ffffff {fill:#ffffff;}*.f_888888_777777 {fill:#777777;}*.f_f1f1f1_070707 {fill:#070707;}*.f_add1b2_2e5233 {fill:#2e5233;}*.f_181818_e7e7e7 {fill:#e7e7e7;}}]]></style></defs><g><!--MD5=[d6181cb537bdc20c0a3007a98a56832d]
class Student--><g id="elem_Student"><rect class="f_ffffff_000000 s_181818_e7e7e7" codeLine="1" height="230.875" id="Student" rx="2.5" ry="2.5" style="stroke-width:0.5;" width="426" x="628.5" y="330"/><ellipse cx="800.75" cy="347.8047" fill="#FF7700" rx="11" ry="11" style="stroke:#A80036;stroke-width:1.0;"/><path class="f_000000_ffffff" d="M798.2656,351.1016 C797.6094,351.1016 797.2188,351.4141 797.2188,351.9609 C797.2188,352.2109 797.3594,352.4766 797.5781,352.6328 C797.7344,352.7578 797.9531,352.8047 798.3594,352.8047 L801.8281,352.8047 C803.3125,352.8047 804.3281,352.4141 805.1563,351.5234 C805.9375,350.7109 806.3438,349.6641 806.3438,348.4141 L806.3438,347.6172 C806.3438,344.9453 804.4531,342.8984 801.9688,342.8984 L798.3594,342.8984 C797.9063,342.8984 797.7813,342.9141 797.625,343.0078 C797.375,343.1641 797.2188,343.4609 797.2188,343.7422 C797.2188,344.2891 797.5938,344.5859 798.2656,344.5859 L798.2656,351.1016 Z M799.9531,351.1016 L799.9531,344.5859 L801.8281,344.5859 C802.7344,344.5859 803.375,344.8672 803.8906,345.4609 C804.375,346.0391 804.6563,346.7891 804.6563,347.5859 L804.6563,348.3672 C804.6563,349.2422 804.4219,349.8359 803.9531,350.3516 C803.4219,350.8984 802.8594,351.1016 801.8438,351.1016 L799.9531,351.1016 Z "/><text fill="#000000" font-family="sans-serif" font-size="12" font-style="italic" lengthAdjust="spacing" textLength="77" x="819.25" y="346.1387">«Document»</text><text class="f_888888_777777" font-family="sans-serif" font-size="10" lengthAdjust="spacing" textLength="43" x="836.25" y="358.251">Student</text><line class="s_181818_e7e7e7" style="stroke-width:0.5;" x1="629.5" x2="1053.5" y1="365.6094" y2="365.6094"/><text class="f_000000_ffffff" font-family="sans-serif" font-size="14" lengthAdjust="spacing" textLength="61" x="634.5" y="382.6045">Id : Long</text><text class="f_000000_ffffff" font-family="sans-serif" font-size="14" lengthAdjust="spacing" textLength="129" x="634.5" y="398.9014">Firstname : String</text><text class="f_000000_ffffff" font-family="sans-serif" font-size="14" lengthAdjust="spacing" textLength="127" x="634.5" y="415.1982">Lastname : String</text><text class="f_000000_ffffff" font-family="sans-serif" font-size="14" lengthAdjust="spacing" textLength="172" x="634.5" y="431.4951">DateOfBirth : DateTime</text><text class="f_000000_ffffff" font-family="sans-serif" font-size="14" lengthAdjust="spacing" textLength="141" x="634.5" y="447.792">SchoolClass : String</text><text class="f_000000_ffffff" font-family="sans-serif" font-size="14" lengthAdjust="spacing" textLength="77" x="634.5" y="464.0889">Guid : Guid</text><text class="f_000000_ffffff" font-family="sans-serif" font-size="14" lengthAdjust="spacing" textLength="252" x="634.5" y="480.3857">Grades : Dictionary&lt;string, Grade&gt;</text><line class="s_181818_e7e7e7" style="stroke-width:1.0;" x1="629.5" x2="1053.5" y1="487.6875" y2="487.6875"/><text class="f_000000_ffffff" font-family="sans-serif" font-size="14" lengthAdjust="spacing" textLength="255" x="634.5" y="504.6826">GetNegativeGrades() : List&lt;Grade&gt;</text><text class="f_000000_ffffff" font-family="sans-serif" font-size="14" lengthAdjust="spacing" textLength="365" x="634.5" y="520.9795">CalcAufstieg(Exams: List&lt;GradedExam&gt;) : Boolean</text><text class="f_000000_ffffff" font-family="sans-serif" font-size="14" lengthAdjust="spacing" textLength="414" x="634.5" y="537.2764">GenerateExam(subject : String, teacher : Teacher) : Exam</text><text class="f_000000_ffffff" font-family="sans-serif" font-size="14" lengthAdjust="spacing" textLength="198" x="634.5" y="553.5732">UpsertGrade(grade : Grade)</text></g><!--MD5=[64e7a81d370390ac66d73872e4f36773]
class Grade--><g id="elem_Grade"><rect class="f_f1f1f1_070707 s_181818_e7e7e7" codeLine="16" height="96.8906" id="Grade" rx="2.5" ry="2.5" style="stroke-width:0.5;" width="157" x="526" y="631"/><ellipse class="f_add1b2_2e5233 s_181818_e7e7e7" cx="578.75" cy="647" rx="11" ry="11" style="stroke-width:1.0;"/><path class="f_000000_ffffff" d="M581.0938,642.6719 C580.1563,642.2344 579.5625,642.0938 578.6875,642.0938 C576.0625,642.0938 574.0625,644.1719 574.0625,646.8906 L574.0625,648.0156 C574.0625,650.5938 576.1719,652.4844 579.0625,652.4844 C580.2813,652.4844 581.4375,652.1875 582.1875,651.6406 C582.7656,651.2344 583.0938,650.7813 583.0938,650.3906 C583.0938,649.9375 582.7031,649.5469 582.2344,649.5469 C582.0156,649.5469 581.8125,649.625 581.625,649.8125 C581.1719,650.2969 581.1719,650.2969 580.9844,650.3906 C580.5625,650.6563 579.875,650.7813 579.1094,650.7813 C577.0625,650.7813 575.7656,649.6875 575.7656,647.9844 L575.7656,646.8906 C575.7656,645.1094 577.0156,643.7969 578.75,643.7969 C579.3281,643.7969 579.9375,643.9531 580.4063,644.2031 C580.8906,644.4844 581.0625,644.7031 581.1563,645.1094 C581.2188,645.5156 581.25,645.6406 581.3906,645.7656 C581.5313,645.9063 581.7656,646.0156 581.9844,646.0156 C582.25,646.0156 582.5156,645.875 582.6875,645.6563 C582.7969,645.5 582.8281,645.3125 582.8281,644.8906 L582.8281,643.4688 C582.8281,643.0313 582.8125,642.9063 582.7188,642.75 C582.5625,642.4844 582.2813,642.3438 581.9844,642.3438 C581.6875,642.3438 581.4844,642.4375 581.2656,642.75 L581.0938,642.6719 Z "/><text class="f_000000_ffffff" font-family="sans-serif" font-size="14" lengthAdjust="spacing" textLength="43" x="599.25" y="651.8467">Grade</text><line class="s_181818_e7e7e7" style="stroke-width:0.5;" x1="527" x2="682" y1="663" y2="663"/><text class="f_000000_ffffff" font-family="sans-serif" font-size="14" lengthAdjust="spacing" textLength="105" x="532" y="679.9951">Value : Integer</text><text class="f_000000_ffffff" font-family="sans-serif" font-size="14" lengthAdjust="spacing" textLength="112" x="532" y="696.292">Subject : String</text><text class="f_000000_ffffff" font-family="sans-serif" font-size="14" lengthAdjust="spacing" textLength="145" x="532" y="712.5889">Updated : DateTime</text><line class="s_181818_e7e7e7" style="stroke-width:0.5;" x1="527" x2="682" y1="719.8906" y2="719.8906"/></g><!--MD5=[61a83f88cb8b7d3a80bc8c481f3736bf]
class Teacher--><g id="elem_Teacher"><rect class="f_ffffff_000000 s_181818_e7e7e7" codeLine="21" height="116.7969" id="Teacher" rx="2.5" ry="2.5" style="stroke-width:0.5;" width="141" x="65" y="621"/><ellipse cx="96.2" cy="638.8047" fill="#FF7700" rx="11" ry="11" style="stroke:#A80036;stroke-width:1.0;"/><path class="f_000000_ffffff" d="M93.7156,642.1016 C93.0594,642.1016 92.6688,642.4141 92.6688,642.9609 C92.6688,643.2109 92.8094,643.4766 93.0281,643.6328 C93.1844,643.7578 93.4031,643.8047 93.8094,643.8047 L97.2781,643.8047 C98.7625,643.8047 99.7781,643.4141 100.6063,642.5234 C101.3875,641.7109 101.7938,640.6641 101.7938,639.4141 L101.7938,638.6172 C101.7938,635.9453 99.9031,633.8984 97.4188,633.8984 L93.8094,633.8984 C93.3563,633.8984 93.2313,633.9141 93.075,634.0078 C92.825,634.1641 92.6688,634.4609 92.6688,634.7422 C92.6688,635.2891 93.0438,635.5859 93.7156,635.5859 L93.7156,642.1016 Z M95.4031,642.1016 L95.4031,635.5859 L97.2781,635.5859 C98.1844,635.5859 98.825,635.8672 99.3406,636.4609 C99.825,637.0391 100.1063,637.7891 100.1063,638.5859 L100.1063,639.3672 C100.1063,640.2422 99.8719,640.8359 99.4031,641.3516 C98.8719,641.8984 98.3094,642.1016 97.2938,642.1016 L95.4031,642.1016 Z "/><text fill="#000000" font-family="sans-serif" font-size="12" font-style="italic" lengthAdjust="spacing" textLength="77" x="111.8" y="637.1387">«Document»</text><text class="f_888888_777777" font-family="sans-serif" font-size="10" lengthAdjust="spacing" textLength="45" x="127.8" y="649.251">Teacher</text><line class="s_181818_e7e7e7" style="stroke-width:0.5;" x1="66" x2="205" y1="656.6094" y2="656.6094"/><text class="f_000000_ffffff" font-family="sans-serif" font-size="14" lengthAdjust="spacing" textLength="70" x="71" y="673.6045">Id : String</text><text class="f_000000_ffffff" font-family="sans-serif" font-size="14" lengthAdjust="spacing" textLength="129" x="71" y="689.9014">Firstname : String</text><text class="f_000000_ffffff" font-family="sans-serif" font-size="14" lengthAdjust="spacing" textLength="127" x="71" y="706.1982">Lastname : String</text><text class="f_000000_ffffff" font-family="sans-serif" font-size="14" lengthAdjust="spacing" textLength="103" x="71" y="722.4951">Email : String?</text><line class="s_181818_e7e7e7" style="stroke-width:0.5;" x1="66" x2="205" y1="729.7969" y2="729.7969"/></g><!--MD5=[4ec975f1641a34b3290014bf4027a644]
class Exam--><g id="elem_Exam"><rect class="f_ffffff_000000 s_181818_e7e7e7" codeLine="28" height="263.4688" id="Exam" rx="2.5" ry="2.5" style="stroke-width:0.5;" width="441" x="7" y="7"/><ellipse cx="186.75" cy="24.8047" fill="#FF7700" rx="11" ry="11" style="stroke:#A80036;stroke-width:1.0;"/><path class="f_000000_ffffff" d="M184.2656,28.1016 C183.6094,28.1016 183.2188,28.4141 183.2188,28.9609 C183.2188,29.2109 183.3594,29.4766 183.5781,29.6328 C183.7344,29.7578 183.9531,29.8047 184.3594,29.8047 L187.8281,29.8047 C189.3125,29.8047 190.3281,29.4141 191.1563,28.5234 C191.9375,27.7109 192.3438,26.6641 192.3438,25.4141 L192.3438,24.6172 C192.3438,21.9453 190.4531,19.8984 187.9688,19.8984 L184.3594,19.8984 C183.9063,19.8984 183.7813,19.9141 183.625,20.0078 C183.375,20.1641 183.2188,20.4609 183.2188,20.7422 C183.2188,21.2891 183.5938,21.5859 184.2656,21.5859 L184.2656,28.1016 Z M185.9531,28.1016 L185.9531,21.5859 L187.8281,21.5859 C188.7344,21.5859 189.375,21.8672 189.8906,22.4609 C190.375,23.0391 190.6563,23.7891 190.6563,24.5859 L190.6563,25.3672 C190.6563,26.2422 190.4219,26.8359 189.9531,27.3516 C189.4219,27.8984 188.8594,28.1016 187.8438,28.1016 L185.9531,28.1016 Z "/><text fill="#000000" font-family="sans-serif" font-size="12" font-style="italic" lengthAdjust="spacing" textLength="77" x="205.25" y="23.1387">«Document»</text><text class="f_888888_777777" font-family="sans-serif" font-size="10" lengthAdjust="spacing" textLength="30" x="228.75" y="35.251">Exam</text><line class="s_181818_e7e7e7" style="stroke-width:0.5;" x1="8" x2="447" y1="42.6094" y2="42.6094"/><text class="f_000000_ffffff" font-family="sans-serif" font-size="14" lengthAdjust="spacing" textLength="58" x="13" y="59.6045">Id : Guid</text><text class="f_000000_ffffff" font-family="sans-serif" font-size="14" lengthAdjust="spacing" textLength="119" x="13" y="75.9014">StudentId : Long</text><text class="f_000000_ffffff" font-family="sans-serif" font-size="14" lengthAdjust="spacing" textLength="187" x="13" y="92.1982">StudentFirstname : String</text><text class="f_000000_ffffff" font-family="sans-serif" font-size="14" lengthAdjust="spacing" textLength="185" x="13" y="108.4951">StudentLastname : String</text><text class="f_000000_ffffff" font-family="sans-serif" font-size="14" lengthAdjust="spacing" textLength="230" x="13" y="124.792">StudentDateOfBirth : DateTime</text><text class="f_000000_ffffff" font-family="sans-serif" font-size="14" lengthAdjust="spacing" textLength="199" x="13" y="141.0889">StudentSchoolClass : String</text><text class="f_000000_ffffff" font-family="sans-serif" font-size="14" lengthAdjust="spacing" textLength="0" x="17" y="157.3857"/><text class="f_000000_ffffff" font-family="sans-serif" font-size="14" lengthAdjust="spacing" textLength="129" x="13" y="173.6826">Teacher : Teacher</text><text class="f_000000_ffffff" font-family="sans-serif" font-size="14" lengthAdjust="spacing" textLength="0" x="17" y="189.9795"/><text class="f_000000_ffffff" font-family="sans-serif" font-size="14" lengthAdjust="spacing" textLength="112" x="13" y="206.2764">Subject : String</text><text class="f_000000_ffffff" font-family="sans-serif" font-size="14" lengthAdjust="spacing" textLength="168" x="13" y="222.5732">DateCrated : DateTime</text><line class="s_181818_e7e7e7" style="stroke-width:1.0;" x1="8" x2="447" y1="229.875" y2="229.875"/><text class="f_000000_ffffff" font-family="sans-serif" font-size="14" lengthAdjust="spacing" textLength="429" x="13" y="246.8701">Exam(student : Student, teacher : Teacher, subject : String)</text><text class="f_000000_ffffff" font-family="sans-serif" font-size="14" lengthAdjust="spacing" textLength="264" x="13" y="263.167">Grade(grade : Integer) : GradedExam</text></g><!--MD5=[37da9beeded7298ed4cfaf4d979e9bc6]
class GradedExam--><g id="elem_GradedExam"><rect class="f_f1f1f1_070707 s_181818_e7e7e7" codeLine="45" height="113.1875" id="GradedExam" rx="2.5" ry="2.5" style="stroke-width:0.5;" width="452" x="141.5" y="389"/><ellipse class="f_add1b2_2e5233 s_181818_e7e7e7" cx="317.75" cy="405" rx="11" ry="11" style="stroke-width:1.0;"/><path class="f_000000_ffffff" d="M320.0938,400.6719 C319.1563,400.2344 318.5625,400.0938 317.6875,400.0938 C315.0625,400.0938 313.0625,402.1719 313.0625,404.8906 L313.0625,406.0156 C313.0625,408.5938 315.1719,410.4844 318.0625,410.4844 C319.2813,410.4844 320.4375,410.1875 321.1875,409.6406 C321.7656,409.2344 322.0938,408.7813 322.0938,408.3906 C322.0938,407.9375 321.7031,407.5469 321.2344,407.5469 C321.0156,407.5469 320.8125,407.625 320.625,407.8125 C320.1719,408.2969 320.1719,408.2969 319.9844,408.3906 C319.5625,408.6563 318.875,408.7813 318.1094,408.7813 C316.0625,408.7813 314.7656,407.6875 314.7656,405.9844 L314.7656,404.8906 C314.7656,403.1094 316.0156,401.7969 317.75,401.7969 C318.3281,401.7969 318.9375,401.9531 319.4063,402.2031 C319.8906,402.4844 320.0625,402.7031 320.1563,403.1094 C320.2188,403.5156 320.25,403.6406 320.3906,403.7656 C320.5313,403.9063 320.7656,404.0156 320.9844,404.0156 C321.25,404.0156 321.5156,403.875 321.6875,403.6563 C321.7969,403.5 321.8281,403.3125 321.8281,402.8906 L321.8281,401.4688 C321.8281,401.0313 321.8125,400.9063 321.7188,400.75 C321.5625,400.4844 321.2813,400.3438 320.9844,400.3438 C320.6875,400.3438 320.4844,400.4375 320.2656,400.75 L320.0938,400.6719 Z "/><text class="f_000000_ffffff" font-family="sans-serif" font-size="14" lengthAdjust="spacing" textLength="91" x="338.25" y="409.8467">GradedExam</text><line class="s_181818_e7e7e7" style="stroke-width:0.5;" x1="142.5" x2="592.5" y1="421" y2="421"/><text class="f_000000_ffffff" font-family="sans-serif" font-size="14" lengthAdjust="spacing" textLength="137" x="147.5" y="437.9951">Assistant : Teacher</text><text class="f_000000_ffffff" font-family="sans-serif" font-size="14" lengthAdjust="spacing" textLength="99" x="147.5" y="454.292">Grade : Grade</text><text class="f_000000_ffffff" font-family="sans-serif" font-size="14" lengthAdjust="spacing" textLength="171" x="147.5" y="470.5889">DateGraded : DateTime</text><line class="s_181818_e7e7e7" style="stroke-width:1.0;" x1="142.5" x2="592.5" y1="477.8906" y2="477.8906"/><text class="f_000000_ffffff" font-family="sans-serif" font-size="14" lengthAdjust="spacing" textLength="440" x="147.5" y="494.8857">GradedExam(exam : Exam, assistant : Teacher, grade : Grade)</text></g><!--MD5=[52004f01a179e763815172e17c0d286c]
link Exam to Teacher--><g id="link_Exam_Teacher"><path class="s_181818_e7e7e7" codeLine="53" d="M140.4423,281.2277 C140.4423,281.2277 127.584,313.998 123.5,330 C99.593,423.683 110.185,536.112 121.536,607.435 " fill="none" id="Exam-Teacher" style="stroke-width:1.0;"/><polygon class="f_181818_e7e7e7 s_181818_e7e7e7" points="123.731,620.697,126.2075,611.1646,122.9144,615.7641,118.3149,612.4711,123.731,620.697" style="stroke-width:1.0;"/><line class="s_181818_e7e7e7" style="stroke-width:1.0;" x1="122.9144" x2="121.6085" y1="615.7641" y2="607.872"/><polygon class="f_181818_e7e7e7 s_181818_e7e7e7" points="145.316,270.262,139.2239,274.1203,140.4423,281.2277,146.5344,277.3694,145.316,270.262" style="stroke-width:1.0;"/></g><!--MD5=[8cc2f476d96af6d4be067129466a31e0]
link GradedExam to Teacher--><g id="link_GradedExam_Teacher"><path class="s_181818_e7e7e7" codeLine="54" d="M303.4447,510.5553 C303.4447,510.5553 234.006,579.994 202.588,611.412 " fill="none" id="GradedExam-Teacher" style="stroke-width:1.0;"/><polygon class="f_181818_e7e7e7 s_181818_e7e7e7" points="193.039,620.961,202.2314,617.4255,196.5745,617.4255,196.5745,611.7686,193.039,620.961" style="stroke-width:1.0;"/><line class="s_181818_e7e7e7" style="stroke-width:1.0;" x1="196.5745" x2="202.2315" y1="617.4255" y2="611.7685"/><polygon class="f_181818_e7e7e7 s_181818_e7e7e7" points="311.93,502.07,304.8589,503.4842,303.4447,510.5553,310.5158,509.1411,311.93,502.07" style="stroke-width:1.0;"/></g><!--MD5=[73a4bbe8a4626e4e72b2aec588b8576d]
link Student to Grade--><g id="link_Student_Grade"><path class="s_181818_e7e7e7" codeLine="55" d="M715.8139,569.5355 C715.8139,569.5355 678.77,605.797 662.796,621.434 " fill="none" id="Student-Grade" style="stroke-width:1.0;"/><polygon class="f_181818_e7e7e7 s_181818_e7e7e7" points="653.122,630.904,662.3515,627.4665,656.695,627.4063,656.7552,621.7498,653.122,630.904" style="stroke-width:1.0;"/><line class="s_181818_e7e7e7" style="stroke-width:1.0;" x1="656.695" x2="662.412" y1="627.4063" y2="621.8095"/><polygon class="f_181818_e7e7e7 s_181818_e7e7e7" points="724.389,561.141,717.3033,562.4799,715.8139,569.5355,722.8996,568.1966,724.389,561.141" style="stroke-width:1.0;"/></g><!--MD5=[7afde711450c6808036c8743c8c0249c]
reverse link Exam to GradedExam--><g id="link_Exam_GradedExam"><path class="s_181818_e7e7e7" codeLine="56" d="M296.023,288.783 C312.412,324.488 328.91,360.428 341.919,388.77 " fill="none" id="Exam-backto-GradedExam" style="stroke-width:1.0;"/><polygon class="s_181818_e7e7e7" fill="none" points="289.463,291.272,287.482,270.175,302.187,285.431,289.463,291.272" style="stroke-width:1.0;"/></g><!--MD5=[bd47295fc3a9c42a602f528408e8f2ca]
link GradedExam to Grade--><g id="link_GradedExam_Grade"><path class="s_181818_e7e7e7" codeLine="57" d="M432.8421,510.4645 C432.8421,510.4645 512.421,588.364 546.461,621.686 " fill="none" id="GradedExam-Grade" style="stroke-width:1.0;"/><polygon class="f_181818_e7e7e7 s_181818_e7e7e7" points="555.807,630.835,552.1731,621.6811,552.2338,627.3376,546.5772,627.3982,555.807,630.835" style="stroke-width:1.0;"/><line class="s_181818_e7e7e7" style="stroke-width:1.0;" x1="552.2338" x2="546.5175" y1="627.3376" y2="621.7405"/><polygon class="f_181818_e7e7e7 s_181818_e7e7e7" points="424.267,502.07,425.7564,509.1256,432.8421,510.4645,431.3527,503.4089,424.267,502.07" style="stroke-width:1.0;"/></g><!--MD5=[00fbfbea97145a64c96fb64e1a4cc242]
@startuml
class Student <<(D,#FF7700) Document>> {
   Id : Long
   Firstname : String
   Lastname : String
   DateOfBirth : DateTime
   SchoolClass : String   
   Guid : Guid
   Grades : Dictionary<string, Grade>
   - - -
   GetNegativeGrades() : List<Grade>
   CalcAufstieg(Exams: List<GradedExam>) : Boolean
   GenerateExam(subject : String, teacher : Teacher) : Exam
   UpsertGrade(grade : Grade)
}

class Grade {
    Value : Integer
    Subject : String
    Updated : DateTime
}
class Teacher <<(D,#FF7700) Document>> {
    Id : String
    Firstname : String
    Lastname : String
    Email : String?
}

class Exam <<(D,#FF7700) Document>> {
    Id : Guid
    StudentId : Long
    StudentFirstname : String
    StudentLastname : String
    StudentDateOfBirth : DateTime
    StudentSchoolClass : String

    Teacher : Teacher

    Subject : String
    DateCrated : DateTime
    - - -
    Exam(student : Student, teacher : Teacher, subject : String)
    Grade(grade : Integer) : GradedExam
}

class GradedExam {
    Assistant : Teacher
    Grade : Grade
    DateGraded : DateTime
    - - -
    GradedExam(exam : Exam, assistant : Teacher, grade : Grade)
}

Exam *- -> Teacher
GradedExam *- -> Teacher
Student *- -> Grade
GradedExam -up-|> Exam
GradedExam *- -> Grade
@enduml

PlantUML version 1.2022.2beta5(Unknown compile time)
(GPL source distribution)
Java Runtime: Java(TM) SE Runtime Environment
JVM: Java HotSpot(TM) 64-Bit Server VM
Default Encoding: UTF-8
Language: en
Country: US
--></g></svg>