<?xml version="1.0" encoding="UTF-8" standalone="no"?><svg xmlns="http://www.w3.org/2000/svg" xmlns:xlink="http://www.w3.org/1999/xlink" contentScriptType="application/ecmascript" contentStyleType="text/css" height="441px" preserveAspectRatio="none" style="width:493px;height:441px;background:#FFFFFF;" version="1.1" viewBox="0 0 493 441" width="493px" zoomAndPan="magnify"><defs><filter height="300%" id="f1ig4fld9vtksr" width="300%" x="-1" y="-1"><feGaussianBlur result="blurOut" stdDeviation="2.0"/><feColorMatrix in="blurOut" result="blurOut2" type="matrix" values="0 0 0 0 0 0 0 0 0 0 0 0 0 0 0 0 0 0 .4 0"/><feOffset dx="4.0" dy="4.0" in="blurOut2" result="blurOut3"/><feBlend in="SourceGraphic" in2="blurOut3" mode="normal"/></filter></defs><g><!--MD5=[59d6d9b2a8c692ee354cdbcf5a98a192]
class Besucher--><rect codeLine="4" fill="#FEFECE" filter="url(#f1ig4fld9vtksr)" height="65.6094" id="Besucher" style="stroke:#A80036;stroke-width:1.5;" width="131" x="323.5" y="362"/><ellipse cx="357.4" cy="378" fill="#ADD1B2" rx="11" ry="11" style="stroke:#A80036;stroke-width:1.0;"/><path d="M359.7438,373.6719 C358.8063,373.2344 358.2125,373.0938 357.3375,373.0938 C354.7125,373.0938 352.7125,375.1719 352.7125,377.8906 L352.7125,379.0156 C352.7125,381.5938 354.8219,383.4844 357.7125,383.4844 C358.9313,383.4844 360.0875,383.1875 360.8375,382.6406 C361.4156,382.2344 361.7438,381.7813 361.7438,381.3906 C361.7438,380.9375 361.3531,380.5469 360.8844,380.5469 C360.6656,380.5469 360.4625,380.625 360.275,380.8125 C359.8219,381.2969 359.8219,381.2969 359.6344,381.3906 C359.2125,381.6563 358.525,381.7813 357.7594,381.7813 C355.7125,381.7813 354.4156,380.6875 354.4156,378.9844 L354.4156,377.8906 C354.4156,376.1094 355.6656,374.7969 357.4,374.7969 C357.9781,374.7969 358.5875,374.9531 359.0563,375.2031 C359.5406,375.4844 359.7125,375.7031 359.8063,376.1094 C359.8688,376.5156 359.9,376.6406 360.0406,376.7656 C360.1813,376.9063 360.4156,377.0156 360.6344,377.0156 C360.9,377.0156 361.1656,376.875 361.3375,376.6563 C361.4469,376.5 361.4781,376.3125 361.4781,375.8906 L361.4781,374.4688 C361.4781,374.0313 361.4625,373.9063 361.3688,373.75 C361.2125,373.4844 360.9313,373.3438 360.6344,373.3438 C360.3375,373.3438 360.1344,373.4375 359.9156,373.75 L359.7438,373.6719 Z " fill="#000000"/><text fill="#000000" font-family="sans-serif" font-size="12" lengthAdjust="spacing" textLength="57" x="375.6" y="382.1543">Besucher</text><line style="stroke:#A80036;stroke-width:1.5;" x1="324.5" x2="453.5" y1="394" y2="394"/><ellipse cx="334.5" cy="405" fill="#000000" rx="3" ry="3" style="stroke:#000000;stroke-width:1.0;"/><text fill="#000000" font-family="sans-serif" font-size="11" lengthAdjust="spacing" textLength="96" x="343.5" y="408.2104">Vorname : String</text><ellipse cx="334.5" cy="417.8047" fill="#000000" rx="3" ry="3" style="stroke:#000000;stroke-width:1.0;"/><text fill="#000000" font-family="sans-serif" font-size="11" lengthAdjust="spacing" textLength="105" x="343.5" y="421.0151">Nachname : String</text><!--MD5=[94b64bfabbe9c55a37e065c897379aeb]
class Abteilung--><rect codeLine="10" fill="#FEFECE" filter="url(#f1ig4fld9vtksr)" height="71.5469" id="Abteilung" style="stroke:#A80036;stroke-width:1.5;" width="132" x="7" y="220.5"/><ellipse cx="34.15" cy="239.4688" fill="#FF7700" rx="11" ry="11" style="stroke:#A80036;stroke-width:1.0;"/><path d="M31.6656,242.7656 C31.0094,242.7656 30.6188,243.0781 30.6188,243.625 C30.6188,243.875 30.7594,244.1406 30.9781,244.2969 C31.1344,244.4219 31.3531,244.4688 31.7594,244.4688 L35.2281,244.4688 C36.7125,244.4688 37.7281,244.0781 38.5563,243.1875 C39.3375,242.375 39.7438,241.3281 39.7438,240.0781 L39.7438,239.2813 C39.7438,236.6094 37.8531,234.5625 35.3688,234.5625 L31.7594,234.5625 C31.3063,234.5625 31.1813,234.5781 31.025,234.6719 C30.775,234.8281 30.6188,235.125 30.6188,235.4063 C30.6188,235.9531 30.9938,236.25 31.6656,236.25 L31.6656,242.7656 Z M33.3531,242.7656 L33.3531,236.25 L35.2281,236.25 C36.1344,236.25 36.775,236.5313 37.2906,237.125 C37.775,237.7031 38.0563,238.4531 38.0563,239.25 L38.0563,240.0313 C38.0563,240.9063 37.8219,241.5 37.3531,242.0156 C36.8219,242.5625 36.2594,242.7656 35.2438,242.7656 L33.3531,242.7656 Z " fill="#000000"/><text fill="#000000" font-family="sans-serif" font-size="12" font-style="italic" lengthAdjust="spacing" textLength="77" x="48.85" y="236.6387">«Document»</text><text fill="#000000" font-family="sans-serif" font-size="12" lengthAdjust="spacing" textLength="56" x="59.35" y="250.6074">Abteilung</text><line style="stroke:#A80036;stroke-width:1.5;" x1="8" x2="138" y1="258.4375" y2="258.4375"/><ellipse cx="18" cy="269.4375" fill="#000000" rx="3" ry="3" style="stroke:#000000;stroke-width:1.0;"/><text fill="#000000" font-family="sans-serif" font-size="11" lengthAdjust="spacing" textLength="106" x="27" y="272.6479">Name : String «Id»</text><ellipse cx="18" cy="282.2422" fill="#000000" rx="3" ry="3" style="stroke:#000000;stroke-width:1.0;"/><text fill="#000000" font-family="sans-serif" font-size="11" lengthAdjust="spacing" textLength="102" x="27" y="285.4526">MaxBesucher : int</text><!--MD5=[4721facbf515fa2be6eba84efad2d7ed]
class Terminart--><rect codeLine="15" fill="#FEFECE" filter="url(#f1ig4fld9vtksr)" height="65.6094" id="Terminart" style="stroke:#A80036;stroke-width:1.5;" width="89" x="174.5" y="223.5"/><ellipse cx="189.5" cy="239.5" fill="#EB937F" rx="11" ry="11" style="stroke:#A80036;stroke-width:1.0;"/><path d="M188.2969,240.375 L189.75,240.375 L189.75,240.4844 C189.75,240.8906 189.7813,241.0469 189.8594,241.2031 C190.0156,241.4531 190.2969,241.6094 190.5938,241.6094 C190.8438,241.6094 191.1094,241.4688 191.2656,241.25 C191.3906,241.0938 191.4219,240.9375 191.4219,240.4844 L191.4219,238.5625 C191.4219,238.4063 191.4219,238.3594 191.4063,238.2031 C191.3438,237.7344 191.0313,237.4219 190.5781,237.4219 C190.3281,237.4219 190.0625,237.5625 189.8906,237.7813 C189.7813,237.9531 189.75,238.1094 189.75,238.5625 L189.75,238.6875 L188.2969,238.6875 L188.2969,236.2813 L192.2813,236.2813 L192.2813,237.1406 C192.2813,237.5469 192.3125,237.7188 192.3906,237.875 C192.5625,238.125 192.8438,238.2813 193.125,238.2813 C193.3906,238.2813 193.6563,238.1406 193.8281,237.9219 C193.9375,237.75 193.9688,237.6094 193.9688,237.1406 L193.9688,234.5938 L186.3438,234.5938 C185.9063,234.5938 185.7813,234.6094 185.625,234.7031 C185.375,234.8594 185.2188,235.1563 185.2188,235.4375 C185.2188,235.7188 185.3594,235.9688 185.5781,236.1406 C185.7344,236.25 185.9219,236.2813 186.3438,236.2813 L186.5938,236.2813 L186.5938,242.7969 L186.3438,242.7969 C185.9375,242.7969 185.7813,242.8125 185.625,242.9219 C185.375,243.0938 185.2188,243.3594 185.2188,243.6563 C185.2188,243.9219 185.3594,244.1719 185.5781,244.3281 C185.7188,244.4531 185.9531,244.5 186.3438,244.5 L194.3438,244.5 L194.3438,241.9219 C194.3438,241.4844 194.3125,241.3438 194.2344,241.1875 C194.0625,240.9375 193.7813,240.7813 193.5,240.7813 C193.2344,240.7813 192.9688,240.8906 192.7969,241.1406 C192.6875,241.2969 192.6563,241.4375 192.6563,241.9219 L192.6563,242.7969 L188.2969,242.7969 L188.2969,240.375 Z " fill="#000000"/><text fill="#000000" font-family="sans-serif" font-size="12" lengthAdjust="spacing" textLength="57" x="203.5" y="243.6543">Terminart</text><line style="stroke:#A80036;stroke-width:1.5;" x1="175.5" x2="262.5" y1="255.5" y2="255.5"/><text fill="#000000" font-family="sans-serif" font-size="11" lengthAdjust="spacing" textLength="37" x="180.5" y="269.7104">Online</text><text fill="#000000" font-family="sans-serif" font-size="11" lengthAdjust="spacing" textLength="38" x="180.5" y="282.5151">Offline</text><!--MD5=[31125956692c594013a7992b37afcc41]
class Termin--><rect codeLine="20" fill="#FEFECE" filter="url(#f1ig4fld9vtksr)" height="143.5703" id="Termin" style="stroke:#A80036;stroke-width:1.5;" width="219" x="109.5" y="7"/><ellipse cx="178.25" cy="25.9688" fill="#FF7700" rx="11" ry="11" style="stroke:#A80036;stroke-width:1.0;"/><path d="M175.7656,29.2656 C175.1094,29.2656 174.7188,29.5781 174.7188,30.125 C174.7188,30.375 174.8594,30.6406 175.0781,30.7969 C175.2344,30.9219 175.4531,30.9688 175.8594,30.9688 L179.3281,30.9688 C180.8125,30.9688 181.8281,30.5781 182.6563,29.6875 C183.4375,28.875 183.8438,27.8281 183.8438,26.5781 L183.8438,25.7813 C183.8438,23.1094 181.9531,21.0625 179.4688,21.0625 L175.8594,21.0625 C175.4063,21.0625 175.2813,21.0781 175.125,21.1719 C174.875,21.3281 174.7188,21.625 174.7188,21.9063 C174.7188,22.4531 175.0938,22.75 175.7656,22.75 L175.7656,29.2656 Z M177.4531,29.2656 L177.4531,22.75 L179.3281,22.75 C180.2344,22.75 180.875,23.0313 181.3906,23.625 C181.875,24.2031 182.1563,24.9531 182.1563,25.75 L182.1563,26.5313 C182.1563,27.4063 181.9219,28 181.4531,28.5156 C180.9219,29.0625 180.3594,29.2656 179.3438,29.2656 L177.4531,29.2656 Z " fill="#000000"/><text fill="#000000" font-family="sans-serif" font-size="12" font-style="italic" lengthAdjust="spacing" textLength="77" x="196.75" y="23.1387">«Document»</text><text fill="#000000" font-family="sans-serif" font-size="12" lengthAdjust="spacing" textLength="41" x="214.75" y="37.1074">Termin</text><line style="stroke:#A80036;stroke-width:1.5;" x1="110.5" x2="327.5" y1="44.9375" y2="44.9375"/><ellipse cx="120.5" cy="55.9375" fill="#000000" rx="3" ry="3" style="stroke:#000000;stroke-width:1.0;"/><text fill="#000000" font-family="sans-serif" font-size="11" lengthAdjust="spacing" textLength="47" x="129.5" y="59.1479">Id : Guid</text><ellipse cx="120.5" cy="68.7422" fill="#000000" rx="3" ry="3" style="stroke:#000000;stroke-width:1.0;"/><text fill="#000000" font-family="sans-serif" font-size="11" lengthAdjust="spacing" textLength="106" x="129.5" y="71.9526">Datum : DateTime</text><ellipse cx="120.5" cy="81.5469" fill="#000000" rx="3" ry="3" style="stroke:#000000;stroke-width:1.0;"/><text fill="#000000" font-family="sans-serif" font-size="11" lengthAdjust="spacing" textLength="90" x="129.5" y="84.7573">Von : DateTime</text><ellipse cx="120.5" cy="94.3516" fill="#000000" rx="3" ry="3" style="stroke:#000000;stroke-width:1.0;"/><text fill="#000000" font-family="sans-serif" font-size="11" lengthAdjust="spacing" textLength="119" x="129.5" y="97.562">Abteilung : Abteilung</text><ellipse cx="120.5" cy="107.1563" fill="#000000" rx="3" ry="3" style="stroke:#000000;stroke-width:1.0;"/><text fill="#000000" font-family="sans-serif" font-size="11" lengthAdjust="spacing" textLength="121" x="129.5" y="110.3667">Terminart : Terminart</text><text fill="#000000" font-family="sans-serif" font-size="11" lengthAdjust="spacing" textLength="60" x="129.5" y="123.1714">Link: string</text><ellipse cx="120.5" cy="132.7656" fill="#000000" rx="3" ry="3" style="stroke:#000000;stroke-width:1.0;"/><text fill="#000000" font-family="sans-serif" font-size="11" lengthAdjust="spacing" textLength="193" x="129.5" y="135.9761">List&lt;Anmeldung&gt; : Anmeldungen</text><line style="stroke:#A80036;stroke-width:1.0;" x1="110.5" x2="327.5" y1="142.5703" y2="142.5703"/><!--MD5=[07d2e0908d569744d531516069c43ca4]
class Anmeldung--><rect codeLine="34" fill="#FEFECE" filter="url(#f1ig4fld9vtksr)" height="91.2188" id="Anmeldung" style="stroke:#A80036;stroke-width:1.5;" width="181" x="298.5" y="211"/><ellipse cx="351.25" cy="227" fill="#ADD1B2" rx="11" ry="11" style="stroke:#A80036;stroke-width:1.0;"/><path d="M353.5938,222.6719 C352.6563,222.2344 352.0625,222.0938 351.1875,222.0938 C348.5625,222.0938 346.5625,224.1719 346.5625,226.8906 L346.5625,228.0156 C346.5625,230.5938 348.6719,232.4844 351.5625,232.4844 C352.7813,232.4844 353.9375,232.1875 354.6875,231.6406 C355.2656,231.2344 355.5938,230.7813 355.5938,230.3906 C355.5938,229.9375 355.2031,229.5469 354.7344,229.5469 C354.5156,229.5469 354.3125,229.625 354.125,229.8125 C353.6719,230.2969 353.6719,230.2969 353.4844,230.3906 C353.0625,230.6563 352.375,230.7813 351.6094,230.7813 C349.5625,230.7813 348.2656,229.6875 348.2656,227.9844 L348.2656,226.8906 C348.2656,225.1094 349.5156,223.7969 351.25,223.7969 C351.8281,223.7969 352.4375,223.9531 352.9063,224.2031 C353.3906,224.4844 353.5625,224.7031 353.6563,225.1094 C353.7188,225.5156 353.75,225.6406 353.8906,225.7656 C354.0313,225.9063 354.2656,226.0156 354.4844,226.0156 C354.75,226.0156 355.0156,225.875 355.1875,225.6563 C355.2969,225.5 355.3281,225.3125 355.3281,224.8906 L355.3281,223.4688 C355.3281,223.0313 355.3125,222.9063 355.2188,222.75 C355.0625,222.4844 354.7813,222.3438 354.4844,222.3438 C354.1875,222.3438 353.9844,222.4375 353.7656,222.75 L353.5938,222.6719 Z " fill="#000000"/><text fill="#000000" font-family="sans-serif" font-size="12" lengthAdjust="spacing" textLength="67" x="371.75" y="231.1543">Anmeldung</text><line style="stroke:#A80036;stroke-width:1.5;" x1="299.5" x2="478.5" y1="243" y2="243"/><ellipse cx="309.5" cy="254" fill="#000000" rx="3" ry="3" style="stroke:#000000;stroke-width:1.0;"/><text fill="#000000" font-family="sans-serif" font-size="11" lengthAdjust="spacing" textLength="75" x="318.5" y="257.2104">Email : String</text><ellipse cx="309.5" cy="266.8047" fill="#000000" rx="3" ry="3" style="stroke:#000000;stroke-width:1.0;"/><text fill="#000000" font-family="sans-serif" font-size="11" lengthAdjust="spacing" textLength="88" x="318.5" y="270.0151">Telefon : String</text><ellipse cx="309.5" cy="279.6094" fill="#000000" rx="3" ry="3" style="stroke:#000000;stroke-width:1.0;"/><text fill="#000000" font-family="sans-serif" font-size="11" lengthAdjust="spacing" textLength="121" x="318.5" y="282.8198">Anmelder : Besucher</text><ellipse cx="309.5" cy="292.4141" fill="#000000" rx="3" ry="3" style="stroke:#000000;stroke-width:1.0;"/><text fill="#000000" font-family="sans-serif" font-size="11" lengthAdjust="spacing" textLength="155" x="318.5" y="295.6245">Begleiter : List&lt;Besucher&gt;</text><!--MD5=[ed3c88dd65d71e71a16d4d2cf4998b05]
link Termin to Abteilung--><path codeLine="30" d="M152.1534,160.3558 C152.1534,160.3558 123.451,194.855 111.083,209.722 " fill="none" id="Termin-Abteilung" style="stroke:#A80036;stroke-width:1.0;"/><polygon fill="#A80036" points="102.4156,220.141,111.2468,215.7809,105.6135,216.2974,105.097,210.6642,102.4156,220.141" style="stroke:#A80036;stroke-width:1.0;"/><line style="stroke:#A80036;stroke-width:1.0;" x1="105.6135" x2="110.7295" y1="216.2974" y2="210.147"/><polygon fill="#A80036" points="159.827,151.13,152.9149,153.185,152.1534,160.3558,159.0654,158.3008,159.827,151.13" style="stroke:#A80036;stroke-width:1.0;"/><!--MD5=[1c96c63212f96c359651bf43ecc40e6f]
link Termin to Terminart--><path codeLine="31" d="M219,163.13 C219,163.13 219,195.988 219,210.058 " fill="none" id="Termin-Terminart" style="stroke:#A80036;stroke-width:1.0;"/><polygon fill="#A80036" points="219,223.416,223,214.416,219,218.416,215,214.416,219,223.416" style="stroke:#A80036;stroke-width:1.0;"/><line style="stroke:#A80036;stroke-width:1.0;" x1="219" x2="219" y1="218.416" y2="210.416"/><polygon fill="#A80036" points="219,151.13,215,157.13,219,163.13,223,157.13,219,151.13" style="stroke:#A80036;stroke-width:1.0;"/><!--MD5=[cdef67f97681a58d2dd7a5b60fa9cb6d]
link Termin to Anmeldung--><path codeLine="32" d="M296.2491,159.7494 C296.2491,159.7494 324.104,188.504 336.584,201.389 " fill="none" id="Termin-Anmeldung" style="stroke:#A80036;stroke-width:1.0;"/><polygon fill="#A80036" points="345.891,210.996,342.5016,201.7487,342.412,207.4049,336.7558,207.3152,345.891,210.996" style="stroke:#A80036;stroke-width:1.0;"/><line style="stroke:#A80036;stroke-width:1.0;" x1="342.412" x2="336.846" y1="207.4049" y2="201.659"/><polygon fill="#A80036" points="287.9,151.13,289.2014,158.2227,296.2491,159.7494,294.9476,152.6567,287.9,151.13" style="stroke:#A80036;stroke-width:1.0;"/><!--MD5=[f37d8bc3817b32608f5e2e4ae217e0eb]
link Anmeldung to Besucher--><path codeLine="41" d="M389,314.195 C389,314.195 389,338.0329 389,348.741 " fill="none" id="Anmeldung-Besucher" style="stroke:#A80036;stroke-width:1.0;"/><polygon fill="#A80036" points="389,361.7541,393,352.7541,389,356.7541,385,352.7541,389,361.7541" style="stroke:#A80036;stroke-width:1.0;"/><line style="stroke:#A80036;stroke-width:1.0;" x1="389" x2="389" y1="356.7541" y2="348.7541"/><polygon fill="#A80036" points="389,302.195,385,308.195,389,314.195,393,308.195,389,302.195" style="stroke:#A80036;stroke-width:1.0;"/><!--MD5=[e7e0a97d9f160f330f6be03e5b4f1f21]
@startuml
hide empty methods


class Besucher {
   *Vorname : String
   *Nachname : String
 
}

class Abteilung <<(D,#FF7700) Document>> {
   *Name : String <<Id>>
   *MaxBesucher : int
}

enum Terminart {
   Online
   Offline
}

class Termin <<(D,#FF7700) Document>> {
   *Id : Guid
   *Datum : DateTime
   *Von : DateTime
   *Abteilung : Abteilung
   *Terminart : Terminart
   Link: string
   *List<Anmeldung> : Anmeldungen
   - - -
}
Termin *- -> Abteilung
Termin *- -> Terminart
Termin *- -> Anmeldung

class Anmeldung {
   *Email : String
   *Telefon : String     
   *Anmelder : Besucher
   *Begleiter : List<Besucher>
}

Anmeldung *- -> Besucher
@enduml

PlantUML version 1.2021.17beta2(Unknown compile time)
(GPL source distribution)
Java Runtime: Java(TM) SE Runtime Environment
JVM: Java HotSpot(TM) 64-Bit Server VM
Default Encoding: UTF-8
Language: en
Country: US
--></g></svg>