<?xml version="1.0" encoding="UTF-8" standalone="no"?><svg xmlns="http://www.w3.org/2000/svg" xmlns:xlink="http://www.w3.org/1999/xlink" contentStyleType="text/css" height="436px" preserveAspectRatio="none" style="width:1070px;height:436px;background:#FFFFFF;" version="1.1" viewBox="0 0 1070 436" width="1070px" zoomAndPan="magnify"><defs/><g><!--MD5=[f2e97c93db53046a4eea61b2fcee7d0e]
class CustomerName--><g id="elem_CustomerName"><rect codeLine="4" fill="#F1F1F1" height="88.8906" id="CustomerName" rx="2.5" ry="2.5" style="stroke:#181818;stroke-width:0.5;" width="220" x="481" y="166"/><ellipse cx="496" cy="182" fill="#ADD1B2" rx="11" ry="11" style="stroke:#181818;stroke-width:1.0;"/><path d="M498.3438,177.6719 C497.4063,177.2344 496.8125,177.0938 495.9375,177.0938 C493.3125,177.0938 491.3125,179.1719 491.3125,181.8906 L491.3125,183.0156 C491.3125,185.5938 493.4219,187.4844 496.3125,187.4844 C497.5313,187.4844 498.6875,187.1875 499.4375,186.6406 C500.0156,186.2344 500.3438,185.7813 500.3438,185.3906 C500.3438,184.9375 499.9531,184.5469 499.4844,184.5469 C499.2656,184.5469 499.0625,184.625 498.875,184.8125 C498.4219,185.2969 498.4219,185.2969 498.2344,185.3906 C497.8125,185.6563 497.125,185.7813 496.3594,185.7813 C494.3125,185.7813 493.0156,184.6875 493.0156,182.9844 L493.0156,181.8906 C493.0156,180.1094 494.2656,178.7969 496,178.7969 C496.5781,178.7969 497.1875,178.9531 497.6563,179.2031 C498.1406,179.4844 498.3125,179.7031 498.4063,180.1094 C498.4688,180.5156 498.5,180.6406 498.6406,180.7656 C498.7813,180.9063 499.0156,181.0156 499.2344,181.0156 C499.5,181.0156 499.7656,180.875 499.9375,180.6563 C500.0469,180.5 500.0781,180.3125 500.0781,179.8906 L500.0781,178.4688 C500.0781,178.0313 500.0625,177.9063 499.9688,177.75 C499.8125,177.4844 499.5313,177.3438 499.2344,177.3438 C498.9375,177.3438 498.7344,177.4375 498.5156,177.75 L498.3438,177.6719 Z " fill="#000000"/><text fill="#000000" font-family="sans-serif" font-size="14" lengthAdjust="spacing" textLength="111" x="510" y="186.8467">CustomerName</text><rect fill="#FFFFFF" height="15.9688" style="stroke:#181818;stroke-width:1.0;stroke-dasharray:2.0,2.0;" width="75" x="629" y="163"/><text fill="#000000" font-family="sans-serif" font-size="12" font-style="italic" lengthAdjust="spacing" textLength="73" x="630" y="175.1387">value object</text><line style="stroke:#181818;stroke-width:0.5;" x1="482" x2="700" y1="198" y2="198"/><ellipse cx="492" cy="211.6484" fill="#000000" rx="3" ry="3" style="stroke:#000000;stroke-width:1.0;"/><text fill="#000000" font-family="sans-serif" font-size="14" lengthAdjust="spacing" textLength="127" x="501" y="214.9951">firstname : String</text><ellipse cx="492" cy="227.9453" fill="#000000" rx="3" ry="3" style="stroke:#000000;stroke-width:1.0;"/><text fill="#000000" font-family="sans-serif" font-size="14" lengthAdjust="spacing" textLength="123" x="501" y="231.292">lastname : String</text><ellipse cx="492" cy="244.2422" fill="#000000" rx="3" ry="3" style="stroke:#000000;stroke-width:1.0;"/><text fill="#000000" font-family="sans-serif" font-size="14" lengthAdjust="spacing" textLength="96" x="501" y="247.5889">email : String</text></g><!--MD5=[0f39e4cb6f03951afbf6d14bd2505654]
class Address--><g id="elem_Address"><rect codeLine="10" fill="#F1F1F1" height="121.4844" id="Address" rx="2.5" ry="2.5" style="stroke:#181818;stroke-width:0.5;" width="166" x="508" y="10"/><ellipse cx="523" cy="26" fill="#ADD1B2" rx="11" ry="11" style="stroke:#181818;stroke-width:1.0;"/><path d="M525.3438,21.6719 C524.4063,21.2344 523.8125,21.0938 522.9375,21.0938 C520.3125,21.0938 518.3125,23.1719 518.3125,25.8906 L518.3125,27.0156 C518.3125,29.5938 520.4219,31.4844 523.3125,31.4844 C524.5313,31.4844 525.6875,31.1875 526.4375,30.6406 C527.0156,30.2344 527.3438,29.7813 527.3438,29.3906 C527.3438,28.9375 526.9531,28.5469 526.4844,28.5469 C526.2656,28.5469 526.0625,28.625 525.875,28.8125 C525.4219,29.2969 525.4219,29.2969 525.2344,29.3906 C524.8125,29.6563 524.125,29.7813 523.3594,29.7813 C521.3125,29.7813 520.0156,28.6875 520.0156,26.9844 L520.0156,25.8906 C520.0156,24.1094 521.2656,22.7969 523,22.7969 C523.5781,22.7969 524.1875,22.9531 524.6563,23.2031 C525.1406,23.4844 525.3125,23.7031 525.4063,24.1094 C525.4688,24.5156 525.5,24.6406 525.6406,24.7656 C525.7813,24.9063 526.0156,25.0156 526.2344,25.0156 C526.5,25.0156 526.7656,24.875 526.9375,24.6563 C527.0469,24.5 527.0781,24.3125 527.0781,23.8906 L527.0781,22.4688 C527.0781,22.0313 527.0625,21.9063 526.9688,21.75 C526.8125,21.4844 526.5313,21.3438 526.2344,21.3438 C525.9375,21.3438 525.7344,21.4375 525.5156,21.75 L525.3438,21.6719 Z " fill="#000000"/><text fill="#000000" font-family="sans-serif" font-size="14" lengthAdjust="spacing" textLength="57" x="537" y="30.8467">Address</text><rect fill="#FFFFFF" height="15.9688" style="stroke:#181818;stroke-width:1.0;stroke-dasharray:2.0,2.0;" width="75" x="602" y="7"/><text fill="#000000" font-family="sans-serif" font-size="12" font-style="italic" lengthAdjust="spacing" textLength="73" x="603" y="19.1387">value object</text><line style="stroke:#181818;stroke-width:0.5;" x1="509" x2="673" y1="42" y2="42"/><ellipse cx="519" cy="55.6484" fill="#000000" rx="3" ry="3" style="stroke:#000000;stroke-width:1.0;"/><text fill="#000000" font-family="sans-serif" font-size="14" lengthAdjust="spacing" textLength="102" x="528" y="58.9951">street : String</text><ellipse cx="519" cy="71.9453" fill="#000000" rx="3" ry="3" style="stroke:#000000;stroke-width:1.0;"/><text fill="#000000" font-family="sans-serif" font-size="14" lengthAdjust="spacing" textLength="118" x="528" y="75.292">streetNr : String</text><ellipse cx="519" cy="88.2422" fill="#000000" rx="3" ry="3" style="stroke:#000000;stroke-width:1.0;"/><text fill="#000000" font-family="sans-serif" font-size="14" lengthAdjust="spacing" textLength="88" x="528" y="91.5889">zip : Integer</text><ellipse cx="519" cy="104.5391" fill="#000000" rx="3" ry="3" style="stroke:#000000;stroke-width:1.0;"/><text fill="#000000" font-family="sans-serif" font-size="14" lengthAdjust="spacing" textLength="84" x="528" y="107.8857">city : String</text><ellipse cx="519" cy="120.8359" fill="#000000" rx="3" ry="3" style="stroke:#000000;stroke-width:1.0;"/><text fill="#000000" font-family="sans-serif" font-size="14" lengthAdjust="spacing" textLength="95" x="528" y="124.1826">state : String</text></g><!--MD5=[003718b22fee2486eeba0fa029a176b7]
class OrderItem--><g id="elem_OrderItem"><rect codeLine="18" fill="#F1F1F1" height="88.8906" id="OrderItem" rx="2.5" ry="2.5" style="stroke:#181818;stroke-width:0.5;" width="184" x="499" y="290"/><ellipse cx="514" cy="306" fill="#ADD1B2" rx="11" ry="11" style="stroke:#181818;stroke-width:1.0;"/><path d="M516.3438,301.6719 C515.4063,301.2344 514.8125,301.0938 513.9375,301.0938 C511.3125,301.0938 509.3125,303.1719 509.3125,305.8906 L509.3125,307.0156 C509.3125,309.5938 511.4219,311.4844 514.3125,311.4844 C515.5313,311.4844 516.6875,311.1875 517.4375,310.6406 C518.0156,310.2344 518.3438,309.7813 518.3438,309.3906 C518.3438,308.9375 517.9531,308.5469 517.4844,308.5469 C517.2656,308.5469 517.0625,308.625 516.875,308.8125 C516.4219,309.2969 516.4219,309.2969 516.2344,309.3906 C515.8125,309.6563 515.125,309.7813 514.3594,309.7813 C512.3125,309.7813 511.0156,308.6875 511.0156,306.9844 L511.0156,305.8906 C511.0156,304.1094 512.2656,302.7969 514,302.7969 C514.5781,302.7969 515.1875,302.9531 515.6563,303.2031 C516.1406,303.4844 516.3125,303.7031 516.4063,304.1094 C516.4688,304.5156 516.5,304.6406 516.6406,304.7656 C516.7813,304.9063 517.0156,305.0156 517.2344,305.0156 C517.5,305.0156 517.7656,304.875 517.9375,304.6563 C518.0469,304.5 518.0781,304.3125 518.0781,303.8906 L518.0781,302.4688 C518.0781,302.0313 518.0625,301.9063 517.9688,301.75 C517.8125,301.4844 517.5313,301.3438 517.2344,301.3438 C516.9375,301.3438 516.7344,301.4375 516.5156,301.75 L516.3438,301.6719 Z " fill="#000000"/><text fill="#000000" font-family="sans-serif" font-size="14" lengthAdjust="spacing" textLength="75" x="528" y="310.8467">OrderItem</text><rect fill="#FFFFFF" height="15.9688" style="stroke:#181818;stroke-width:1.0;stroke-dasharray:2.0,2.0;" width="75" x="611" y="287"/><text fill="#000000" font-family="sans-serif" font-size="12" font-style="italic" lengthAdjust="spacing" textLength="73" x="612" y="299.1387">value object</text><line style="stroke:#181818;stroke-width:0.5;" x1="500" x2="682" y1="322" y2="322"/><ellipse cx="510" cy="335.6484" fill="#000000" rx="3" ry="3" style="stroke:#000000;stroke-width:1.0;"/><text fill="#000000" font-family="sans-serif" font-size="14" lengthAdjust="spacing" textLength="126" x="519" y="338.9951">product : Product</text><ellipse cx="510" cy="351.9453" fill="#000000" rx="3" ry="3" style="stroke:#000000;stroke-width:1.0;"/><text fill="#000000" font-family="sans-serif" font-size="14" lengthAdjust="spacing" textLength="126" x="519" y="355.292">quantity : Integer</text><ellipse cx="510" cy="368.2422" fill="#000000" rx="3" ry="3" style="stroke:#000000;stroke-width:1.0;"/><text fill="#000000" font-family="sans-serif" font-size="14" lengthAdjust="spacing" textLength="141" x="519" y="371.5889">itemPrice : Decimal</text></g><!--MD5=[72136138052d025cffdce3c22fbd185f]
class Product--><g id="elem_Product"><rect codeLine="24" fill="#FFFFFF" height="190.2813" id="Product" rx="2.5" ry="2.5" style="stroke:#181818;stroke-width:0.5;" width="238" x="825" y="239.5"/><rect fill="none" height="35.6094" rx="2.5" ry="2.5" style="stroke:none;stroke-width:0.5;" width="238" x="825" y="239.5"/><rect fill="none" height="2.5" style="stroke:none;stroke-width:0.5;" width="238" x="825" y="272.6094"/><rect codeLine="24" fill="none" height="190.2813" id="Product" rx="2.5" ry="2.5" style="stroke:#181818;stroke-width:0.5;" width="238" x="825" y="239.5"/><ellipse cx="903.25" cy="257.3047" fill="#FF7700" rx="11" ry="11" style="stroke:#181818;stroke-width:1.0;"/><path d="M902.0469,258.1797 L903.5,258.1797 L903.5,258.2891 C903.5,258.6953 903.5313,258.8516 903.6094,259.0078 C903.7656,259.2578 904.0469,259.4141 904.3438,259.4141 C904.5938,259.4141 904.8594,259.2734 905.0156,259.0547 C905.1406,258.8984 905.1719,258.7422 905.1719,258.2891 L905.1719,256.3672 C905.1719,256.2109 905.1719,256.1641 905.1563,256.0078 C905.0938,255.5391 904.7813,255.2266 904.3281,255.2266 C904.0781,255.2266 903.8125,255.3672 903.6406,255.5859 C903.5313,255.7578 903.5,255.9141 903.5,256.3672 L903.5,256.4922 L902.0469,256.4922 L902.0469,254.0859 L906.0313,254.0859 L906.0313,254.9453 C906.0313,255.3516 906.0625,255.5234 906.1406,255.6797 C906.3125,255.9297 906.5938,256.0859 906.875,256.0859 C907.1406,256.0859 907.4063,255.9453 907.5781,255.7266 C907.6875,255.5547 907.7188,255.4141 907.7188,254.9453 L907.7188,252.3984 L900.0938,252.3984 C899.6563,252.3984 899.5313,252.4141 899.375,252.5078 C899.125,252.6641 898.9688,252.9609 898.9688,253.2422 C898.9688,253.5234 899.1094,253.7734 899.3281,253.9453 C899.4844,254.0547 899.6719,254.0859 900.0938,254.0859 L900.3438,254.0859 L900.3438,260.6016 L900.0938,260.6016 C899.6875,260.6016 899.5313,260.6172 899.375,260.7266 C899.125,260.8984 898.9688,261.1641 898.9688,261.4609 C898.9688,261.7266 899.1094,261.9766 899.3281,262.1328 C899.4688,262.2578 899.7031,262.3047 900.0938,262.3047 L908.0938,262.3047 L908.0938,259.7266 C908.0938,259.2891 908.0625,259.1484 907.9844,258.9922 C907.8125,258.7422 907.5313,258.5859 907.25,258.5859 C906.9844,258.5859 906.7188,258.6953 906.5469,258.9453 C906.4375,259.1016 906.4063,259.2422 906.4063,259.7266 L906.4063,260.6016 L902.0469,260.6016 L902.0469,258.1797 Z " fill="#000000"/><text fill="#000000" font-family="sans-serif" font-size="12" font-style="italic" lengthAdjust="spacing" textLength="77" x="921.75" y="255.6387">«Document»</text><text fill="#888888" font-family="sans-serif" font-size="10" lengthAdjust="spacing" textLength="41" x="939.75" y="267.751">Product</text><line style="stroke:#181818;stroke-width:0.5;" x1="826" x2="1062" y1="275.1094" y2="275.1094"/><ellipse cx="836" cy="288.7578" fill="#000000" rx="3" ry="3" style="stroke:#000000;stroke-width:1.0;"/><text fill="#000000" font-family="sans-serif" font-size="14" lengthAdjust="spacing" textLength="204" x="845" y="292.1045">id : ObjectId «id, generated»</text><ellipse cx="836" cy="305.0547" fill="#000000" rx="3" ry="3" style="stroke:#000000;stroke-width:1.0;"/><text fill="#000000" font-family="sans-serif" font-size="14" lengthAdjust="spacing" textLength="83" x="845" y="308.4014">ean : String</text><ellipse cx="836" cy="321.3516" fill="#000000" rx="3" ry="3" style="stroke:#000000;stroke-width:1.0;"/><text fill="#000000" font-family="sans-serif" font-size="14" lengthAdjust="spacing" textLength="97" x="845" y="324.6982">name : String</text><ellipse cx="836" cy="337.6484" fill="#000000" rx="3" ry="3" style="stroke:#000000;stroke-width:1.0;"/><text fill="#000000" font-family="sans-serif" font-size="14" lengthAdjust="spacing" textLength="121" x="845" y="340.9951">category : String</text><ellipse cx="836" cy="353.9453" fill="#000000" rx="3" ry="3" style="stroke:#000000;stroke-width:1.0;"/><text fill="#000000" font-family="sans-serif" font-size="14" lengthAdjust="spacing" textLength="212" x="845" y="357.292">recommendedPrice : Decimal</text><ellipse cx="836" cy="370.2422" fill="#000000" rx="3" ry="3" style="stroke:#000000;stroke-width:1.0;"/><text fill="#000000" font-family="sans-serif" font-size="14" lengthAdjust="spacing" textLength="106" x="845" y="373.5889">stock : Integer</text><ellipse cx="836" cy="386.5391" fill="#000000" rx="3" ry="3" style="stroke:#000000;stroke-width:1.0;"/><text fill="#000000" font-family="sans-serif" font-size="14" lengthAdjust="spacing" textLength="135" x="845" y="389.8857">minStock : Integer</text><text fill="#000000" font-family="sans-serif" font-size="14" lengthAdjust="spacing" textLength="184" x="845" y="406.1826">availableFrom : DateTime</text><text fill="#000000" font-family="sans-serif" font-size="14" lengthAdjust="spacing" textLength="165" x="845" y="422.4795">availableTo : DateTime</text></g><!--MD5=[2ce0c9fb7f55b1e256ab28a8ea6b25ec]
class Customer--><g id="elem_Customer"><rect codeLine="38" fill="#FFFFFF" height="108.7969" id="Customer" rx="2.5" ry="2.5" style="stroke:#181818;stroke-width:0.5;" width="279" x="7" y="25"/><rect fill="none" height="35.6094" rx="2.5" ry="2.5" style="stroke:none;stroke-width:0.5;" width="279" x="7" y="25"/><rect fill="none" height="2.5" style="stroke:none;stroke-width:0.5;" width="279" x="7" y="58.1094"/><rect codeLine="38" fill="none" height="108.7969" id="Customer" rx="2.5" ry="2.5" style="stroke:#181818;stroke-width:0.5;" width="279" x="7" y="25"/><ellipse cx="105.75" cy="42.8047" fill="#FF7700" rx="11" ry="11" style="stroke:#181818;stroke-width:1.0;"/><path d="M104.5469,43.6797 L106,43.6797 L106,43.7891 C106,44.1953 106.0313,44.3516 106.1094,44.5078 C106.2656,44.7578 106.5469,44.9141 106.8438,44.9141 C107.0938,44.9141 107.3594,44.7734 107.5156,44.5547 C107.6406,44.3984 107.6719,44.2422 107.6719,43.7891 L107.6719,41.8672 C107.6719,41.7109 107.6719,41.6641 107.6563,41.5078 C107.5938,41.0391 107.2813,40.7266 106.8281,40.7266 C106.5781,40.7266 106.3125,40.8672 106.1406,41.0859 C106.0313,41.2578 106,41.4141 106,41.8672 L106,41.9922 L104.5469,41.9922 L104.5469,39.5859 L108.5313,39.5859 L108.5313,40.4453 C108.5313,40.8516 108.5625,41.0234 108.6406,41.1797 C108.8125,41.4297 109.0938,41.5859 109.375,41.5859 C109.6406,41.5859 109.9063,41.4453 110.0781,41.2266 C110.1875,41.0547 110.2188,40.9141 110.2188,40.4453 L110.2188,37.8984 L102.5938,37.8984 C102.1563,37.8984 102.0313,37.9141 101.875,38.0078 C101.625,38.1641 101.4688,38.4609 101.4688,38.7422 C101.4688,39.0234 101.6094,39.2734 101.8281,39.4453 C101.9844,39.5547 102.1719,39.5859 102.5938,39.5859 L102.8438,39.5859 L102.8438,46.1016 L102.5938,46.1016 C102.1875,46.1016 102.0313,46.1172 101.875,46.2266 C101.625,46.3984 101.4688,46.6641 101.4688,46.9609 C101.4688,47.2266 101.6094,47.4766 101.8281,47.6328 C101.9688,47.7578 102.2031,47.8047 102.5938,47.8047 L110.5938,47.8047 L110.5938,45.2266 C110.5938,44.7891 110.5625,44.6484 110.4844,44.4922 C110.3125,44.2422 110.0313,44.0859 109.75,44.0859 C109.4844,44.0859 109.2188,44.1953 109.0469,44.4453 C108.9375,44.6016 108.9063,44.7422 108.9063,45.2266 L108.9063,46.1016 L104.5469,46.1016 L104.5469,43.6797 Z " fill="#000000"/><text fill="#000000" font-family="sans-serif" font-size="12" font-style="italic" lengthAdjust="spacing" textLength="77" x="124.25" y="41.1387">«Document»</text><text fill="#888888" font-family="sans-serif" font-size="10" lengthAdjust="spacing" textLength="53" x="136.25" y="53.251">Customer</text><line style="stroke:#181818;stroke-width:0.5;" x1="8" x2="285" y1="60.6094" y2="60.6094"/><ellipse cx="18" cy="74.2578" fill="#000000" rx="3" ry="3" style="stroke:#000000;stroke-width:1.0;"/><text fill="#000000" font-family="sans-serif" font-size="14" lengthAdjust="spacing" textLength="204" x="27" y="77.6045">id : ObjectId «id, generated»</text><ellipse cx="18" cy="90.5547" fill="#000000" rx="3" ry="3" style="stroke:#000000;stroke-width:1.0;"/><text fill="#000000" font-family="sans-serif" font-size="14" lengthAdjust="spacing" textLength="164" x="27" y="93.9014">name : CustomerName</text><ellipse cx="18" cy="106.8516" fill="#000000" rx="3" ry="3" style="stroke:#000000;stroke-width:1.0;"/><text fill="#000000" font-family="sans-serif" font-size="14" lengthAdjust="spacing" textLength="171" x="27" y="110.1982">billingAddress : Address</text><ellipse cx="18" cy="123.1484" fill="#000000" rx="3" ry="3" style="stroke:#000000;stroke-width:1.0;"/><text fill="#000000" font-family="sans-serif" font-size="14" lengthAdjust="spacing" textLength="253" x="27" y="126.4951">shippingAddresses : List&lt;Address&gt;</text></g><!--MD5=[cf4d6237fcae255cd2e1656cf84a30e2]
class Order--><g id="elem_Order"><rect codeLine="50" fill="#FFFFFF" height="141.3906" id="Order" rx="2.5" ry="2.5" style="stroke:#181818;stroke-width:0.5;" width="259" x="17" y="180"/><rect fill="none" height="35.6094" rx="2.5" ry="2.5" style="stroke:none;stroke-width:0.5;" width="259" x="17" y="180"/><rect fill="none" height="2.5" style="stroke:none;stroke-width:0.5;" width="259" x="17" y="213.1094"/><rect codeLine="50" fill="none" height="141.3906" id="Order" rx="2.5" ry="2.5" style="stroke:#181818;stroke-width:0.5;" width="259" x="17" y="180"/><ellipse cx="105.75" cy="197.8047" fill="#FF7700" rx="11" ry="11" style="stroke:#181818;stroke-width:1.0;"/><path d="M104.5469,198.6797 L106,198.6797 L106,198.7891 C106,199.1953 106.0313,199.3516 106.1094,199.5078 C106.2656,199.7578 106.5469,199.9141 106.8438,199.9141 C107.0938,199.9141 107.3594,199.7734 107.5156,199.5547 C107.6406,199.3984 107.6719,199.2422 107.6719,198.7891 L107.6719,196.8672 C107.6719,196.7109 107.6719,196.6641 107.6563,196.5078 C107.5938,196.0391 107.2813,195.7266 106.8281,195.7266 C106.5781,195.7266 106.3125,195.8672 106.1406,196.0859 C106.0313,196.2578 106,196.4141 106,196.8672 L106,196.9922 L104.5469,196.9922 L104.5469,194.5859 L108.5313,194.5859 L108.5313,195.4453 C108.5313,195.8516 108.5625,196.0234 108.6406,196.1797 C108.8125,196.4297 109.0938,196.5859 109.375,196.5859 C109.6406,196.5859 109.9063,196.4453 110.0781,196.2266 C110.1875,196.0547 110.2188,195.9141 110.2188,195.4453 L110.2188,192.8984 L102.5938,192.8984 C102.1563,192.8984 102.0313,192.9141 101.875,193.0078 C101.625,193.1641 101.4688,193.4609 101.4688,193.7422 C101.4688,194.0234 101.6094,194.2734 101.8281,194.4453 C101.9844,194.5547 102.1719,194.5859 102.5938,194.5859 L102.8438,194.5859 L102.8438,201.1016 L102.5938,201.1016 C102.1875,201.1016 102.0313,201.1172 101.875,201.2266 C101.625,201.3984 101.4688,201.6641 101.4688,201.9609 C101.4688,202.2266 101.6094,202.4766 101.8281,202.6328 C101.9688,202.7578 102.2031,202.8047 102.5938,202.8047 L110.5938,202.8047 L110.5938,200.2266 C110.5938,199.7891 110.5625,199.6484 110.4844,199.4922 C110.3125,199.2422 110.0313,199.0859 109.75,199.0859 C109.4844,199.0859 109.2188,199.1953 109.0469,199.4453 C108.9375,199.6016 108.9063,199.7422 108.9063,200.2266 L108.9063,201.1016 L104.5469,201.1016 L104.5469,198.6797 Z " fill="#000000"/><text fill="#000000" font-family="sans-serif" font-size="12" font-style="italic" lengthAdjust="spacing" textLength="77" x="124.25" y="196.1387">«Document»</text><text fill="#888888" font-family="sans-serif" font-size="10" lengthAdjust="spacing" textLength="31" x="147.25" y="208.251">Order</text><line style="stroke:#181818;stroke-width:0.5;" x1="18" x2="275" y1="215.6094" y2="215.6094"/><ellipse cx="28" cy="229.2578" fill="#000000" rx="3" ry="3" style="stroke:#000000;stroke-width:1.0;"/><text fill="#000000" font-family="sans-serif" font-size="14" lengthAdjust="spacing" textLength="204" x="37" y="232.6045">id : ObjectId «id, generated»</text><ellipse cx="28" cy="245.5547" fill="#000000" rx="3" ry="3" style="stroke:#000000;stroke-width:1.0;"/><text fill="#000000" font-family="sans-serif" font-size="14" lengthAdjust="spacing" textLength="156" x="37" y="248.9014">customerId : ObjectId</text><ellipse cx="28" cy="261.8516" fill="#000000" rx="3" ry="3" style="stroke:#000000;stroke-width:1.0;"/><text fill="#000000" font-family="sans-serif" font-size="14" lengthAdjust="spacing" textLength="233" x="37" y="265.1982">customerName : CustomerName</text><ellipse cx="28" cy="278.1484" fill="#000000" rx="3" ry="3" style="stroke:#000000;stroke-width:1.0;"/><text fill="#000000" font-family="sans-serif" font-size="14" lengthAdjust="spacing" textLength="153" x="37" y="281.4951">dateTime : DateTime</text><ellipse cx="28" cy="294.4453" fill="#000000" rx="3" ry="3" style="stroke:#000000;stroke-width:1.0;"/><text fill="#000000" font-family="sans-serif" font-size="14" lengthAdjust="spacing" textLength="189" x="37" y="297.792">shippingAddress : Address</text><ellipse cx="28" cy="310.7422" fill="#000000" rx="3" ry="3" style="stroke:#000000;stroke-width:1.0;"/><text fill="#000000" font-family="sans-serif" font-size="14" lengthAdjust="spacing" textLength="216" x="37" y="314.0889">orderItems : List&lt;OrderItem&gt;</text></g><!--MD5=[663c18ce459b41abc4dbff87433befbf]
link OrderItem to Product--><g id="link_OrderItem_Product"><path codeLine="36" d="M695.305,334.5 C695.305,334.5 773.424,334.5 811.39,334.5 " fill="none" id="OrderItem-Product" style="stroke:#181818;stroke-width:1.0;"/><polygon fill="#181818" points="683.305,334.5,689.305,338.5,695.305,334.5,689.305,330.5,683.305,334.5" style="stroke:#181818;stroke-width:1.0;"/><polygon fill="#181818" points="824.684,334.5,815.684,330.5,819.684,334.5,815.684,338.5,824.684,334.5" style="stroke:#181818;stroke-width:1.0;"/><line style="stroke:#181818;stroke-width:1.0;" x1="819.684" x2="811.684" y1="334.5" y2="334.4999"/><polygon fill="#000000" points="741,326.0664,731.9549,323.1275,731.9549,329.0053,741,326.0664" style="stroke:#000000;stroke-width:1.0;"/><text fill="#000000" font-family="sans-serif" font-size="13" lengthAdjust="spacing" textLength="49" x="745" y="330.5669">product</text></g><!--MD5=[1f3ee4d858788dab50ae472be2d2acf7]
link Customer to CustomerName--><g id="link_Customer_CustomerName"><path codeLine="45" d="M297.8021,123.9973 C297.8021,123.9973 415.767,158.919 468.073,174.404 " fill="none" id="Customer-CustomerName" style="stroke:#181818;stroke-width:1.0;"/><polygon fill="#181818" points="286.296,120.59,290.9133,126.129,297.8021,123.9973,293.1848,118.4583,286.296,120.59" style="stroke:#181818;stroke-width:1.0;"/><polygon fill="#181818" points="480.812,178.175,473.3175,171.785,476.0176,176.7558,471.0468,179.456,480.812,178.175" style="stroke:#181818;stroke-width:1.0;"/><line style="stroke:#181818;stroke-width:1.0;" x1="476.0176" x2="468.3465" y1="176.7558" y2="174.485"/><polygon fill="#000000" points="367.2943,122.4857,359.4556,117.1001,357.7871,122.7362,367.2943,122.4857" style="stroke:#000000;stroke-width:1.0;"/><text fill="#000000" font-family="sans-serif" font-size="13" lengthAdjust="spacing" textLength="37" x="371.5" y="125.5669">name</text></g><!--MD5=[9d267913275094cee8b213adaba16fc1]
link Customer to Address--><g id="link_Customer_Address"><path codeLine="46" d="M298.22,62.6072 C298.22,62.6072 310.547,61.79 316,61.5 C375.915,58.309 391.031,59.561 451,61.5 C465.064,61.955 479.916,62.668 494.47,63.498 " fill="none" id="Customer-Address" style="stroke:#181818;stroke-width:1.0;"/><polygon fill="#181818" points="286.253,63.496,292.5328,67.0406,298.22,62.6072,291.9403,59.0626,286.253,63.496" style="stroke:#181818;stroke-width:1.0;"/><polygon fill="#181818" points="507.723,64.29,498.9777,59.76,502.7319,63.9916,498.5003,67.7458,507.723,64.29" style="stroke:#181818;stroke-width:1.0;"/><line style="stroke:#181818;stroke-width:1.0;" x1="502.7319" x2="494.7455" y1="63.9916" y2="63.5145"/><polygon fill="#000000" points="341.9999,52.0891,332.9683,49.1091,332.9416,54.9869,341.9999,52.0891" style="stroke:#000000;stroke-width:1.0;"/><text fill="#000000" font-family="sans-serif" font-size="13" lengthAdjust="spacing" textLength="88" x="346" y="56.5669">billingAddress</text></g><!--MD5=[9d267913275094cee8b213adaba16fc1]
link Customer to Address--><g id="link_Customer_Address"><path codeLine="47" d="M286.204,87.382 C337.956,89.091 397.198,89.586 451,86.5 C467.703,85.542 485.48,83.941 502.544,82.113 " fill="none" id="Customer-to-Address" style="stroke:#181818;stroke-width:1.0;"/><polygon fill="#181818" points="507.814,81.539,498.4337,78.5372,502.8434,82.0805,499.3001,86.4902,507.814,81.539" style="stroke:#181818;stroke-width:1.0;"/><polygon fill="#000000" points="325.9985,77.9447,316.8846,75.2268,317.0277,81.103,325.9985,77.9447" style="stroke:#000000;stroke-width:1.0;"/><text fill="#000000" font-family="sans-serif" font-size="13" lengthAdjust="spacing" textLength="120" x="330" y="82.5669">shippingAddresses</text></g><!--MD5=[313d271a124a7d33c72dd414c33802cf]
link Order to CustomerName--><g id="link_Order_CustomerName"><path codeLine="59" d="M288.2347,261.1957 C288.2347,261.1957 398.637,261.414 451,253.5 C456.479,252.672 462.04,251.67 467.628,250.53 " fill="none" id="Order-CustomerName" style="stroke:#181818;stroke-width:1.0;"/><polygon fill="#181818" points="276.241,260.808,282.1086,264.9998,288.2347,261.1957,282.3671,257.0039,276.241,260.808" style="stroke:#181818;stroke-width:1.0;"/><polygon fill="#181818" points="480.692,247.637,471.0399,245.678,475.8103,248.7183,472.77,253.4886,480.692,247.637" style="stroke:#181818;stroke-width:1.0;"/><line style="stroke:#181818;stroke-width:1.0;" x1="475.8103" x2="468" y1="248.7183" y2="250.4475"/><polygon fill="#000000" points="336.4912,244.7697,327.2876,242.3727,327.6365,248.2402,336.4912,244.7697" style="stroke:#000000;stroke-width:1.0;"/><text fill="#000000" font-family="sans-serif" font-size="13" lengthAdjust="spacing" textLength="99" x="340.5" y="249.5669">customerName</text></g><!--MD5=[dd2bca8e69277b6dcf04d6bf8fed5dca]
link Order to Address--><g id="link_Order_Address"><path codeLine="60" d="M288.0572,234.7387 C288.0572,234.7387 423.958,211.38 451,193.5 C471.05,180.242 464.287,165.776 481,148.5 C486.234,143.089 491.886,137.801 497.767,132.689 " fill="none" id="Order-Address" style="stroke:#181818;stroke-width:1.0;"/><polygon fill="#181818" points="276.175,236.416,282.6752,239.5381,288.0572,234.7387,281.557,231.6166,276.175,236.416" style="stroke:#181818;stroke-width:1.0;"/><polygon fill="#181818" points="507.846,124.265,498.3753,126.9679,504.0097,127.4716,503.5059,133.106,507.846,124.265" style="stroke:#181818;stroke-width:1.0;"/><line style="stroke:#181818;stroke-width:1.0;" x1="504.0097" x2="497.872" y1="127.4716" y2="132.602"/><polygon fill="#000000" points="332.9959,182.8786,323.5767,184.1938,326.1487,189.479,332.9959,182.8786" style="stroke:#000000;stroke-width:1.0;"/><text fill="#000000" font-family="sans-serif" font-size="13" lengthAdjust="spacing" textLength="105" x="337.5" y="189.5669">shippingAddress</text></g><!--MD5=[06a6064c5cdd443a62b5eb59fb550c27]
link Order to OrderItem--><g id="link_Order_OrderItem"><path codeLine="61" d="M276.169,279.396 C289.601,282.22 303.067,284.972 316,287.5 C374.851,299.002 441.116,310.41 493.737,319.106 " fill="none" id="Order-to-OrderItem" style="stroke:#181818;stroke-width:1.0;"/><polygon fill="#181818" points="498.786,319.939,490.5577,314.5266,493.8528,319.1247,489.2547,322.4198,498.786,319.939" style="stroke:#181818;stroke-width:1.0;"/><polygon fill="#000000" points="350.9187,279.9642,342.5483,275.4489,341.493,281.2313,350.9187,279.9642" style="stroke:#000000;stroke-width:1.0;"/><text fill="#000000" font-family="sans-serif" font-size="13" lengthAdjust="spacing" textLength="70" x="355" y="283.5669">orderItems</text></g><!--MD5=[713a9841e78fa7638380fb004166ab1f]
@startuml
hide empty methods
left to right direction

class CustomerName <value object> {
    *firstname : String
    *lastname : String
    *email : String
}

class Address <value object> {
    *street : String
    *streetNr : String
    *zip : Integer
    *city : String
    *state : String
} 

class OrderItem <value object> {
    *product : Product
    *quantity : Integer
    *itemPrice : Decimal
}

entity Product <<(E,#FF7700) Document>> {
    *id : ObjectId <<id, generated>>
    *ean : String
    *name : String
    *category : String
    *recommendedPrice : Decimal
    *stock : Integer
    *minStock : Integer
    availableFrom : DateTime
    availableTo : DateTime
}

OrderItem *- -> Product : > product

entity Customer <<(E,#FF7700) Document>> {
    *id : ObjectId <<id, generated>>
    *name : CustomerName
    *billingAddress : Address
    *shippingAddresses : List<Address>
}

Customer *- -> CustomerName  : > name
Customer *- -> Address  : > billingAddress
Customer - -> Address : > shippingAddresses


entity Order <<(E,#FF7700) Document>> {
    *id : ObjectId <<id, generated>>
    *customerId : ObjectId
    *customerName : CustomerName
    *dateTime : DateTime
    *shippingAddress : Address
    *orderItems : List<OrderItem>
}

Order *- -> CustomerName  : > customerName
Order *- -> Address  : > shippingAddress
Order - -> OrderItem  : > orderItems
@enduml

PlantUML version 1.2022.13beta2(Unknown compile time)
(GPL source distribution)
Java Runtime: Java(TM) SE Runtime Environment
JVM: Java HotSpot(TM) 64-Bit Server VM
Default Encoding: UTF-8
Language: en
Country: US
--></g></svg>